<?xml version="1.0" standalone="no"?><!DOCTYPE svg PUBLIC "-//W3C//DTD SVG 1.1//EN" "http://www.w3.org/Graphics/SVG/1.1/DTD/svg11.dtd"><svg t="1611551214850" class="icon" viewBox="0 0 1024 1024" version="1.1" xmlns="http://www.w3.org/2000/svg" p-id="20748" xmlns:xlink="http://www.w3.org/1999/xlink" width="200" height="200"><defs><style type="text/css"></style></defs><path d="M90.352941 210.823529v240.941177h240.941177V210.823529H90.352941z m210.82353 30.117647v180.705883H120.470588V240.941176h180.705883zM602.352941 240.941176h-30.117647V210.823529h60.235294v60.235295h-30.117647V240.941176zM542.117647 210.823529v30.117647h-60.235294V210.823529h60.235294zM451.764706 210.823529v30.117647h-30.117647v30.117648h-30.117647V210.823529h60.235294zM391.529412 301.176471h30.117647v60.235294h-30.117647v-60.235294zM391.529412 391.529412h30.117647v30.117647h30.117647v30.117647h-60.235294v-60.235294zM481.882353 451.764706v-30.117647h60.235294v30.117647h-60.235294zM572.235294 451.764706v-30.117647h30.117647v-30.117647h30.117647v60.235294h-60.235294zM632.470588 361.411765h-30.117647v-60.235294h30.117647v60.235294zM572.235294 602.352941h30.117647v30.117647h30.117647v-60.235294h-60.235294v30.117647zM542.117647 602.352941v-30.117647h-60.235294v30.117647h60.235294zM451.764706 602.352941v-30.117647h-60.235294v60.235294h30.117647v-30.117647h30.117647zM421.647059 662.588235h-30.117647v60.235294h30.117647v-60.235294zM421.647059 752.941176h-30.117647v60.235295h60.235294v-30.117647h-30.117647v-30.117648zM481.882353 783.058824v30.117647h60.235294v-30.117647h-60.235294zM572.235294 783.058824v30.117647h60.235294v-60.235295h-30.117647v30.117648h-30.117647zM602.352941 722.823529h30.117647v-60.235294h-30.117647v60.235294zM301.176471 602.352941H271.058824v-30.117647h60.235294v60.235294h-30.117647v-30.117647zM240.941176 572.235294v30.117647H180.705882v-30.117647h60.235294zM150.588235 572.235294v30.117647H120.470588v30.117647H90.352941v-60.235294h60.235294zM90.352941 662.588235h30.117647v60.235294H90.352941v-60.235294zM90.352941 752.941176h30.117647v30.117648h30.117647v30.117647H90.352941v-60.235295zM180.705882 813.176471v-30.117647h60.235294v30.117647H180.705882zM271.058824 813.176471v-30.117647h30.117647v-30.117648h30.117647v60.235295H271.058824zM331.294118 722.823529h-30.117647v-60.235294h30.117647v60.235294zM873.411765 240.941176h30.117647v30.117648h30.117647V210.823529h-60.235294v30.117647zM843.294118 240.941176V210.823529h-60.235294v30.117647h60.235294zM752.941176 240.941176V210.823529h-60.235294v60.235295h30.117647V240.941176h30.117647zM722.823529 301.176471h-30.117647v60.235294h30.117647v-60.235294zM722.823529 391.529412h-30.117647v60.235294h60.235294v-30.117647h-30.117647v-30.117647zM783.058824 421.647059v30.117647h60.235294v-30.117647h-60.235294zM873.411765 421.647059v30.117647h60.235294v-60.235294h-30.117647v30.117647h-30.117647zM903.529412 361.411765h30.117647v-60.235294h-30.117647v60.235294zM903.529412 602.352941h-30.117647v-30.117647h60.235294v60.235294h-30.117647v-30.117647zM843.294118 572.235294v30.117647h-60.235294v-30.117647h60.235294zM752.941176 572.235294v30.117647h-30.117647v30.117647h-30.117647v-60.235294h60.235294zM692.705882 662.588235h30.117647v60.235294h-30.117647v-60.235294zM692.705882 752.941176h30.117647v30.117648h30.117647v30.117647h-60.235294v-60.235295zM783.058824 813.176471v-30.117647h60.235294v30.117647h-60.235294zM873.411765 813.176471v-30.117647h30.117647v-30.117648h30.117647v60.235295h-60.235294zM933.647059 722.823529h-30.117647v-60.235294h30.117647v60.235294z" fill="#8E8E8E" p-id="20749"></path><path d="M30.117647 120.470588a30.117647 30.117647 0 0 0-30.117647 30.117647v722.82353a30.117647 30.117647 0 0 0 30.117647 30.117647h963.764706a30.117647 30.117647 0 0 0 30.117647-30.117647V150.588235a30.117647 30.117647 0 0 0-30.117647-30.117647H30.117647z m963.764706 30.117647v722.82353H30.117647V150.588235h963.764706z" fill="#8E8E8E" p-id="20750"></path></svg>