<?xml version="1.0" standalone="no"?><!DOCTYPE svg PUBLIC "-//W3C//DTD SVG 1.1//EN" "http://www.w3.org/Graphics/SVG/1.1/DTD/svg11.dtd"><svg t="1611558171730" class="icon" viewBox="0 0 1024 1024" version="1.1" xmlns="http://www.w3.org/2000/svg" p-id="30468" xmlns:xlink="http://www.w3.org/1999/xlink" width="200" height="200"><defs><style type="text/css"></style></defs><path d="M508.4 113.8c220.5 0 400 179.5 400 400s-179.5 400-400 400-400-179.5-400-400 179.5-400 400-400z m0 752.9c194.6 0 352.9-158.3 352.9-352.9S703 160.9 508.4 160.9s-352.9 158.3-352.9 352.9 158.3 352.9 352.9 352.9z" fill="#1296db" p-id="30469"></path><path d="M508.4 278.5c13.00000001 0 23.5 10.5 23.5 23.50000001L531.9 725.19999999c0 13.00000001-10.5 23.5-23.5 23.50000001s-23.5-10.5-23.5-23.5L484.9 302c0-13.00000001 10.5-23.5 23.5-23.5z" fill="#1296db" p-id="30470"></path><path d="M367.3 560.9c6 0 12 2.3 16.6 6.9L508.4 692.3 632.99999999 567.8c9.2-9.2 24.1-9.2 33.30000001 0 9.2 9.2 9.2 24.1 0 33.3l-141.2 141.2c-9.2 9.2-24.1 9.2-33.3 0l-141.2-141.2c-9.2-9.2-9.2-24.1 0-33.3 4.6-4.6 10.6-6.9 16.7-6.9z" fill="#1296db" p-id="30471"></path></svg>