<?xml version="1.0" standalone="no"?><!DOCTYPE svg PUBLIC "-//W3C//DTD SVG 1.1//EN" "http://www.w3.org/Graphics/SVG/1.1/DTD/svg11.dtd"><svg t="1611558154257" class="icon" viewBox="0 0 1024 1024" version="1.1" xmlns="http://www.w3.org/2000/svg" p-id="30336" xmlns:xlink="http://www.w3.org/1999/xlink" width="200" height="200"><defs><style type="text/css"></style></defs><path d="M515.6 910.2c-220.5 0-400-179.5-400-400s179.5-400 400-400 400 179.5 400 400-179.5 400-400 400z m0-752.9c-194.6 0-352.9 158.3-352.9 352.9S321 863.1 515.6 863.1s352.9-158.3 352.9-352.9-158.3-352.9-352.9-352.9z" fill="#1296db" p-id="30337"></path><path d="M515.6 745.5c-13 0-23.5-10.5-23.5-23.5V298.8c0-13 10.5-23.5 23.5-23.5s23.5 10.5 23.5 23.5V722c0 13-10.5 23.5-23.5 23.5z" fill="#1296db" p-id="30338"></path><path d="M656.7 463.1c-6 0-12-2.3-16.6-6.9L515.6 331.7 391 456.2c-9.2 9.2-24.1 9.2-33.3 0-9.2-9.2-9.2-24.1 0-33.3l141.2-141.2c9.2-9.2 24.1-9.2 33.3 0l141.2 141.2c9.2 9.2 9.2 24.1 0 33.3-4.6 4.6-10.6 6.9-16.7 6.9z" fill="#1296db" p-id="30339"></path></svg>