<?xml version="1.0" standalone="no"?><!DOCTYPE svg PUBLIC "-//W3C//DTD SVG 1.1//EN" "http://www.w3.org/Graphics/SVG/1.1/DTD/svg11.dtd"><svg t="1611558044712" class="icon" viewBox="0 0 1024 1024" version="1.1" xmlns="http://www.w3.org/2000/svg" p-id="28943" xmlns:xlink="http://www.w3.org/1999/xlink" width="200" height="200"><defs><style type="text/css"></style></defs><path d="M962.048 781.824c0 99.328-80.384 180.224-180.224 180.224H242.176c-99.328 0-180.224-80.384-180.224-180.224V242.176c0-99.328 80.384-180.224 180.224-180.224h540.16c99.328 0 180.224 80.384 180.224 180.224v539.648z" p-id="28944"></path><path d="M351.232 377.856l7.68-36.352 323.584 74.752-7.68 36.352-323.584-74.752z m22.528 286.72L302.08 402.432l34.816-10.24 71.68 262.656-34.816 9.728z m99.84 47.616l-20.992-30.72 251.392-187.392 20.992 30.72-251.392 187.392z" fill="#FFFFFF" p-id="28945"></path><path d="M306.688 415.744c-39.424 0-71.68-33.792-71.68-74.752S266.752 266.24 306.688 266.24s71.68 33.792 71.68 74.752-32.256 74.752-71.68 74.752z m0-112.128c-19.968 0-35.84 16.896-35.84 37.376s16.384 37.376 35.84 37.376 35.84-16.896 35.84-37.376-16.384-37.376-35.84-37.376z m107.52 487.424c-39.424 0-71.68-33.792-71.68-74.752 0-41.472 32.256-74.752 71.68-74.752s71.68 33.792 71.68 74.752-32.256 74.752-71.68 74.752z m0-112.64c-19.968 0-35.84 16.896-35.84 37.376s16.384 37.376 35.84 37.376 35.84-16.896 35.84-37.376-15.872-37.376-35.84-37.376z m323.584-150.016c-39.424 0-71.68-33.792-71.68-74.752s32.256-74.752 71.68-74.752 71.68 33.792 71.68 74.752-32.256 74.752-71.68 74.752z m0-112.64c-19.968 0-35.84 16.896-35.84 37.376s15.872 37.376 35.84 37.376 35.84-16.896 35.84-37.376-16.384-37.376-35.84-37.376z" fill="#FFFFFF" p-id="28946"></path></svg>