<?xml version="1.0" standalone="no"?><!DOCTYPE svg PUBLIC "-//W3C//DTD SVG 1.1//EN" "http://www.w3.org/Graphics/SVG/1.1/DTD/svg11.dtd"><svg t="1611558189860" class="icon" viewBox="0 0 1024 1024" version="1.1" xmlns="http://www.w3.org/2000/svg" p-id="30732" xmlns:xlink="http://www.w3.org/1999/xlink" width="200" height="200"><defs><style type="text/css"></style></defs><path d="M515.6 910.2c-220.5 0-400-179.5-400-400s179.5-400 400-400 400 179.5 400 400-179.5 400-400 400z m0-752.9c-194.6 0-352.9 158.3-352.9 352.9S321 863.1 515.6 863.1s352.9-158.3 352.9-352.9-158.3-352.9-352.9-352.9z" fill="#1296db" p-id="30733"></path><path d="M745.5 508.4c0 13.00000001-10.5 23.5-23.50000001 23.5L298.80000001 531.9c-13.00000001 0-23.5-10.5-23.50000001-23.5s10.5-23.5 23.5-23.5L722 484.9c13.00000001 0 23.5 10.5 23.5 23.5z" fill="#1afa29" p-id="30734"></path><path d="M463.1 367.3c0 6-2.3 12-6.9 16.6L331.7 508.4 456.2 632.99999999c9.2 9.2 9.2 24.1 0 33.30000001-9.2 9.2-24.1 9.2-33.3 0l-141.2-141.2c-9.2-9.2-9.2-24.1 0-33.3l141.2-141.2c9.2-9.2 24.1-9.2 33.3 0 4.6 4.6 6.9 10.6 6.9 16.7z" fill="#1afa29" p-id="30735"></path></svg>