<?xml version="1.0" standalone="no"?><!DOCTYPE svg PUBLIC "-//W3C//DTD SVG 1.1//EN" "http://www.w3.org/Graphics/SVG/1.1/DTD/svg11.dtd"><svg t="1611558185946" class="icon" viewBox="0 0 1024 1024" version="1.1" xmlns="http://www.w3.org/2000/svg" p-id="30600" xmlns:xlink="http://www.w3.org/1999/xlink" width="200" height="200"><defs><style type="text/css"></style></defs><path d="M113.8 515.6c0-220.5 179.5-400 400-400s400 179.5 400 400-179.5 400-400 400-400-179.5-400-400z m752.9 0c0-194.6-158.3-352.9-352.9-352.9S160.9 321 160.9 515.6s158.3 352.9 352.9 352.9 352.9-158.3 352.9-352.9z" fill="#1296db" p-id="30601"></path><path d="M278.5 515.6c0-13.00000001 10.5-23.5 23.50000001-23.5L725.19999999 492.1c13.00000001 0 23.5 10.5 23.50000001 23.5s-10.5 23.5-23.5 23.5L302 539.1c-13.00000001 0-23.5-10.5-23.5-23.5z" fill="#1afa29" p-id="30602"></path><path d="M560.9 656.7c0-6 2.3-12 6.9-16.6L692.3 515.6 567.8 391.00000001c-9.2-9.2-9.2-24.1 0-33.30000001 9.2-9.2 24.1-9.2 33.3 0l141.2 141.2c9.2 9.2 9.2 24.1 0 33.3l-141.2 141.2c-9.2 9.2-24.1 9.2-33.3 0-4.6-4.6-6.9-10.6-6.9-16.7z" fill="#1afa29" p-id="30603"></path></svg>