<?xml version="1.0" standalone="no"?><!DOCTYPE svg PUBLIC "-//W3C//DTD SVG 1.1//EN" "http://www.w3.org/Graphics/SVG/1.1/DTD/svg11.dtd"><svg t="1611553337957" class="icon" viewBox="0 0 1024 1024" version="1.1" xmlns="http://www.w3.org/2000/svg" p-id="24976" xmlns:xlink="http://www.w3.org/1999/xlink" width="200" height="200"><defs><style type="text/css"></style></defs><path d="M435.513661 392.482009H740.048197v24.284004H435.513661z m-148.985645 0h65.632443v24.284004h-65.632443z m238.902092 321.59897H740.048197v24.940328H525.430108z m-238.902092 0h153.579916v24.940328H286.528016z m407.577471-161.455809h45.94271v24.284003h-45.94271z m-407.577471 0H608.783311v24.284003H286.528016z" fill="#FFFFFF" p-id="24977"></path><path d="M274.714176 404.295848a11.81384 11.81384 0 0 0 11.81384 11.81384 11.81384 11.81384 0 0 0 12.470164-11.81384 11.81384 11.81384 0 0 0-12.470164-11.813839 11.81384 11.81384 0 0 0-11.81384 12.470164zM725.609059 404.295848a11.81384 11.81384 0 0 0 12.470164 11.81384 11.81384 11.81384 0 0 0 11.81384-11.81384 11.81384 11.81384 0 0 0-9.844866-11.813839 11.81384 11.81384 0 0 0-12.470165 12.470164zM725.609059 565.095334a11.81384 11.81384 0 0 0 12.470164 11.813839 11.81384 11.81384 0 0 0 11.81384-11.813839 12.470164 12.470164 0 1 0-24.284004 0zM725.609059 725.894819a12.470164 12.470164 0 1 0 12.470164-12.470164 12.470164 12.470164 0 0 0-12.470164 12.470164zM274.714176 565.095334a11.81384 11.81384 0 0 0 11.81384 11.813839 11.81384 11.81384 0 0 0 12.470164-11.813839 12.470164 12.470164 0 1 0-24.284004 0zM274.714176 725.894819a12.470164 12.470164 0 1 0 11.81384-12.470164 12.470164 12.470164 0 0 0-11.81384 12.470164zM392.852574 458.114452a55.131252 55.131252 0 0 1-55.131253-54.474928 55.787576 55.787576 0 0 1 55.131253-55.131252 55.131252 55.131252 0 0 1 54.474927 55.131252 54.474928 54.474928 0 0 1-54.474927 54.474928z m0-85.322176a30.847248 30.847248 0 1 0 0 61.038172 30.847248 30.847248 0 0 0 0-61.038172z m258.591825 248.090634a55.131252 55.131252 0 0 1-55.131252-54.474927 55.787576 55.787576 0 0 1 55.131252-55.131253 55.131252 55.131252 0 0 1 54.474927 55.131253 54.474928 54.474928 0 0 1-54.474927 54.474927z m0-85.322176a30.847248 30.847248 0 1 0 30.190923 30.847249 30.847248 30.847248 0 0 0-30.190923-30.847249z m-168.675379 244.152688a55.131252 55.131252 0 0 1-54.474927-55.131252 54.474928 54.474928 0 0 1 54.474927-54.474928 55.131252 55.131252 0 0 1 55.131252 54.474928 55.787576 55.787576 0 0 1-55.131252 55.131252z m0-85.322176a30.847248 30.847248 0 1 0 30.847249 30.190924 30.847248 30.847248 0 0 0-30.847249-30.190924z" fill="#FFFFFF" p-id="24978"></path><path d="M350.191486 402.9832a42.661088 42.661088 0 1 0 42.661088-42.661088 42.661088 42.661088 0 0 0-42.661088 42.661088zM608.783311 563.782685a42.661088 42.661088 0 1 0 42.661088-40.03579 42.661088 42.661088 0 0 0-42.661088 40.03579zM440.107932 724.58217a42.661088 42.661088 0 1 0 42.661088-42.661088 42.661088 42.661088 0 0 0-42.661088 42.661088z" fill="#FFFFFF" p-id="24979"></path><path d="M417.136577 89.916447a93.854393 93.854393 0 0 0 45.94271 82.696878 92.541745 92.541745 0 1 0-45.94271-82.696878z m546.061926 601.849502a93.198069 93.198069 0 1 0 15.095462 112.231477 93.854393 93.854393 0 0 0-15.095462-112.231477z m-930.668041 38.066816a93.198069 93.198069 0 1 0 113.544126-65.632442 93.198069 93.198069 0 0 0-113.544126 65.632442z m656.324429-565.095333a411.515417 411.515417 0 0 1 225.119279 366.229031v28.878275a237.589443 237.589443 0 0 1 85.322176 28.221951 480.429482 480.429482 0 0 0-287.4701-508.651433 266.467718 266.467718 0 0 1-22.971355 85.322176zM21.372946 584.785067l1.312649 4.594271h4.594271a189.021436 189.021436 0 0 1 82.040554-24.284004l3.281622-31.503573a402.9832 402.9832 0 0 1 222.493982-364.260058 246.121661 246.121661 0 0 1-17.064435-85.9785A479.773158 479.773158 0 0 0 21.372946 584.785067z m779.057098 341.945027l4.594271-4.594271h-3.937946a188.365111 188.365111 0 0 1-61.038172-57.100225 409.546444 409.546444 0 0 1-455.489154 0 246.777985 246.777985 0 0 1-65.632443 57.75655 479.773158 479.773158 0 0 0 580.84712 6.563244z" fill="#33E5B8" p-id="24980"></path></svg>