<?xml version="1.0" standalone="no"?><!DOCTYPE svg PUBLIC "-//W3C//DTD SVG 1.1//EN" "http://www.w3.org/Graphics/SVG/1.1/DTD/svg11.dtd"><svg t="1611743623944" class="icon" viewBox="0 0 1024 1024" version="1.1" xmlns="http://www.w3.org/2000/svg" p-id="1420" xmlns:xlink="http://www.w3.org/1999/xlink" width="200" height="200"><defs><style type="text/css"></style></defs><path d="M832 768a21.333333 21.333333 0 1 1 0 42.666667h-640a21.333333 21.333333 0 1 1 0-42.666667h640zM300.202667 409.002667a21.333333 21.333333 0 0 1 2.432 27.221333l-2.432 2.944-75.434667 75.434667 75.434667 75.392a21.333333 21.333333 0 0 1-27.221334 32.64l-2.986666-2.432-90.453334-90.538667a21.333333 21.333333 0 0 1-2.517333-27.221333l2.645333-3.114667 90.325334-90.325333a21.333333 21.333333 0 0 1 30.208 0zM832 490.666667a21.333333 21.333333 0 1 1 0 42.666666h-384a21.333333 21.333333 0 1 1 0-42.666666h384z m0-277.333334a21.333333 21.333333 0 1 1 0 42.666667h-640a21.333333 21.333333 0 0 1 0-42.666667h640z" fill="#999999" p-id="1421"></path></svg>