<?xml version="1.0" standalone="no"?><!DOCTYPE svg PUBLIC "-//W3C//DTD SVG 1.1//EN" "http://www.w3.org/Graphics/SVG/1.1/DTD/svg11.dtd"><svg t="1611743564830" class="icon" viewBox="0 0 1024 1024" version="1.1" xmlns="http://www.w3.org/2000/svg" p-id="1288" xmlns:xlink="http://www.w3.org/1999/xlink" width="200" height="200"><defs><style type="text/css"></style></defs><path d="M832 768a21.333333 21.333333 0 1 1 0 42.666667h-640a21.333333 21.333333 0 1 1 0-42.666667h640z m0-554.666667a21.333333 21.333333 0 1 1 0 42.666667h-640a21.333333 21.333333 0 0 1 0-42.666667h640zM209.664 409.002667l90.538667 90.496a21.333333 21.333333 0 0 1 0 30.165333l-90.538667 90.538667a21.333333 21.333333 0 1 1-30.165333-30.208l75.392-75.392-75.392-75.434667a21.333333 21.333333 0 1 1 30.165333-30.165333zM832 490.666667a21.333333 21.333333 0 1 1 0 42.666666h-384a21.333333 21.333333 0 1 1 0-42.666666h384z" fill="#999999" p-id="1289"></path></svg>