<?xml version="1.0" standalone="no"?><!DOCTYPE svg PUBLIC "-//W3C//DTD SVG 1.1//EN" "http://www.w3.org/Graphics/SVG/1.1/DTD/svg11.dtd"><svg t="1611557907466" class="icon" viewBox="0 0 1024 1024" version="1.1" xmlns="http://www.w3.org/2000/svg" p-id="26239" xmlns:xlink="http://www.w3.org/1999/xlink" width="200" height="200"><defs><style type="text/css"></style></defs><path d="M416.846769 541.617231a20.427487 20.427487 0 0 0 5.933949-13.994667 19.718564 19.718564 0 0 0-8.192-15.963897 12.471795 12.471795 0 0 1-4.936205-9.609846v-148.217436a25.993846 25.993846 0 0 1 7.614359-18.379488 27.201641 27.201641 0 0 1 18.537025-7.614359h33.083077a21.504 21.504 0 0 0 0-42.981743h-70.708512a2.625641 2.625641 0 0 0-1.417847 0.551384 4.306051 4.306051 0 0 0-0.551384 1.549129v215.171282a10.817641 10.817641 0 0 1-5.251282 9.87241 20.086154 20.086154 0 0 0-7.614359 15.753846 19.849846 19.849846 0 0 0 5.933948 13.994667 19.639795 19.639795 0 0 0 27.569231-0.131282z" fill="#00FFFF" opacity=".5" p-id="26240"></path><path d="M696.188718 420.338872h-262.564103v76.406154a42.010256 42.010256 0 0 1 12.865641 30.825025 43.611897 43.611897 0 0 1-87.223794 0 46.237538 46.237538 0 0 1 4.673641-19.639795 42.955487 42.955487 0 0 1 8.192-11.18523v-76.406154h-44.373334a5.251282 5.251282 0 0 0-3.964718 1.549128 6.038974 6.038974 0 0 0-1.549128 3.964718v208.922256h379.562667v-208.922256a5.48759 5.48759 0 0 0-5.618872-5.513846z" fill="#00FFFF" opacity=".5" p-id="26241"></path><path d="M512 0A512 512 0 1 0 1024 512 512 512 0 0 0 512 0z m229.717333 654.834872a19.82359 19.82359 0 0 1-19.928615 19.928615h-158.483692v76.458667a11.867897 11.867897 0 1 1-23.63077 0V674.789744h-55.112205v76.458666a11.946667 11.946667 0 0 1-23.893333 0V674.789744h-158.326154a19.849846 19.849846 0 0 1-20.086154-19.928616v-229.00841a45.686154 45.686154 0 0 1 45.528616-45.528615h44.373333v-93.446565a26.939077 26.939077 0 0 1 7.876923-18.510769 25.810051 25.810051 0 0 1 18.248205-7.509333h70.682257a45.397333 45.397333 0 0 1 0 90.76841H435.85641a2.625641 2.625641 0 0 0-1.575384 0.551385 1.759179 1.759179 0 0 0-0.551385 1.549128v26.571487h262.564103a45.502359 45.502359 0 0 1 45.528615 45.528616v229.00841z" fill="#00FFFF" opacity=".5" p-id="26242"></path></svg>