<?xml version="1.0" standalone="no"?><!DOCTYPE svg PUBLIC "-//W3C//DTD SVG 1.1//EN" "http://www.w3.org/Graphics/SVG/1.1/DTD/svg11.dtd"><svg t="1611743653234" class="icon" viewBox="0 0 1024 1024" version="1.1" xmlns="http://www.w3.org/2000/svg" p-id="1552" xmlns:xlink="http://www.w3.org/1999/xlink" width="200" height="200"><defs><style type="text/css"></style></defs><path d="M270.634667 270.634667a21.333333 21.333333 0 0 1 30.165333 0l211.2 211.2 211.2-211.2a21.333333 21.333333 0 1 1 30.165333 30.165333L542.165333 512l211.2 211.2a21.333333 21.333333 0 0 1 2.474667 27.221333l-2.474667 2.944a21.333333 21.333333 0 0 1-30.165333 0L512 542.165333l-211.2 211.2a21.333333 21.333333 0 1 1-30.165333-30.165333l211.2-211.2-211.2-211.2a21.333333 21.333333 0 0 1-2.474667-27.221333z" fill="#999999" p-id="1553"></path></svg>