<?xml version="1.0" standalone="no"?><!DOCTYPE svg PUBLIC "-//W3C//DTD SVG 1.1//EN" "http://www.w3.org/Graphics/SVG/1.1/DTD/svg11.dtd"><svg t="1611385242962" class="icon" viewBox="0 0 1024 1024" version="1.1" xmlns="http://www.w3.org/2000/svg" p-id="4587" xmlns:xlink="http://www.w3.org/1999/xlink" width="200" height="200"><defs><style type="text/css"></style></defs><path d="M513.652946 672.748991h414.393543l-216.866505-611.589992c-11.570621-23.967716-20.827119-36.034221-27.273608-36.034221h-147.277482a96.366747 96.366747 0 0 0-11.240032 19.008878c-2.14883 4.132365-4.462954 8.760613-7.107667 13.388862v49.588378-49.588378c-7.603551-13.058273-19.008878-31.736562-24.794189-31.736562H340.093624c-6.611784 0-16.529459 12.066505-26.612429 34.54657L67.357546 677.707829v20.661824h446.2954z" fill="#D1684B" p-id="4588"></path><path d="M956.642454 825.646489v-99.176755a24.794189 24.794189 0 0 0-24.794189-24.794189h-396.707022a24.794189 24.794189 0 0 0-23.141243 16.529459 24.794189 24.794189 0 0 0-23.141243-16.529459H92.151735a24.794189 24.794189 0 0 0-24.794189 24.794189v99.176755a24.794189 24.794189 0 0 0 24.794189 24.794189 24.794189 24.794189 0 0 0-24.794189 24.794189v99.176755a24.794189 24.794189 0 0 0 24.794189 24.794189h396.707022a24.794189 24.794189 0 0 0 23.141243-16.529459 24.794189 24.794189 0 0 0 23.141243 16.529459h396.707022a24.794189 24.794189 0 0 0 24.794189-24.794189v-99.176755a24.794189 24.794189 0 0 0-24.794189-24.794189 24.794189 24.794189 0 0 0 24.794189-24.794189z m-444.642454 41.158354a24.794189 24.794189 0 0 0-23.141243-16.52946 24.794189 24.794189 0 0 0 23.141243-16.529459 24.794189 24.794189 0 0 0 23.141243 16.529459 24.794189 24.794189 0 0 0-23.141243 16.52946z" fill="#AD4F3D" p-id="4589"></path><path d="M733.494754 49.588378c-19.008878-39.340113-33.058918-49.588378-49.588378-49.588378h-148.765133a23.306538 23.306538 0 0 0-19.339467 10.578854A31.901856 31.901856 0 0 0 493.321711 0H340.093624c-16.529459 0-30.5795 10.744149-49.588378 49.588378L46.365133 663.492494A50.580145 50.580145 0 0 0 42.563358 682.666667v140.996287a49.588378 49.588378 0 0 0 6.942372 25.124778A49.588378 49.588378 0 0 0 42.563358 873.747215v100.168523a49.588378 49.588378 0 0 0 49.588377 49.588378h396.707022a48.59661 48.59661 0 0 0 23.141243-6.1159 48.59661 48.59661 0 0 0 23.141243 6.1159h396.707022a49.588378 49.588378 0 0 0 49.588377-49.588378v-100.168523a49.588378 49.588378 0 0 0-6.942372-25.124778 49.588378 49.588378 0 0 0 6.942372-25.124778V682.666667a50.580145 50.580145 0 0 0-3.801775-19.174173z m-247.941889 775.562227H92.151735v-99.176755h393.40113z m446.2954 0H538.447135v-99.176755h393.40113zM535.141243 51.241324l141.326876-1.652946c2.479419 3.305892 11.570621 26.447135 16.52946 37.521872l235.04891 586.134625L538.447135 672.748991zM330.175948 86.614366A236.040678 236.040678 0 0 1 347.531881 49.588378h150.252784l-12.2318 623.160613H95.953511zM92.151735 974.411622v-99.176755h393.40113v99.176755z m839.69653 0H538.447135v-99.176755h393.40113z" fill="#7F2F1C" p-id="4590"></path><path d="M210.284041 516.728327m22.998485 9.263988l0 0q22.998485 9.263988 13.734498 32.262473l-55.583926 137.990913q-9.263988 22.998485-32.262474 13.734497l0 0q-22.998485-9.263988-13.734497-32.262473l55.583926-137.990912q9.263988-22.998485 32.262473-13.734498Z" fill="#7F2F1C" p-id="4591"></path><path d="M854.638626 708.848941m-24.003352 6.212158l0 0q-24.003352 6.212159-30.21551-17.791193l-49.821512-192.506879q-6.212159-24.003352 17.791193-30.215511l0 0q24.003352-6.212159 30.21551 17.791194l49.821512 192.506879q6.212159 24.003352-17.791193 30.21551Z" fill="#7F2F1C" p-id="4592"></path><path d="M632.565876 534.562712m-24.794189 0l0 0q-24.794189 0-24.794189-24.794189l0-198.849395q0-24.794189 24.794189-24.794189l0 0q24.794189 0 24.794189 24.794189l0 198.849395q0 24.794189-24.794189 24.794189Z" fill="#7F2F1C" p-id="4593"></path><path d="M392.28103 566.741589m24.734093 1.725238l0 0q24.734093 1.725238 23.008854 26.459332l-6.900953 98.936371q-1.725238 24.734093-26.459331 23.008855l0 0q-24.734093-1.725238-23.008855-26.459331l6.900954-98.936372q1.725238-24.734093 26.459331-23.008855Z" fill="#7F2F1C" p-id="4594"></path><path d="M386.706699 238.189508a24.959483 24.959483 0 0 1-19.174173-29.587732l31.240678-163.806941a24.794189 24.794189 0 0 1 29.422438-19.339468 24.959483 24.959483 0 0 1 19.174172 29.587732l-31.240678 163.806941a24.794189 24.794189 0 0 1-29.422437 19.339468zM617.45795 140.00452a24.959483 24.959483 0 0 0 21.984181-27.604197l-6.777079-67.605488A24.959483 24.959483 0 0 0 604.564972 22.645359 24.959483 24.959483 0 0 0 583.241969 49.588378l6.777079 67.440193a24.959483 24.959483 0 0 0 27.438902 22.975949z" fill="#7F2F1C" p-id="4595"></path></svg>