<?xml version="1.0" standalone="no"?><!DOCTYPE svg PUBLIC "-//W3C//DTD SVG 1.1//EN" "http://www.w3.org/Graphics/SVG/1.1/DTD/svg11.dtd"><svg t="1611383906233" class="icon" viewBox="0 0 1024 1024" version="1.1" xmlns="http://www.w3.org/2000/svg" p-id="3910" xmlns:xlink="http://www.w3.org/1999/xlink" width="200" height="200"><defs><style type="text/css"></style></defs><path d="M646.144 275.456c-67.584 0-122.88 55.296-122.88 122.88s55.296 122.88 122.88 122.88 122.88-55.296 122.88-122.88-55.296-122.88-122.88-122.88z m0 204.8c-45.056 0-81.92-36.864-81.92-81.92s36.864-81.92 81.92-81.92 81.92 36.864 81.92 81.92-36.864 81.92-81.92 81.92z" fill="#3E3E4C" p-id="3911"></path><path d="M918.528 377.856l-117.76-204.8c-7.168-12.288-20.48-20.48-35.84-20.48H528.384c-14.336 0-27.648 8.192-35.84 20.48l-69.632 121.856-38.912-38.912c-16.384-16.384-41.984-16.384-58.368 0L94.208 487.424c-16.384 16.384-16.384 41.984 0 58.368l58.368 58.368c16.384 16.384 41.984 16.384 58.368 0l28.672-28.672 28.672 28.672 28.672-28.672 19.456 19.456-19.456 36.864 28.672 28.672 28.672-28.672 19.456 19.456-19.456 38.912 28.672 28.672 28.672-28.672 19.456 19.456-18.432 37.888 28.672 28.672L471.04 747.52l19.456 19.456-19.456 38.912 28.672 28.672 28.672-28.672 19.456 19.456-19.456 38.912 28.672 28.672 28.672-28.672 28.672 28.672 115.712-115.712-27.648-29.696 28.672-28.672-28.672-28.672-28.672 28.672-19.456-19.456 19.456-38.912-17.408-17.408h108.544c14.336 0 27.648-8.192 35.84-20.48l117.76-204.8c7.168-11.264 7.168-27.648 0-39.936zM195.584 560.128c-8.192 8.192-20.48 8.192-28.672 0l-28.672-28.672c-8.192-8.192-8.192-20.48 0-28.672l202.752-202.752c8.192-8.192 20.48-8.192 28.672 0l28.672 28.672c8.192 8.192 8.192 20.48 0 28.672L195.584 560.128z m419.84 101.376l-17.408-17.408h33.792l-16.384 17.408z m149.504-58.368H615.424l-28.672-28.672-28.672 28.672-19.456-19.456 19.456-38.912-28.672-28.672-28.672 28.672-11.264-11.264-7.168-11.264 17.408-35.84-28.672-27.648-16.384 16.384-18.432-32.768 6.144-12.288-28.672-28.672 28.672-28.672c12.288-12.288 15.36-28.672 9.216-44.032L529.408 194.56h236.544l117.76 204.8-118.784 203.776z" fill="#3E3E4C" p-id="3912"></path><path d="M364.544 583.68l28.672 28.672 38.912-76.8-28.672-28.672zM547.84 651.264l-28.672-28.672-38.912 76.8 28.672 28.672zM489.472 593.92L460.8 564.224l-38.912 77.824 29.696 28.672zM373.76 477.184l-19.456-18.432-57.344 57.344 38.912 38.912zM595.968 815.104l19.456 19.456 58.368-57.344-38.912-38.912zM606.208 709.632l-29.696-29.696-37.888 77.824 28.672 28.672z" fill="#C1C1E0" p-id="3913"></path></svg>