<?xml version="1.0" standalone="no"?><!DOCTYPE svg PUBLIC "-//W3C//DTD SVG 1.1//EN" "http://www.w3.org/Graphics/SVG/1.1/DTD/svg11.dtd"><svg t="1611567781364" class="icon" viewBox="0 0 1026 1024" version="1.1" xmlns="http://www.w3.org/2000/svg" p-id="51122" xmlns:xlink="http://www.w3.org/1999/xlink" width="200.390625" height="200"><defs><style type="text/css"></style></defs><path d="M499.174349 652.569138H142.108216c-41.042084 0-74.388778-33.346693-74.388777-74.388777V447.871743c0-41.042084 33.346693-74.388778 74.388777-74.388777h357.066133c41.042084 0 74.388778 33.346693 74.388777 74.388777v130.308618c0 41.042084-33.346693 74.388778-74.388777 74.388777zM142.108216 419.655311c-15.390782 0-28.216433 12.825651-28.216432 28.216432v130.308618c0 15.390782 12.825651 28.216433 28.216432 28.216433h357.066133c15.903808 0 28.216433-12.312625 28.216433-28.216433V447.871743c0-15.390782-12.825651-28.216433-28.216433-28.216432H142.108216z" fill="#3D4C83" p-id="51123"></path><path d="M868.04008 256H510.460922c-28.216433 0-51.302605-23.086172-51.302605-51.302605V74.388778c0-28.216433 23.086172-51.302605 51.302605-51.302606h357.066132c28.216433 0 51.302605 23.086172 51.302605 51.302606v130.308617c0.513026 28.216433-22.573146 51.302605-50.789579 51.302605z" fill="#DAE6F7" p-id="51124"></path><path d="M868.04008 271.390782H510.460922c-36.937876 0-66.693387-29.755511-66.693387-66.693387V74.388778c0-36.937876 29.755511-66.693387 66.693387-66.693387h357.066132c36.937876 0 66.693387 29.755511 66.693387 66.693387v130.308617c0.513026 17.442886-6.156313 34.372745-18.981964 46.685371-12.312625 12.825651-29.242485 20.008016-47.198397 20.008016zM510.460922 38.476954c-20.008016 0-35.911824 15.903808-35.911824 35.911824v130.308617c0 20.008016 15.903808 35.911824 35.911824 35.911823h357.579158c9.747495 0 18.468938-3.591182 25.138277-10.773547 6.669339-6.669339 10.260521-15.390782 10.260521-25.138276V73.875752c0-20.008016-15.903808-35.911824-35.911824-35.911824H510.460922zM397.082164 378.613226h-30.781563V262.156313c0-40.529058 32.833667-73.362725 73.362726-73.362726v30.781563c-23.599198 0-42.581162 18.981964-42.581163 42.581163v116.456913zM439.663327 837.258517c-40.529058 0-73.362725-32.833667-73.362726-73.362725v-116.456914h30.781563v116.456914c0 23.599198 18.981964 42.581162 42.581163 42.581162v30.781563z" fill="#0455CA" p-id="51125"></path><path d="M868.04008 995.270541H510.460922c-28.216433 0-51.302605-23.086172-51.302605-51.302605v-130.308617c0-28.216433 23.086172-51.302605 51.302605-51.302606h357.066132c28.216433 0 51.302605 23.086172 51.302605 51.302606V943.967936c0.513026 28.216433-22.573146 51.302605-50.789579 51.302605z" fill="#DAE6F7" p-id="51126"></path><path d="M868.04008 1010.661323H510.460922c-36.937876 0-66.693387-29.755511-66.693387-66.693387v-130.308617c0-36.937876 29.755511-66.693387 66.693387-66.693387h357.066132c36.937876 0 66.693387 29.755511 66.693387 66.693387V943.967936c0.513026 17.442886-6.156313 34.372745-18.981964 46.685371-12.312625 12.825651-29.242485 20.008016-47.198397 20.008016z m-357.579158-232.913828c-20.008016 0-35.911824 15.903808-35.911824 35.911824V943.967936c0 20.008016 15.903808 35.911824 35.911824 35.911824h357.579158c9.747495 0 18.468938-3.591182 25.138277-10.773548 6.669339-6.669339 10.260521-15.390782 10.260521-25.138276v-130.821643c0-20.008016-15.903808-35.911824-35.911824-35.911824H510.460922z" fill="#0455CA" p-id="51127"></path></svg>