<?xml version="1.0" standalone="no"?><!DOCTYPE svg PUBLIC "-//W3C//DTD SVG 1.1//EN" "http://www.w3.org/Graphics/SVG/1.1/DTD/svg11.dtd"><svg t="1611553266803" class="icon" viewBox="0 0 1025 1024" version="1.1" xmlns="http://www.w3.org/2000/svg" p-id="22583" xmlns:xlink="http://www.w3.org/1999/xlink" width="200.1953125" height="200"><defs><style type="text/css"></style></defs><path d="M0 384m67.36 0l633.28 0q67.36 0 67.36 67.36l0 291.95q0 67.36-67.36 67.36l-633.28 0q-67.36 0-67.36-67.36l0-291.95q0-67.36 67.36-67.36Z" fill="#12C39B" p-id="22584"></path><path d="M170.67 128m67.36 0l633.28 0q67.36 0 67.36 67.36l0 291.95q0 67.36-67.36 67.36l-633.28 0q-67.36 0-67.36-67.36l0-291.95q0-67.36 67.36-67.36Z" fill="#FFA32B" p-id="22585"></path><path d="M949 682.67l37.5-37.5a128 128 0 1 0-181-181l-37.5 37.5-37.5-37.5a128 128 0 0 0-181 181l37.5 37.5-37.5 37.5a128 128 0 1 0 181 181l37.5-37.5 37.5 37.5a128 128 0 0 0 181-181z" fill="#FFFFFF" p-id="22586"></path><path d="M828.33 682.67l97.83-97.84a42.66 42.66 0 1 0-60.33-60.33L768 622.33l-97.84-97.83a42.66 42.66 0 1 0-60.33 60.33l97.83 97.84-97.83 97.83a42.66 42.66 0 1 0 60.33 60.33L768 743l97.83 97.83a42.66 42.66 0 0 0 60.33-60.33z" fill="#FF4273" p-id="22587"></path></svg>