<?xml version="1.0" standalone="no"?><!DOCTYPE svg PUBLIC "-//W3C//DTD SVG 1.1//EN" "http://www.w3.org/Graphics/SVG/1.1/DTD/svg11.dtd"><svg t="1611743896219" class="icon" viewBox="0 0 1024 1024" version="1.1" xmlns="http://www.w3.org/2000/svg" p-id="1682" xmlns:xlink="http://www.w3.org/1999/xlink" width="200" height="200"><defs><style type="text/css"></style></defs><path d="M441.770667 731.562667l75.392 75.434666 75.434666-75.434666a21.333333 21.333333 0 0 1 30.165334 30.208l-90.496 90.453333a21.333333 21.333333 0 0 1-30.165334 0l-90.538666-90.453333a21.333333 21.333333 0 0 1 13.269333-36.352h3.669333c4.821333 0.426667 9.557333 2.474667 13.226667 6.144zM234.666667 170.666667a21.333333 21.333333 0 0 1 21.333333 21.333333v640a21.333333 21.333333 0 0 1-17.493333 20.992L234.666667 853.333333a21.333333 21.333333 0 0 1-21.333334-21.333333v-640a21.333333 21.333333 0 0 1 17.493334-20.992L234.666667 170.666667z m554.666666 0a21.333333 21.333333 0 0 1 21.333334 21.333333v640a21.333333 21.333333 0 0 1-17.493334 20.992L789.333333 853.333333a21.333333 21.333333 0 0 1-21.333333-21.333333v-640a21.333333 21.333333 0 0 1 17.493333-20.992L789.333333 170.666667zM512 170.666667a21.333333 21.333333 0 0 1 21.333333 21.333333v384a21.333333 21.333333 0 0 1-17.493333 20.992L512 597.333333a21.333333 21.333333 0 0 1-21.333333-21.333333v-384a21.333333 21.333333 0 0 1 17.493333-20.992L512 170.666667z" fill="#999999" p-id="1683"></path></svg>