<?xml version="1.0" standalone="no"?><!DOCTYPE svg PUBLIC "-//W3C//DTD SVG 1.1//EN" "http://www.w3.org/Graphics/SVG/1.1/DTD/svg11.dtd"><svg t="1611569425378" class="icon" viewBox="0 0 1024 1024" version="1.1" xmlns="http://www.w3.org/2000/svg" p-id="53565" xmlns:xlink="http://www.w3.org/1999/xlink" width="200" height="200"><defs><style type="text/css"></style></defs><path d="M96 864h832v64H96z" fill="#4f7ce4" p-id="53566"></path><path d="M959.999 288.001v608h-64v-608z" fill="#4f7ce4" p-id="53567"></path><path d="M128 256h800v64H128z" fill="#4f7ce4" p-id="53568"></path><path d="M141.4 286.5l135.8-135.8c12.5-12.5 12.5-32.8 0-45.3s-32.8-12.5-45.3 0L73.5 263.9c-12.5 12.5-12.5 32.8 0 45.3l158.4 158.4c12.5 12.5 32.8 12.5 45.3 0s12.5-32.8 0-45.3L141.4 286.5z" fill="#4f7ce4" p-id="53569"></path><path d="M96 896m-32 0a32 32 0 1 0 64 0 32 32 0 1 0-64 0Z" fill="#4f7ce4" p-id="53570"></path><path d="M928 896m-32 0a32 32 0 1 0 64 0 32 32 0 1 0-64 0Z" fill="#4f7ce4" p-id="53571"></path><path d="M928 288m-32 0a32 32 0 1 0 64 0 32 32 0 1 0-64 0Z" fill="#4f7ce4" p-id="53572"></path><path d="M864 864h32v-32c0 17.7-14.3 32-32 32zM864 320c17.7 0 32 14.3 32 32v-32h-32z" fill="#4f7ce4" p-id="53573"></path></svg>