<?xml version="1.0" standalone="no"?><!DOCTYPE svg PUBLIC "-//W3C//DTD SVG 1.1//EN" "http://www.w3.org/Graphics/SVG/1.1/DTD/svg11.dtd"><svg t="1611553313066" class="icon" viewBox="0 0 1092 1024" version="1.1" xmlns="http://www.w3.org/2000/svg" p-id="24124" xmlns:xlink="http://www.w3.org/1999/xlink" width="213.28125" height="200"><defs><style type="text/css"></style></defs><path d="M512.273067 1020.5184H30.3104v-955.733333h481.962667v309.179733h-67.584V134.280533H101.034667V956.416h343.517866v-245.077333h67.584v309.179733z m60.2112 0h486.8096v-955.733333H572.484267v309.179733h66.628266V134.280533h354.986667V956.416h-354.986667v-245.077333h-66.628266v309.179733z" fill="#4A97EB" p-id="24125"></path><path d="M512.273067 513.979733L380.245333 390.826667l-42.734933 39.936L427.349333 514.525867H150.869333v56.183466h276.48L337.578667 654.472533l42.734933 39.936L512.273067 571.392l-0.682667-0.6144h0.682667v-56.183467h-0.682667l0.682667-0.546133z m421.614933 0.546134H657.408l89.770667-83.7632-42.8032-39.936-131.8912 123.153066 0.6144 0.546134h-0.6144v56.183466h0.6144l-0.6144 0.6144 131.8912 123.0848 42.8032-39.936L657.408 570.709333h276.48v-56.183466z" fill="#4A97EB" p-id="24126"></path></svg>