<?xml version="1.0" standalone="no"?><!DOCTYPE svg PUBLIC "-//W3C//DTD SVG 1.1//EN" "http://www.w3.org/Graphics/SVG/1.1/DTD/svg11.dtd"><svg t="1611650649694" class="icon" viewBox="0 0 1024 1024" version="1.1" xmlns="http://www.w3.org/2000/svg" p-id="15471" xmlns:xlink="http://www.w3.org/1999/xlink" width="200" height="200"><defs><style type="text/css"></style></defs><path d="M74.9 485.8l411-411c14.5-14.5 38-14.5 52.5 0s14.5 38 0 52.5L153.7 512l384.8 384.8c14.5 14.5 14.5 38 0 52.5-7.3 7.3-16.8 10.9-26.3 10.9s-19-3.6-26.3-10.9l-411-411c-14.5-14.5-14.5-38 0-52.5z" fill="#050001" p-id="15472"></path><path d="M485.9 485.8l411-411c14.5-14.5 38-14.5 52.5 0s14.5 38 0 52.5L564.7 512l384.8 384.8c14.5 14.5 14.5 38 0 52.5-7.3 7.3-16.8 10.9-26.3 10.9s-19-3.6-26.3-10.9l-411-411c-14.5-14.5-14.5-38 0-52.5z" fill="#050001" p-id="15473"></path></svg>