<?xml version="1.0" standalone="no"?><!DOCTYPE svg PUBLIC "-//W3C//DTD SVG 1.1//EN" "http://www.w3.org/Graphics/SVG/1.1/DTD/svg11.dtd"><svg t="1611629111289" class="icon" viewBox="0 0 1024 1024" version="1.1" xmlns="http://www.w3.org/2000/svg" p-id="3790" xmlns:xlink="http://www.w3.org/1999/xlink" width="200" height="200"><defs><style type="text/css"></style></defs><path d="M742.7 154L546.6 395.6l26.8 61.9s187.5-196 224.3-244.8c2.4-3.2 2.2-7.6-0.4-10.6l-41.6-48.3c-3.4-4-9.7-3.9-13 0.2z" fill="#FFFFFF" p-id="3791"></path><path d="M571.1 470.2l-32.8-75.7 198.8-245c3-3.7 7.4-5.8 12.1-5.8 4.5 0 8.9 2 11.8 5.4l41.6 48.3c4.8 5.5 5 13.8 0.7 19.6-36.6 48.5-217.1 237.4-224.8 245.4l-7.4 7.8z m-16.2-73.4l20.8 48.1C610.8 408 760 250.8 792 208.5c0.4-0.5 0.3-1.2-0.1-1.7l-41.6-48.3c-0.7-0.8-1.4-0.8-2.1 0L554.9 396.8z" fill="" p-id="3792"></path><path d="M593.9 435.7l3.8-4.6-36-53.7-8.3 10s-267.2 320.9-274 332.1-32.6 45.3-43.5 137.3c0 0 77.6-29.8 131.5-86.4 53.9-56.6 266.7-270.7 266.7-270.7l-40.4-56.3c-1.7-2.4-1.6-5.5 0.2-7.7z" fill="#FFFFFF" p-id="3793"></path><path d="M227.5 867.6l1.4-11.7c10.3-86.6 33.9-123.5 42.7-137.3 0.7-1.1 1.3-2 1.8-2.8 6.9-11.3 247.2-300 274.6-332.9l14.3-17.4 44.2 66.1-6.7 8.2 43.6 60.7-4.2 4.3c-2.1 2.1-213.4 214.8-266.6 270.6-54.4 57.1-130.8 86.9-134.1 88.1l-11 4.1z m333.7-478.3l-2.2 2.6C452.3 520 291.5 713.9 285.5 723.2c-0.5 0.9-1.2 1.9-1.9 3.1-8 12.5-28.4 44.5-39 119.1 23.2-10.4 77.5-37.7 117.6-79.9 49.1-51.5 232.2-236 262.6-266.6l-36.9-51.4c-3.5-4.9-3.3-11.6 0.5-16.3l0.4-0.5-27.6-41.4z" fill="" p-id="3794"></path><path d="M235.5 829.6l-1.1-3.4c60.2-19.2 90.2-44.7 101.5-54.4 1.2-1 2.2-1.9 3-2.5 8.5-6.8 8.5-6.8 188.2-187.2l94.2-94.5 2.5 2.5-94.2 94.5C349.7 765.2 349.7 765.2 341.1 772.1c-0.8 0.6-1.7 1.5-2.9 2.4-11.5 9.8-41.9 35.7-102.7 55.1z" fill="" p-id="3795"></path></svg>