<?xml version="1.0" standalone="no"?><!DOCTYPE svg PUBLIC "-//W3C//DTD SVG 1.1//EN" "http://www.w3.org/Graphics/SVG/1.1/DTD/svg11.dtd"><svg t="1611536832758" class="icon" viewBox="0 0 1024 1024" version="1.1" xmlns="http://www.w3.org/2000/svg" p-id="18837" xmlns:xlink="http://www.w3.org/1999/xlink" width="200" height="200"><defs><style type="text/css"></style></defs><path d="M968.704 1023.488h-670.72c-28.672 0-52.224-23.552-52.224-52.224v-680.96c0-28.672 23.552-52.224 52.224-52.224h671.232c28.672 0 52.224 23.552 52.224 52.224v680.96c-0.512 28.672-23.552 52.224-52.736 52.224zM297.984 278.528c-6.144 0-11.264 5.12-11.264 11.264v680.96c0 6.144 5.12 11.264 11.264 11.264h671.232c6.144 0 11.264-5.12 11.264-11.264v-680.96c0-6.144-5.12-11.264-11.264-11.264H297.984z" fill="" p-id="18838"></path><path d="M144.384 881.152c-11.264 0-20.48-9.216-20.48-20.48V196.096c0-43.008 34.816-77.824 77.824-77.824H808.96c11.264 0 20.48 9.216 20.48 20.48s-9.216 20.48-20.48 20.48H201.728c-20.48 0-36.864 16.384-36.864 36.864v665.088c0 10.752-9.216 19.968-20.48 19.968z" fill="" p-id="18839"></path><path d="M20.48 763.392c-11.264 0-20.48-9.216-20.48-20.48V77.824C0 34.816 34.816 0 77.824 0h607.232c11.264 0 20.48 9.216 20.48 20.48s-9.216 20.48-20.48 20.48H77.824c-20.48 0-36.864 16.384-36.864 36.864v665.088c0 11.264-9.216 20.48-20.48 20.48z" fill="" p-id="18840"></path><path d="M391.68 700.928v-161.28h31.744l66.048 107.52v-107.52h30.208v161.28h-32.768l-65.024-104.96v104.96h-30.208zM553.984 700.928v-161.28h119.296v27.136h-87.04v35.84h80.896v27.136h-80.896v44.032h90.112v27.136h-122.368zM727.04 700.928l-38.4-161.28h33.28l24.064 110.592 29.696-110.592h38.912l28.16 112.64 24.576-112.64h32.768l-38.912 161.28h-34.304l-32.256-120.32-31.744 120.32h-35.84z" fill="" p-id="18841"></path></svg>