<?xml version="1.0" standalone="no"?><!DOCTYPE svg PUBLIC "-//W3C//DTD SVG 1.1//EN" "http://www.w3.org/Graphics/SVG/1.1/DTD/svg11.dtd"><svg t="1612171179338" class="icon" viewBox="0 0 1024 1024" version="1.1" xmlns="http://www.w3.org/2000/svg" p-id="6946" xmlns:xlink="http://www.w3.org/1999/xlink" width="200" height="200"><defs><style type="text/css"></style></defs><path d="M825.7536 168.5504H340.5824c-18.2272 0-32.9728 14.7456-32.9728 32.9728v98.304c0 18.2272 14.7456 32.9728 32.9728 32.9728h485.1712c18.2272 0 32.9728-14.7456 32.9728-32.9728v-98.304c0.2048-18.0224-14.7456-32.9728-32.9728-32.9728zM825.7536 690.9952H340.5824c-18.2272 0-32.9728 14.7456-32.9728 32.9728v98.304c0 18.2272 14.7456 32.9728 32.9728 32.9728h485.1712c18.2272 0 32.9728-14.7456 32.9728-32.9728v-98.304c0.2048-18.2272-14.7456-32.9728-32.9728-32.9728zM340.5824 594.3296h308.0192c18.2272 0 32.9728-14.7456 32.9728-32.9728v-98.304c0-18.2272-14.7456-32.9728-32.9728-32.9728H340.5824c-18.2272 0-32.9728 14.7456-32.9728 32.9728v98.304c0 18.0224 14.7456 32.9728 32.9728 32.9728zM191.0784 134.7584c-15.9744 0-29.0816 12.9024-29.0816 29.0816v696.32c0 15.9744 12.9024 29.0816 29.0816 29.0816s29.0816-12.9024 29.0816-29.0816V163.84c0-15.9744-12.9024-29.0816-29.0816-29.0816z" fill="#8a8a8a" p-id="6947"></path></svg>