<?xml version="1.0" standalone="no"?><!DOCTYPE svg PUBLIC "-//W3C//DTD SVG 1.1//EN" "http://www.w3.org/Graphics/SVG/1.1/DTD/svg11.dtd"><svg t="1611384162822" class="icon" viewBox="0 0 1024 1024" version="1.1" xmlns="http://www.w3.org/2000/svg" p-id="4165" xmlns:xlink="http://www.w3.org/1999/xlink" width="200" height="200"><defs><style type="text/css"></style></defs><path d="M170.666667 985.28a21.333333 21.333333 0 0 1-21.333334-21.482667l1.194667-180.842666a21.333333 21.333333 0 0 1 21.333333-21.184h0.149334a21.333333 21.333333 0 0 1 21.184 21.482666l-0.981334 147.285334 144.576-66.432a21.333333 21.333333 0 0 1 17.813334 38.741333l-175.04 80.448a20.949333 20.949333 0 0 1-8.896 1.984z" fill="#0F4C75" p-id="4166"></path><path d="M171.84 804.437333a21.333333 21.333333 0 0 1-18.453333-32l306.218666-530.410666a21.333333 21.333333 0 1 1 36.949334 21.333333L190.336 793.770667a21.333333 21.333333 0 0 1-18.496 10.666666zM349.333333 898.432a21.333333 21.333333 0 0 1-18.453333-32l298.176-516.394667a21.312 21.312 0 1 1 36.949333 21.333334L367.829333 887.765333a21.248 21.248 0 0 1-18.496 10.666667z" fill="#0F4C75" p-id="4167"></path><path d="M626.218667 452.608a20.245333 20.245333 0 0 1-3.882667-0.362667l-244.714667-44.885333a21.333333 21.333333 0 0 1 7.701334-41.962667l244.736 44.885334a21.333333 21.333333 0 0 1-3.84 42.325333zM567.296 558.698667a20.245333 20.245333 0 0 1-3.882667-0.362667L318.656 513.493333a21.333333 21.333333 0 1 1 7.701333-41.962666l244.778667 44.864a21.333333 21.333333 0 0 1-3.84 42.304zM499.648 661.013333a19.882667 19.882667 0 0 1-3.861333-0.362666l-236.992-43.434667a21.333333 21.333333 0 1 1 7.701333-41.962667L503.466667 618.709333a21.333333 21.333333 0 0 1-3.818667 42.304zM435.178667 772.650667c-1.194667 0-2.410667-0.106667-3.648-0.32L193.216 731.221333a21.333333 21.333333 0 1 1 7.253333-42.026666l238.314667 41.109333a21.333333 21.333333 0 0 1-3.605333 42.346667z" fill="#515151" p-id="4168"></path><path d="M795.434667 398.976c-59.925333 0-147.968-30.186667-235.477334-80.725333-125.205333-72.277333-232.853333-178.517333-196.373333-241.749334 8.32-14.4 27.562667-31.552 72.042667-31.552 59.925333 0 147.968 30.186667 235.541333 80.704 64.298667 37.141333 120.128 80.618667 157.205333 122.432 54.058667 60.970667 51.114667 98.56 39.104 119.338667-8.32 14.4-27.541333 31.552-72.042666 31.552zM435.626667 87.616c-18.282667 0-31.402667 3.818667-35.114667 10.218667-11.605333 20.138667 41.642667 103.146667 180.757333 183.466666 80.128 46.272 162.176 75.008 214.144 75.008 18.282667 0 31.402667-3.818667 35.093334-10.218666 4.053333-7.04 1.450667-29.610667-34.090667-69.696-34.133333-38.485333-86.186667-78.890667-146.602667-113.770667-80.128-46.250667-162.218667-75.008-214.186666-75.008z" fill="#0F4C75" p-id="4169"></path><path d="M689.962667 286.272a21.162667 21.162667 0 0 1-10.645334-2.858667l-148.864-85.930666a21.333333 21.333333 0 0 1 21.333334-36.949334l148.864 85.930667a21.312 21.312 0 0 1-10.688 39.808z" fill="#0F4C75" p-id="4170"></path><path d="M598.912 272.064a21.312 21.312 0 0 1-18.453333-32l33.216-57.536a21.333333 21.333333 0 1 1 36.949333 21.333333l-33.216 57.536a21.290667 21.290667 0 0 1-18.496 10.666667z" fill="#0F4C75" p-id="4171"></path></svg>