<?xml version="1.0" standalone="no"?><!DOCTYPE svg PUBLIC "-//W3C//DTD SVG 1.1//EN" "http://www.w3.org/Graphics/SVG/1.1/DTD/svg11.dtd"><svg t="1611384153653" class="icon" viewBox="0 0 1092 1024" version="1.1" xmlns="http://www.w3.org/2000/svg" p-id="4038" xmlns:xlink="http://www.w3.org/1999/xlink" width="213.28125" height="200"><defs><style type="text/css"></style></defs><path d="M85.333333 392.533333c47.786667 20.48 85.333333 27.306667 119.466667 27.306667l-23.893333 6.826667c-10.24 3.413333-17.066667 13.653333-17.066667 23.893333v119.466667c0 10.24 6.826667 20.48 17.066667 23.893333l81.92 27.306667c6.826667 3.413333 13.653333 6.826667 13.653333 13.653333 3.413333 6.826667 3.413333 13.653333 0 20.48L238.933333 737.28c-3.413333 10.24-3.413333 20.48 3.413334 27.306667l85.333333 85.333333c6.826667 6.826667 17.066667 10.24 27.306667 3.413333l78.506666-37.546666c6.826667-3.413333 13.653333-3.413333 20.48 0 6.826667 3.413333 10.24 6.826667 13.653334 13.653333l27.306666 81.92c3.413333 10.24 13.653333 17.066667 23.893334 17.066667h119.466666c10.24 0 20.48-6.826667 23.893334-17.066667l27.306666-81.92c3.413333-6.826667 6.826667-13.653333 13.653334-13.653333 6.826667-3.413333 13.653333-3.413333 20.48 0l78.506666 37.546666c10.24 3.413333 20.48 3.413333 27.306667-3.413333l85.333333-85.333333c6.826667-6.826667 10.24-17.066667 3.413334-27.306667l-37.546667-78.506667c-3.413333-6.826667-3.413333-13.653333 0-20.48s6.826667-10.24 13.653333-13.653333l81.92-27.306667c10.24-3.413333 17.066667-13.653333 17.066667-23.893333v-119.466667c0-10.24-6.826667-20.48-17.066667-23.893333l-81.92-27.306667c-6.826667-3.413333-13.653333-6.826667-13.653333-13.653333-3.413333-6.826667-3.413333-13.653333 0-20.48L921.6 286.72c3.413333-10.24 3.413333-20.48-3.413333-27.306667l-85.333334-85.333333c-6.826667-6.826667-17.066667-10.24-27.306666-3.413333l-78.506667 37.546666c-6.826667 3.413333-13.653333 3.413333-20.48 0-6.826667-3.413333-10.24-6.826667-13.653333-13.653333l-27.306667-81.92c-3.413333-10.24-13.653333-17.066667-23.893333-17.066667h-119.466667c-10.24 0-20.48 6.826667-23.893333 17.066667l-27.306667 81.92c-3.413333 6.826667-6.826667 13.653333-13.653333 13.653333-6.826667 3.413333-13.653333 3.413333-20.48 0L375.466667 177.493333c-3.413333-34.133333-20.48-68.266667-40.96-98.986666 10.24 0 17.066667 3.413333 27.306666 6.826666l58.026667 30.72 20.48-61.44C447.146667 20.48 477.866667 0 515.413333 0H648.533333c34.133333 0 64.853333 20.48 75.093334 54.613333l20.48 61.44 58.026666-30.72c30.72-13.653333 68.266667-10.24 92.16 13.653334L989.866667 197.973333c23.893333 23.893333 30.72 61.44 13.653333 92.16l-30.72 58.026667 61.44 20.48c34.133333 10.24 54.613333 40.96 54.613333 78.506667V580.266667c0 34.133333-20.48 64.853333-54.613333 75.093333l-61.44 20.48 30.72 58.026667c17.066667 30.72 10.24 68.266667-13.653333 92.16L894.293333 921.6c-23.893333 23.893333-61.44 30.72-92.16 13.653333l-58.026666-27.306666-20.48 61.44c-10.24 34.133333-40.96 54.613333-75.093334 54.613333h-133.12c-34.133333 0-64.853333-23.893333-75.093333-54.613333l-20.48-61.44-58.026667 27.306666c-30.72 13.653333-68.266667 6.826667-92.16-13.653333L170.666667 826.026667c-23.893333-23.893333-30.72-61.44-13.653334-92.16l30.72-58.026667-61.44-20.48C92.16 645.12 68.266667 614.4 68.266667 576.853333V443.733333c0-17.066667 6.826667-34.133333 17.066666-51.2zM580.266667 669.013333c-85.333333 0-157.013333-71.68-157.013334-157.013333 0-85.333333 71.68-157.013333 157.013334-157.013333 85.333333 0 157.013333 71.68 157.013333 157.013333 0 85.333333-71.68 157.013333-157.013333 157.013333z" fill="#A9D9D3" p-id="4039"></path><path d="M153.6 187.733333h-68.266667c-10.24 0-17.066667 6.826667-17.066666 17.066667s6.826667 17.066667 17.066666 17.066667h68.266667v68.266666c0 10.24 6.826667 17.066667 17.066667 17.066667s17.066667-6.826667 17.066666-17.066667v-68.266666h68.266667c10.24 0 17.066667-6.826667 17.066667-17.066667s-6.826667-17.066667-17.066667-17.066667h-68.266667v-68.266666c0-10.24-6.826667-17.066667-17.066666-17.066667s-17.066667 6.826667-17.066667 17.066667v68.266666zM170.666667 375.466667c-95.573333 0-170.666667-75.093333-170.666667-170.666667s75.093333-170.666667 170.666667-170.666667 170.666667 75.093333 170.666666 170.666667-75.093333 170.666667-170.666666 170.666667z" fill="#129588" p-id="4040"></path></svg>