<?xml version="1.0" standalone="no"?><!DOCTYPE svg PUBLIC "-//W3C//DTD SVG 1.1//EN" "http://www.w3.org/Graphics/SVG/1.1/DTD/svg11.dtd"><svg t="1611557944391" class="icon" viewBox="0 0 1024 1024" version="1.1" xmlns="http://www.w3.org/2000/svg" p-id="27264" xmlns:xlink="http://www.w3.org/1999/xlink" width="200" height="200"><defs><style type="text/css"></style></defs><path d="M510.91602 242.811574h293.397318c10.839802 0 22.402258 0 33.242061 1.445307 52.753705 6.503881 78.769231 34.687368 78.76923 85.995765 0.722653 127.909668 0.722653 256.54199 0 384.451659 2.16796 49.863091-36.132675 91.776994-85.995765 93.944954h-9.394496c-206.678899 0.722653-413.357798 0.722653-620.036697 0.722653-57.089626 0-93.222301-36.132675-93.944954-91.05434-0.722653-127.909668-0.722653-255.096683 0-383.006351 0.722653-62.1482 31.796754-91.776994 96.112915-92.499647 102.616796-0.722653 205.233592 0 307.850388 0" fill="#3881FF" p-id="27265"></path><path d="M683.630205 627.313818H458.162315v39.023289l-130.800283-93.944955 130.800283 1.445307h225.46789v53.476359z m-130.800283-143.808045H327.362032v-53.476359h225.46789v-39.023288l130.800283 93.944954-130.800283-1.445307z" fill="#FFFFFF" p-id="27266"></path></svg>