<?xml version="1.0" standalone="no"?><!DOCTYPE svg PUBLIC "-//W3C//DTD SVG 1.1//EN" "http://www.w3.org/Graphics/SVG/1.1/DTD/svg11.dtd"><svg t="1611379478696" class="icon" viewBox="0 0 1024 1024" version="1.1" xmlns="http://www.w3.org/2000/svg" p-id="1413" xmlns:xlink="http://www.w3.org/1999/xlink" width="200" height="200"><defs><style type="text/css"></style></defs><path d="M787.2 1024c-19.2 0-32-6.4-44.8-19.2L25.6 281.6C12.8 275.2 6.4 256 6.4 236.8c0-19.2 6.4-32 19.2-44.8L185.6 32c12.8-12.8 25.6-19.2 44.8-19.2 19.2 0 32 6.4 44.8 19.2l716.8 716.8c12.8 12.8 19.2 25.6 19.2 44.8 0 19.2-6.4 32-19.2 44.8L832 998.4c-6.4 19.2-25.6 25.6-44.8 25.6zM236.8 44.8c-6.4 0-12.8 0-19.2 6.4L51.2 217.6c-6.4 6.4-12.8 12.8-12.8 19.2 0 6.4 0 12.8 6.4 19.2L768 979.2c6.4 6.4 12.8 6.4 19.2 6.4 6.4 0 12.8 0 19.2-6.4l166.4-166.4c6.4-6.4 6.4-12.8 6.4-19.2 0-6.4 0-12.8-6.4-19.2L256 57.6C249.6 51.2 243.2 44.8 236.8 44.8z m0 0" fill="#25B395" p-id="1414"></path><path d="M115.2 371.2c-6.4 0-12.8-6.4-12.8-12.8s0-12.8 6.4-19.2l115.2-115.2c6.4-6.4 12.8-6.4 19.2-6.4 6.4 0 12.8 6.4 12.8 12.8s0 12.8-6.4 19.2L134.4 364.8c-6.4 6.4-12.8 6.4-19.2 6.4z m83.2 83.2c-6.4 0-12.8-6.4-12.8-12.8s0-12.8 6.4-19.2l115.2-115.2c6.4 0 12.8 0 19.2 6.4 0 6.4 6.4 12.8 0 19.2L211.2 448c0 6.4-6.4 6.4-12.8 6.4z m409.6 409.6c-6.4 0-12.8-6.4-19.2-12.8 0-6.4 0-12.8 6.4-19.2l115.2-115.2c6.4-6.4 19.2-6.4 25.6 0 6.4 6.4 6.4 19.2 0 25.6l-115.2 115.2s-6.4 6.4-12.8 6.4z m83.2 76.8c-6.4 0-12.8-6.4-19.2-12.8 0-6.4 0-12.8 6.4-19.2l115.2-115.2c6.4-6.4 19.2-6.4 25.6 0 6.4 6.4 6.4 19.2 0 25.6L704 940.8h-12.8z m0 0M972.8 288c19.2-19.2 19.2-44.8 0-64L806.4 57.6c-19.2-19.2-44.8-19.2-64 0l-76.8 76.8L896 364.8m-569.6 556.8l-224-224-6.4-6.4-25.6 268.8 256-38.4z m0 0M134.4 665.6l480-480 230.4 230.4L364.8 896l-230.4-230.4z m0 0" fill="#25B395" p-id="1415"></path></svg>