<?xml version="1.0" standalone="no"?><!DOCTYPE svg PUBLIC "-//W3C//DTD SVG 1.1//EN" "http://www.w3.org/Graphics/SVG/1.1/DTD/svg11.dtd"><svg t="1611557881316" class="icon" viewBox="0 0 1024 1024" version="1.1" xmlns="http://www.w3.org/2000/svg" p-id="26057" xmlns:xlink="http://www.w3.org/1999/xlink" width="200" height="200"><defs><style type="text/css"></style></defs><path d="M199.2 132.6c26.4 8.9 48.1 25.2 69 43 52.5 44.8 105.4 89.2 158.3 133.6 19.5 16.3 28.9 36.3 28.8 62.1-0.5 101.8-0.4 203.6-0.1 305.4 0.1 24.5-9.5 42.9-29.2 57.1-55.4 39.7-110.2 80.1-166 119.2-16.2 11.4-35 19.1-52.7 28.4h-37.7V132.6h29.6z m0 0M822.2 881.4C792 871.2 767.3 852 742 833.6c-45.7-33.2-91.4-66.3-137.5-99-20.7-14.7-30.5-33.7-30.4-59.2 0.5-101.8 0.4-203.6 0-305.4-0.1-24.7 9.1-44.2 27.7-59.8 55.9-47.1 111.2-95 167.9-141 18.1-14.7 40.1-24.5 60.4-36.5h29.6v748.8h-37.5z m0 0" fill="#3DA8F5" p-id="26058"></path><path d="M312.4 507m-54.3 0a54.3 54.3 0 1 0 108.6 0 54.3 54.3 0 1 0-108.6 0Z" fill="#FFFFFF" p-id="26059"></path></svg>