<?xml version="1.0" standalone="no"?><!DOCTYPE svg PUBLIC "-//W3C//DTD SVG 1.1//EN" "http://www.w3.org/Graphics/SVG/1.1/DTD/svg11.dtd"><svg t="1611572155295" class="icon" viewBox="0 0 1024 1024" version="1.1" xmlns="http://www.w3.org/2000/svg" p-id="65049" xmlns:xlink="http://www.w3.org/1999/xlink" width="200" height="200"><defs><style type="text/css"></style></defs><path d="M551.253333 779.946667c-152.746667 0-277.333333-124.586667-277.333333-277.333334s124.586667-277.333333 277.333333-277.333333c126.293333 0 236.8 85.76 268.373334 208.213333l6.826666 26.88h-221.013333l-28.586667 43.946667 28.16 41.386667h221.44l-6.826666 26.88a278.016 278.016 0 0 1-268.373334 207.36z m0-512.426667a235.093333 235.093333 0 0 0-234.666666 234.666667c0 129.28 105.386667 234.666667 234.666666 234.666666 97.706667 0 183.893333-60.16 218.453334-149.333333h-186.88l-57.173334-83.626667 56.746667-87.04h187.306667a234.965333 234.965333 0 0 0-218.453334-149.333333z" fill="#888888" p-id="65050"></path><path d="M739.84 928.853333H324.693333c-23.893333 0-46.08-12.8-58.026666-33.706666l-207.786667-359.68c-11.946667-20.906667-11.946667-46.506667 0-66.986667l207.786667-359.68c11.946667-20.48 34.133333-33.706667 58.026666-33.706667h415.146667c23.893333 0 46.08 12.8 58.026667 33.706667l152.746666 264.533333a21.333333 21.333333 0 0 1-7.68 29.44c-10.24 5.973333-23.466667 2.56-29.013333-7.68l-152.746667-264.533333a24.234667 24.234667 0 0 0-21.333333-12.373333H324.693333c-8.533333 0-16.64 4.693333-21.333333 12.373333l-207.786667 359.68c-4.266667 7.68-4.266667 17.066667 0 24.32l207.786667 359.68c4.266667 7.68 12.373333 12.373333 21.333333 12.373333h415.146667c8.533333 0 16.64-4.693333 21.333333-12.373333l157.866667-273.493333c5.973333-10.24 18.773333-13.653333 29.013333-7.68 10.24 5.973333 13.653333 18.773333 7.68 29.013333l-157.866666 273.493333c-11.946667 20.48-34.133333 33.28-58.026667 33.28z" fill="#888888" p-id="65051"></path></svg>