<?xml version="1.0" standalone="no"?><!DOCTYPE svg PUBLIC "-//W3C//DTD SVG 1.1//EN" "http://www.w3.org/Graphics/SVG/1.1/DTD/svg11.dtd"><svg t="1611551206907" class="icon" viewBox="0 0 1024 1024" version="1.1" xmlns="http://www.w3.org/2000/svg" p-id="20615" xmlns:xlink="http://www.w3.org/1999/xlink" width="200" height="200"><defs><style type="text/css"></style></defs><path d="M896 51.2c34.9696 0 65.024 23.5008 74.5472 60.1088l1.6384 7.5264L972.8 128v614.4c0 34.4576-22.8352 64.1024-58.5728 74.1376l50.688 50.688 5.4272 6.4 2.048 2.7648 4.1984 7.0144c8.0896 16.2816 8.5504 35.2256 1.536 51.712l-3.4816 6.9632-3.6864 5.5296-5.7344 7.3728-12.9024 9.984-15.2064 6.1952-9.3696 1.1776-6.5024 0.4608H51.2v-153.6h76.8512c-34.9696 0-65.024-23.552-74.5984-60.16l-1.6384-7.4752-0.6144-9.216V128.0512c0-34.9696 23.552-65.024 60.16-74.5984l7.5264-1.6384L128 51.2H896z m-66.1504 757.76l-2.8672 0.3584a10.5984 10.5984 0 0 0-7.424 7.3728l-0.3584 2.8672V870.4H102.4v51.2h818.8416l2.7136-0.3584 2.56-1.024 2.2016-1.7408 1.6896-2.1504a10.6496 10.6496 0 0 0 1.1776-7.68l-0.8704-2.4576-1.9968-2.7648-91.3408-91.392-2.2016-1.6384-2.56-1.024-2.7648-0.4096zM383.9488 102.4H128.0512l-4.608 0.4096a25.7024 25.7024 0 0 0-20.6336 20.6336L102.4 128v614.2976l0.4096 4.608a25.7536 25.7536 0 0 0 20.6336 20.6336l4.608 0.4096h255.8976l4.608-0.4096a25.7536 25.7536 0 0 0 20.6336-20.6336l0.4096-4.608-0.0512-614.5024-0.3584-4.4032a25.7024 25.7024 0 0 0-20.6336-20.6336L383.9488 102.4zM665.6 614.4h-51.2v102.4H460.8v51.2h179.3536l4.608-0.4096a25.4976 25.4976 0 0 0 20.4288-20.48l0.4096-4.5568V614.4z m256 0h-51.2v102.4h-153.6v51.2h179.2l4.608-0.4096a25.6 25.6 0 0 0 20.5824-20.5824L921.6 742.4V614.4z m-358.4512-409.6h-102.4v460.8h102.4V204.8z m256 0h-102.4v460.8h102.4V204.8zM307.2 204.8v460.8H204.8V204.8h102.4z m358.4 153.6h-51.2v153.6h51.2V358.4z m256 0h-51.2v153.6h51.2V358.4z m-281.4464-256H460.8v51.2h153.6v102.4h51.2V127.8464l-0.4096-4.608a25.4464 25.4464 0 0 0-20.48-20.4288L640.1536 102.4zM896 102.4H716.8v51.2h153.6v102.4h51.2V128l-0.4096-4.608a25.6 25.6 0 0 0-20.5824-20.5824L896 102.4z" fill="#FFFFFF" p-id="20616"></path><path d="M829.8496 808.96l2.7648 0.3584c1.792 0.512 3.4304 1.4336 4.7616 2.7136l91.3408 91.392 2.048 2.7648a10.6496 10.6496 0 0 1-2.048 12.288l-2.2016 1.6896a10.6496 10.6496 0 0 1-5.2736 1.4336l-76.4416-0.0512V921.6H102.4v-51.2h716.8v-50.8416c0-4.9152 3.328-9.0112 7.7824-10.24l2.8672-0.3584zM383.9488 102.4c14.1312 0 25.6512 11.4688 25.6512 25.6512v614.2976a25.7024 25.7024 0 0 1-25.6512 25.6512H128.0512A25.7024 25.7024 0 0 1 102.4 742.3488V128.0512C102.4 113.8688 113.92 102.4 128.0512 102.4zM665.6 614.4v128.1536a25.4976 25.4976 0 0 1-25.4464 25.4464H460.8v-51.2h153.6v-102.4h51.2z m256 0v128a25.6 25.6 0 0 1-25.6 25.6H716.8v-51.2h153.6v-102.4h51.2zM307.2 204.8H204.8v460.8h102.4V204.8z m358.4 153.6v153.6h-51.2V358.4h51.2z m256 0v153.6h-51.2V358.4h51.2z m-281.4464-256c14.0288 0 25.4464 11.3664 25.4464 25.4464V256h-51.2V153.6H460.8V102.4zM896 102.4a25.6 25.6 0 0 1 25.6 25.6V256h-51.2V153.6h-153.6V102.4z" fill="#000000" p-id="20617"></path></svg>