<?xml version="1.0" standalone="no"?><!DOCTYPE svg PUBLIC "-//W3C//DTD SVG 1.1//EN" "http://www.w3.org/Graphics/SVG/1.1/DTD/svg11.dtd"><svg t="1611567713971" class="icon" viewBox="0 0 1024 1024" version="1.1" xmlns="http://www.w3.org/2000/svg" p-id="48163" xmlns:xlink="http://www.w3.org/1999/xlink" width="200" height="200"><defs><style type="text/css"></style></defs><path d="M693.71 707.81m-61.39 0a61.39 61.39 0 1 0 122.78 0 61.39 61.39 0 1 0-122.78 0Z" fill="#156EA7" p-id="48164"></path><path d="M549.39 527.35l-133.24-141.2c24.34-32.16 22.18-78-7.15-107.31a82.07 82.07 0 1 0-27 134L518 557a21.57 21.57 0 0 0 31.37-29.6zM620.68 655.88a21.5 21.5 0 0 1-15.68-6.75l-41.89-44.4a21.56 21.56 0 0 1 31.37-29.59l41.89 44.39a21.55 21.55 0 0 1-15.69 36.35z" fill="#156EA7" p-id="48165"></path></svg>