<?xml version="1.0" standalone="no"?><!DOCTYPE svg PUBLIC "-//W3C//DTD SVG 1.1//EN" "http://www.w3.org/Graphics/SVG/1.1/DTD/svg11.dtd"><svg t="1611572052884" class="icon" viewBox="0 0 1024 1024" version="1.1" xmlns="http://www.w3.org/2000/svg" p-id="61702" xmlns:xlink="http://www.w3.org/1999/xlink" width="200" height="200"><defs><style type="text/css"></style></defs><path d="M658.285714 73.142857a73.142857 73.142857 0 0 1 73.142857 73.142857v512a73.142857 73.142857 0 0 1-73.142857 73.142857h-219.428571v-73.142857h219.428571V146.285714H146.285714v512h73.142857v73.142857H146.285714a73.142857 73.142857 0 0 1-73.142857-73.142857V146.285714a73.142857 73.142857 0 0 1 73.142857-73.142857h512z" fill="#304FFE" p-id="61703"></path><path d="M877.714286 292.571429a73.142857 73.142857 0 0 1 73.142857 73.142857v512a73.142857 73.142857 0 0 1-73.142857 73.142857H365.714286a73.142857 73.142857 0 0 1-73.142857-73.142857V365.714286a73.142857 73.142857 0 0 1 73.142857-73.142857h219.428571v73.142857h-219.428571v512h512V365.714286h-73.142857V292.571429h73.142857z" fill="#FFA000" p-id="61704"></path></svg>