<?xml version="1.0" standalone="no"?><!DOCTYPE svg PUBLIC "-//W3C//DTD SVG 1.1//EN" "http://www.w3.org/Graphics/SVG/1.1/DTD/svg11.dtd"><svg t="1611537129797" class="icon" viewBox="0 0 1540 1024" version="1.1" xmlns="http://www.w3.org/2000/svg" p-id="19927" xmlns:xlink="http://www.w3.org/1999/xlink" width="300.78125" height="200"><defs><style type="text/css"></style></defs><path d="M922.679829 497.043213a225.967721 225.967721 0 0 0 148.158732-209.471603c0-124.279949-105.011503-225.401002-234.070271-225.401002s-234.039638 101.09042-234.039638 225.401002a225.937088 225.937088 0 0 0 148.128098 209.471603c-192.638516 38.291826-337.887069 202.992626-337.887069 399.766659 0 47.834149 34.845561 63.671648 62.798594 76.415167l1.531673 0.627986c112.884302 38.383726 276.175963 48.599985 354.842689 48.599985 85.773689 0 253.767587-13.402139 365.33465-50.54521 41.799357-15.439264 63.013028-40.711869 63.013028-75.128561 0-196.7434-145.279186-361.39825-337.917703-399.76666z m0 0" fill="#FFFFFF" p-id="19928"></path><path d="M648.755426 482.522953A272.438681 272.438681 0 0 1 562.124 283.083808a272.852232 272.852232 0 0 1 125.275536-229.750953 16.005983 16.005983 0 0 0-1.68484-1.531673 14.137342 14.137342 0 0 0-1.531673-1.868641A224.19098 224.19098 0 0 0 543.682656 0.153167a225.293785 225.293785 0 0 0-224.497315 225.55417 225.768604 225.768604 0 0 0 142.108624 209.563503A408.635046 408.635046 0 0 0 137.207269 835.251933c0 34.447326 20.340618 59.735248 60.960587 75.404263a975.675716 975.675716 0 0 0 188.181348 39.455897 451.843542 451.843542 0 0 1-3.369681-54.588826 453.02293 453.02293 0 0 1 265.775903-413.015631z m566.841553-47.22148a225.707337 225.707337 0 0 0 142.093306-209.594136A225.263152 225.263152 0 0 0 1133.208287 0.153167a224.267564 224.267564 0 0 0-142.445592 51.203829l-5.958208 4.901354a273.036033 273.036033 0 0 1 120.588617 226.825458 272.438681 272.438681 0 0 1-86.631426 199.439145 453.038247 453.038247 0 0 1 265.79122 413.015631 461.202064 461.202064 0 0 1-3.522848 55.737581l1.118121-0.122534a994.699095 994.699095 0 0 0 197.111002-40.681236c40.0992-15.454581 60.439818-40.757819 60.439817-75.189828a408.650363 408.650363 0 0 0-324.102011-400.011727z m0 0" fill="#FFFFFF" p-id="19929"></path><path d="M0 689.467295h644.09914v96.617934H0z" fill="#FF0000" p-id="19930"></path></svg>