<?xml version="1.0" standalone="no"?><!DOCTYPE svg PUBLIC "-//W3C//DTD SVG 1.1//EN" "http://www.w3.org/Graphics/SVG/1.1/DTD/svg11.dtd"><svg t="1611386135044" class="icon" viewBox="0 0 1024 1024" version="1.1" xmlns="http://www.w3.org/2000/svg" p-id="4903" xmlns:xlink="http://www.w3.org/1999/xlink" width="200" height="200"><defs><style type="text/css"></style></defs><path d="M437.254357 0.000044H23.303523A23.333438 23.333438 0 0 0 0.043878 23.259689v577.329177a23.318679 23.318679 0 0 0 23.259645 23.259644h413.950834A23.318679 23.318679 0 0 0 460.514002 600.588866V23.259689A23.333438 23.333438 0 0 0 437.254357 0.000044zM1000.784189 0.000044H586.671009a23.333438 23.333438 0 0 0-23.259644 23.259645v251.015252a23.333438 23.333438 0 0 0 23.259644 23.259645H1000.680879a23.318679 23.318679 0 0 0 23.259644-23.259645V23.259689A23.112058 23.112058 0 0 0 1000.784189 0.000044z" fill="#3975C6" p-id="4904"></path><path d="M437.254357 726.317872H23.303523A23.318679 23.318679 0 0 0 0.043878 749.562758V1000.637045a23.318679 23.318679 0 0 0 23.259645 23.259644h413.950834A23.318679 23.318679 0 0 0 460.514002 1000.637045V749.562758a23.318679 23.318679 0 0 0-23.259645-23.244886z" fill="#EE7B1C" p-id="4905"></path><path d="M1000.784189 399.959671H586.671009a23.333438 23.333438 0 0 0-23.259644 23.259645v577.521039a23.333438 23.333438 0 0 0 23.259644 23.259645H1000.680879a23.318679 23.318679 0 0 0 23.259644-23.259645V423.263592A23.112058 23.112058 0 0 0 1000.784189 399.959671z" fill="#3975C6" p-id="4906"></path></svg>