<?xml version="1.0" standalone="no"?><!DOCTYPE svg PUBLIC "-//W3C//DTD SVG 1.1//EN" "http://www.w3.org/Graphics/SVG/1.1/DTD/svg11.dtd"><svg t="1611385524891" class="icon" viewBox="0 0 1024 1024" version="1.1" xmlns="http://www.w3.org/2000/svg" p-id="4720" xmlns:xlink="http://www.w3.org/1999/xlink" width="200" height="200"><defs><style type="text/css"></style></defs><path d="M509.167 88.083L179.938 319.12l-27.021 18.963 23.006 16.145 333.244 233.854 356.25-249.999-356.25-250z m-304 247l304-210 304 213-304 216-304-219z" fill="#1296db" p-id="4721"></path><path d="M766.395 440.213L509.167 621.9 246.938 435.213l-94.021 73 356.249 249.999 356.25-249.999-99.021-68z m-559.228 65l40.228-35.125L509.167 658.9l258.218-184.604 43.781 31.917-302 215.001-301.999-216.001z" fill="#1296db" p-id="4722"></path><path d="M766.396 609.707L509.167 791.395 246.938 604.707l-94.021 73 356.249 249.999 356.25-249.999-99.02-68z m-559.229 65l40.228-35.125 261.771 188.813 258.22-184.605 43.781 31.917-302 215.001-302-216.001z" fill="#1296db" p-id="4723"></path></svg>