<?xml version="1.0" standalone="no"?><!DOCTYPE svg PUBLIC "-//W3C//DTD SVG 1.1//EN" "http://www.w3.org/Graphics/SVG/1.1/DTD/svg11.dtd"><svg t="1611563378577" class="icon" viewBox="0 0 1024 1024" version="1.1" xmlns="http://www.w3.org/2000/svg" p-id="47370" xmlns:xlink="http://www.w3.org/1999/xlink" width="200" height="200"><defs><style type="text/css"></style></defs><path d="M1008 510.88H16a16 16 0 0 0-16 16v352a16 16 0 0 0 16 16h992a16 16 0 0 0 16-16v-352a16 16 0 0 0-16-16z m-80 288H96v-192h832z" fill="" p-id="47371"></path><path d="M768 654.88l64 0 0 96-64 0 0-96Z" fill="" p-id="47372"></path><path d="M656 654.88l64 0 0 96-64 0 0-96Z" fill="" p-id="47373"></path><path d="M240 702.88m-48 0a48 48 0 1 0 96 0 48 48 0 1 0-96 0Z" fill="" p-id="47374"></path><path d="M400 702.88m-48 0a48 48 0 1 0 96 0 48 48 0 1 0-96 0Z" fill="" p-id="47375"></path><path d="M144 254.88h736a16 16 0 0 0 16-16v-32a16 16 0 0 0-14.88-16L777.28 131.2a16 16 0 0 0-21.92 5.92l-16 27.68a16 16 0 0 0 5.92 21.76l7.36 4.32H144a16 16 0 0 0-16 16v32a16 16 0 0 0 16 16zM142.88 382.72l103.84 60a16 16 0 0 0 21.92-5.92l16-27.68a16 16 0 0 0-5.92-21.92l-6.72-4.32h608a16 16 0 0 0 16-16v-32a16 16 0 0 0-16-16H144a16 16 0 0 0-16 16v32a16 16 0 0 0 14.88 15.84z" fill="" p-id="47376"></path></svg>