<?xml version="1.0" standalone="no"?><!DOCTYPE svg PUBLIC "-//W3C//DTD SVG 1.1//EN" "http://www.w3.org/Graphics/SVG/1.1/DTD/svg11.dtd"><svg t="1611648947826" class="icon" viewBox="0 0 1024 1024" version="1.1" xmlns="http://www.w3.org/2000/svg" p-id="9212" xmlns:xlink="http://www.w3.org/1999/xlink" width="200" height="200"><defs><style type="text/css"></style></defs><path d="M945.694118 186.729412h-228.894118C710.776471 84.329412 626.447059 0 518.023529 0 415.623529 0 331.294118 84.329412 325.270588 186.729412H78.305882c-30.117647 0-48.188235 24.094118-48.188235 48.188235s24.094118 48.188235 48.188235 48.188235h54.211765v554.164706c0 102.4 72.282353 186.729412 156.611765 186.729412h445.741176c84.329412 0 156.611765-84.329412 156.611765-186.729412V283.105882h48.188235c30.117647 0 48.188235-24.094118 48.188236-48.188235s-18.070588-48.188235-42.164706-48.188235zM518.023529 90.352941c54.211765 0 96.376471 42.164706 102.4 96.376471H415.623529c6.023529-54.211765 48.188235-96.376471 102.4-96.376471z m283.105883 746.917647c0 54.211765-36.141176 96.376471-66.258824 96.376471H295.152941c-30.117647 0-66.258824-42.164706-66.258823-96.376471V283.105882h572.235294v554.164706z" fill="#F04943" p-id="9213"></path><path d="M656.564706 783.058824c24.094118 0 36.141176-18.070588 36.141176-48.188236V469.835294c0-24.094118-18.070588-48.188235-36.141176-48.188235s-36.141176 18.070588-36.141177 48.188235v271.058824c-6.023529 24.094118 12.047059 42.164706 36.141177 42.164706zM367.435294 783.058824c24.094118 0 36.141176-18.070588 36.141177-48.188236V469.835294c6.023529-24.094118-12.047059-48.188235-36.141177-48.188235-18.070588 0-36.141176 24.094118-36.141176 48.188235v271.058824c0 24.094118 18.070588 42.164706 36.141176 42.164706zM505.976471 783.058824c24.094118 0 36.141176-18.070588 36.141176-48.188236V469.835294c6.023529-24.094118-12.047059-48.188235-36.141176-48.188235-18.070588 0-36.141176 24.094118-36.141177 48.188235v271.058824c0 24.094118 18.070588 42.164706 36.141177 42.164706z" fill="#F04943" p-id="9214"></path></svg>