<?xml version="1.0" standalone="no"?><!DOCTYPE svg PUBLIC "-//W3C//DTD SVG 1.1//EN" "http://www.w3.org/Graphics/SVG/1.1/DTD/svg11.dtd"><svg t="1611569388526" class="icon" viewBox="0 0 1104 1024" version="1.1" xmlns="http://www.w3.org/2000/svg" p-id="52625" xmlns:xlink="http://www.w3.org/1999/xlink" width="215.625" height="200"><defs><style type="text/css"></style></defs><path d="M391.168 906.24h619.008v56.32H391.168v-56.32zM698.368 788.48h311.808v56.32h-311.808v-56.32zM209.92 504.832l39.936-39.936 330.752 330.752-39.936 39.936L209.92 504.832z" fill="#9DAF51" p-id="52626"></path><path d="M147.968 611.328c-22.016 22.016-22.016 57.856 0 79.36l199.168 199.168c22.016 22.016 57.856 22.016 79.36 0l477.696-477.696c22.016-22.016 22.016-57.856 0-79.36l-199.168-199.168c-22.016-22.016-57.856-22.016-79.36 0l-477.696 477.696z m-39.424-39.424l477.696-477.696c44.032-44.032 115.2-44.032 159.232 0l199.168 199.168c44.032 44.032 44.032 115.2 0 159.232l-477.696 477.696c-44.032 44.032-115.2 44.032-159.232 0l-199.168-199.168c-44.032-44.032-44.032-115.2 0-159.232z" fill="#5B7300" p-id="52627"></path></svg>