<?xml version="1.0" standalone="no"?><!DOCTYPE svg PUBLIC "-//W3C//DTD SVG 1.1//EN" "http://www.w3.org/Graphics/SVG/1.1/DTD/svg11.dtd"><svg t="1611569402167" class="icon" viewBox="0 0 1024 1024" version="1.1" xmlns="http://www.w3.org/2000/svg" p-id="52758" xmlns:xlink="http://www.w3.org/1999/xlink" width="200" height="200"><defs><style type="text/css"></style></defs><path d="M940.89868256 203.19294834H83.10131744a38.99078964 38.99078964 0 0 0 0 77.98157841h97.63293624v601.39393524A97.63293622 97.63293622 0 0 0 278.3671899 979.88947221h467.88947221a97.63293622 97.63293622 0 0 0 97.63293714-97.32101022V281.17452675h97.63293622a38.99078964 38.99078964 0 0 0 0-77.98157841z m-175.61451464 679.37551365a19.65135783 19.65135783 0 0 1-19.65135782 19.33943184h-467.88947221a19.65135783 19.65135783 0 0 1-19.65135785-19.33943184V281.48645366h507.19218788z" fill="#1296db" p-id="52759"></path><path d="M406.56890529 764.34838898a38.99078964 38.99078964 0 0 0 38.99078965-38.99078966v-265.4492942a38.99078964 38.99078964 0 0 0-77.98157839 0v265.4492942a38.99078964 38.99078964 0 0 0 38.99078874 38.99078967zM617.43109471 764.34838898a38.99078964 38.99078964 0 0 0 38.99078874-38.99078966v-265.4492942a38.99078964 38.99078964 0 0 0-77.98157839 0v265.4492942a38.99078964 38.99078964 0 0 0 38.99078965 38.99078967zM358.84417912 122.09210617h306.31164176a38.99078964 38.99078964 0 0 0 0-77.98157838h-306.31164176a38.99078964 38.99078964 0 0 0 0 77.98157838z" fill="#1296db" p-id="52760"></path></svg>