<?xml version="1.0" standalone="no"?><!DOCTYPE svg PUBLIC "-//W3C//DTD SVG 1.1//EN" "http://www.w3.org/Graphics/SVG/1.1/DTD/svg11.dtd"><svg t="1611386151017" class="icon" viewBox="0 0 1024 1024" version="1.1" xmlns="http://www.w3.org/2000/svg" p-id="5735" xmlns:xlink="http://www.w3.org/1999/xlink" width="200" height="200"><defs><style type="text/css"></style></defs><path d="M566 350.6v71.6c-1.6 0.2-3.3 0.5-5 0.5-25.2 0-50.3-0.1-75.5 0.1-4.1 0-5.4-1.1-5.4-5.3 0.2-20.8 0.1-41.6 0-62.5 0-3.2 0.6-4.8 4.3-4.8 26.2 0.1 52.3 0.1 78.5 0.1 0.9 0 1.7 0.2 3.1 0.3zM565.6 341.7h-5.8c-24.2 0-48.3 0.1-72.5-0.1-2.3 0-6.4-0.8-6.6-1.9-0.8-3.9 0-8.1 4.2-10.3 1.8-0.9 4.1-1.5 6.2-1.5 21.5-0.1 43-0.1 64.5 0 8.1 0.1 11.5 4.6 10 13.8z" fill="#FFFFFF" p-id="5736"></path><path d="M880.4 67.5c5.5 2 10.7 4.6 15.8 7.3 7.5 4 14.7 8.8 21.3 14.1 0.7 0.6 1.4 1.2 2.1 1.7 10.9 9.1 20.4 20 26.9 32.7 6.1 11.9 9.4 25.2 9.6 38.6 0.1 10.9-1.8 21.8-5.2 32.1-5.7 17.4-17.5 34.4-30.5 47.7-60.5 61.9-122.3 122.5-183.9 183.3-6.8 6.7-15.5 11.4-26.9 19.7 23.5 21.9 42.4 38.4 60 56.2 46.4 46.9 50.2 96.6 10.8 149-72.8 96.9-146.2 193.4-219.5 290-16.1 21.2-29.7 21.6-51.2 0.3-89.8-89.1-179.3-178.4-268.8-267.8-29.6-29.6-59.1-59.2-88.6-88.8-14.8-14.8-29.5-29.7-44.2-44.5-7.4-7.4-14.7-14.8-22.1-22.2l-11.1-11.1c-5.7-5.8-9.4-14.2-8-22.5 1.6-10.2 10.6-16 17.8-22.3 6.4-5.5 12.7-11 19.3-16.3 78.9-64.7 160.3-126.6 236.3-194.6 64.5-57.6 137.5-42.1 185.2 7.6 16.7 17.4 33.2 35 51.4 54.3 63.5-64 123.6-124 183.1-184.7 12.1-12.3 24.3-24.6 37.9-35.4 22.2-17.7 53.3-35.1 82.5-24.4z m-639 524.4c23.2 23.5 44.9 45.6 67.5 68.5 27.1-24.1 55.3-49.3 83.7-74.3 10.6-9.3 20.9-19.1 32.5-27 11.9-8.1 24.6-6.4 33.9 4.9 9.8 11.9 9.3 24.6-1.5 36-5.6 5.9-11.8 11.3-17.9 16.7-30.8 27.7-61.6 55.3-90.5 81.2 24.4 25 47.4 48.5 70.9 72.4 28.2-25.1 57-50.8 85.9-76.4 8.3-7.4 16.3-15.3 25.3-21.8 13.7-9.9 28.1-11.2 39.3 3.4 10.3 13.3 7.4 26.4-4.8 37.5-3.8 3.5-7.8 6.8-11.7 10.3-32.3 29.1-64.6 58.2-92.8 83.7 25.2 25.9 49.1 50.6 73.3 75.5C600.2 796.1 666.9 708 733.9 620c25.5-33.5 24.3-55.6-5.9-85.8-47.8-47.8-95.9-95.3-143.8-143-33.7-33.5-67.1-67.4-101.3-100.4-36.1-34.8-69.8-35.1-108-3.4C308 342.9 240.7 397.8 173.6 453c-13.5 11.1-27 22.4-40.1 33.3 23.8 23.5 45.7 45.3 68.5 67.8 4.7-4 10.3-8.7 15.8-13.5 29.4-26.2 58.7-52.5 88.2-78.6 19.7-17.5 34.3-18.9 46.2-5 11.2 13.1 7.5 28.8-11 45.8-8.8 8-17.7 15.9-26.6 23.8-24.8 22.2-49.6 44.3-73.2 65.3z m379.5-251.1c19.5 21.2 38.2 41.7 59.3 64.7 22.6-23.6 44.8-47.5 67.8-70.7 45.6-45.8 92-90.8 137.2-136.9 20.9-21.4 20.7-48 1.8-67.9-16.5-17.4-39.1-17.5-60.9 4.1-70.1 69.5-139.1 140-205.2 206.7z" fill="#595659" p-id="5737"></path></svg>