<?xml version="1.0" standalone="no"?><!DOCTYPE svg PUBLIC "-//W3C//DTD SVG 1.1//EN" "http://www.w3.org/Graphics/SVG/1.1/DTD/svg11.dtd"><svg t="1611648965644" class="icon" viewBox="0 0 1066 1024" version="1.1" xmlns="http://www.w3.org/2000/svg" p-id="10003" xmlns:xlink="http://www.w3.org/1999/xlink" width="208.203125" height="200"><defs><style type="text/css"></style></defs><path d="M746.070925 206.497984l-183.690974 203.179197 259.75293-74.402563z" fill="#747474" p-id="10004"></path><path d="M538.878312 0.192953l-207.61711 34.461353 157.333635 332.148784z" fill="#747474" p-id="10005"></path><path d="M201.481213 235.132165L131.748106 378.380252l244.625438 31.37411z" fill="#747474" p-id="10006"></path><path d="M0 525.371622v406.937253h421.177162L330.335029 841.466742l56.303599-56.303599-56.303599-56.303599 56.303599-56.303599-56.303599-56.303599 90.842133-90.842133z" fill="#747474" p-id="10007"></path><path d="M992.278575 525.371622v-91.691125h-120.749802v91.691125h-303.746146l-90.842133 90.842133 56.303599 56.303599-56.303599 56.303599 56.303599 56.303599-56.303599 56.303599 90.842133 90.842134h303.746146v91.652534h120.749802v-91.691125h74.286791V525.371622z" fill="#747474" p-id="10008"></path></svg>