<?xml version="1.0" standalone="no"?><!DOCTYPE svg PUBLIC "-//W3C//DTD SVG 1.1//EN" "http://www.w3.org/Graphics/SVG/1.1/DTD/svg11.dtd"><svg t="1611629094258" class="icon" viewBox="0 0 1024 1024" version="1.1" xmlns="http://www.w3.org/2000/svg" p-id="3446" xmlns:xlink="http://www.w3.org/1999/xlink" width="200" height="200"><defs><style type="text/css"></style></defs><path d="M320.54 935.19c-13.8 0-27.38-6.36-35.98-18.27L104.25 668.65c-7-9.68-9.77-21.48-7.84-33.27 1.93-11.67 8.3-21.87 17.89-28.7l563.23-408.51L883.7 482.26c14.29 19.74 9.82 47.49-9.92 61.89l-0.03 0.01-527.28 382.75c-7.86 5.6-16.95 8.28-25.93 8.28zM671.7 234.41l-43.75 31.46-498.48 361.92c-4.03 2.85-6.62 7.04-7.41 11.82-0.81 4.9 0.33 9.79 3.22 13.79L305.6 901.68c5.91 8.2 17.43 9.97 25.7 4.14l527.15-382.66c8.22-5.99 10.1-17.5 4.21-25.64L671.7 234.41z" fill="#231815" p-id="3447"></path><path d="M651.55 248.92l-15.22-21.05 51.28-37.32v32.39zM259.87 863.85c-1.85 0-3.76-0.39-5.53-1.23-6.5-3.06-9.29-10.8-6.22-17.29 12.76-27.16 29.89-45.03 50.88-53.12 20.6-7.95 38.14-4.07 53.64-0.65 14.72 3.24 26.29 5.81 40.12-0.44 16.42-7.43 26.29-23.34 36.74-40.18 7.74-12.46 10.33-20.76 12.84-28.79 3.02-9.68 6.14-19.68 16.9-32.81 9.57-11.72 30.2-32.36 60.77-38.71 12.86-2.66 20.78-1.31 27.15-0.16 5.46 0.94 9.77 1.67 18.29 0.11 27.61-5.13 45.12-25.53 48.34-29.56 3.17-4 3.76-5.38 6.5-12.04 2.28-5.58 5.66-13.78 12.48-27.92 15.76-32.63 24.44-50.61 39.56-59.07 11.19-6.23 20.07-6.34 30.78-6.17 5.68 0.08 12.71 0.04 22.2-0.89 22.18-2.21 36.97-4.82 51.43-12.31 7.94-4.12 38.04-28.34 51.48-51.73 3.58-6.25 11.57-8.36 17.74-4.8 6.22 3.58 8.37 11.52 4.8 17.74-15.71 27.34-49.25 55.2-62.07 61.86-19.99 10.34-40.19 13.03-60.82 15.09-10.66 1.04-18.47 1-24.87 1.02-9.62-0.08-13.02 0.09-17.99 2.87-7.97 4.45-16.26 21.66-28.85 47.68-6.5 13.44-9.67 21.21-11.85 26.5-3.04 7.38-4.72 11.46-10.2 18.37-5.99 7.47-28.19 32.28-63.94 38.91-13.14 2.45-21.09 1.04-27.46-0.08-5.48-0.94-9.44-1.67-17.43 0.03-22.74 4.71-38.54 20.63-45.93 29.7-7.59 9.25-9.54 15.48-12.23 24.11-2.69 8.68-6.06 19.49-15.55 34.75-11.47 18.5-24.49 39.46-48.11 50.15-21.64 9.81-40.09 5.73-56.43 2.14-13.63-3.04-25.43-5.62-38.7-0.48-14.51 5.6-26.87 19.03-36.72 39.94-2.2 4.71-6.87 7.46-11.74 7.46z" fill="#231815" p-id="3448"></path><path d="M744.19 334.33L661.62 220.5v-10.87l5.4-4.1L873.14 57.28l87.21 121.21-216.16 155.84z m-51.51-115.25l57.35 79.02 174.09-125.49-56.91-79.07-174.53 125.54z" fill="#231815" p-id="3449"></path><path d="M713.578 192.63l21.213-14.998 71.326 100.879-21.213 14.998zM762.13 152.854l21.213-14.998 71.331 100.887-21.212 14.998zM817.144 119.325l21.215-14.996 71.307 100.883-21.215 14.996z" fill="#231815" p-id="3450"></path></svg>