<?xml version="1.0" standalone="no"?><!DOCTYPE svg PUBLIC "-//W3C//DTD SVG 1.1//EN" "http://www.w3.org/Graphics/SVG/1.1/DTD/svg11.dtd"><svg t="1611551171627" class="icon" viewBox="0 0 1024 1024" version="1.1" xmlns="http://www.w3.org/2000/svg" p-id="20487" xmlns:xlink="http://www.w3.org/1999/xlink" width="200" height="200"><defs><style type="text/css"></style></defs><path d="M32 32m64 0l256 0q64 0 64 64l0 256q0 64-64 64l-256 0q-64 0-64-64l0-256q0-64 64-64Z" fill="#E5F1FF" p-id="20488"></path><path d="M544 32m64 0l256 0q64 0 64 64l0 256q0 64-64 64l-256 0q-64 0-64-64l0-256q0-64 64-64Z" fill="#E5F1FF" p-id="20489"></path><path d="M544 544m64 0l256 0q64 0 64 64l0 256q0 64-64 64l-256 0q-64 0-64-64l0-256q0-64 64-64Z" fill="#E5F1FF" p-id="20490"></path></svg>