<?xml version="1.0" standalone="no"?><!DOCTYPE svg PUBLIC "-//W3C//DTD SVG 1.1//EN" "http://www.w3.org/Graphics/SVG/1.1/DTD/svg11.dtd"><svg t="1611558567529" class="icon" viewBox="0 0 1024 1024" version="1.1" xmlns="http://www.w3.org/2000/svg" p-id="35681" xmlns:xlink="http://www.w3.org/1999/xlink" width="200" height="200"><defs><style type="text/css"></style></defs><path d="M512 102.4c55.296 0 108.9536 10.8544 159.4368 32.1536 48.7424 20.5824 92.5696 50.176 130.2528 87.8592s67.1744 81.5104 87.8592 130.2528C910.7456 403.0464 921.6 456.704 921.6 512s-10.8544 108.9536-32.1536 159.4368c-20.5824 48.7424-50.176 92.5696-87.8592 130.2528s-81.5104 67.1744-130.2528 87.8592C620.9536 910.7456 567.296 921.6 512 921.6s-108.9536-10.8544-159.4368-32.1536c-48.7424-20.5824-92.5696-50.176-130.2528-87.8592s-67.1744-81.5104-87.8592-130.2528C113.2544 620.9536 102.4 567.296 102.4 512s10.8544-108.9536 32.1536-159.4368c20.5824-48.7424 50.176-92.5696 87.8592-130.2528s81.5104-67.1744 130.2528-87.8592C403.0464 113.2544 456.704 102.4 512 102.4m0-102.4C229.2736 0 0 229.2736 0 512s229.2736 512 512 512 512-229.2736 512-512S794.7264 0 512 0z" fill="#F85862" p-id="35682"></path><path d="M143.316992 213.6832l72.40704-72.40704 669.04064 669.04064-72.40704 72.40704z" fill="#F85862" p-id="35683"></path></svg>