<?xml version="1.0" standalone="no"?><!DOCTYPE svg PUBLIC "-//W3C//DTD SVG 1.1//EN" "http://www.w3.org/Graphics/SVG/1.1/DTD/svg11.dtd"><svg t="1611537067517" class="icon" viewBox="0 0 1024 1024" version="1.1" xmlns="http://www.w3.org/2000/svg" p-id="18966" xmlns:xlink="http://www.w3.org/1999/xlink" width="200" height="200"><defs><style type="text/css"></style></defs><path d="M394.24 115.2H133.888A64 64 0 0 0 69.888 179.2v238.08a64 64 0 0 0 64 64H394.24a64 64 0 0 0 64-64V179.2a64 64 0 0 0-64-64z m-12.8 76.7744v212.48H146.688v-212.48h234.752zM896.1792 587.008h-260.352a64 64 0 0 0-64 64v238.08a64 64 0 0 0 64 64h260.352a64 64 0 0 0 64-64v-238.08a64 64 0 0 0-64-64z m-12.8 76.7744v212.48h-234.752v-212.48h234.752z" fill="#979797" p-id="18967"></path><path d="M302.464 442.88v288.7424h307.7632v76.8H289.664a64 64 0 0 1-63.8464-59.776l-0.1536-4.1984V442.88h76.8z" fill="#979797" p-id="18968"></path></svg>