<?xml version="1.0" standalone="no"?><!DOCTYPE svg PUBLIC "-//W3C//DTD SVG 1.1//EN" "http://www.w3.org/Graphics/SVG/1.1/DTD/svg11.dtd"><svg t="1611386177021" class="icon" viewBox="0 0 1024 1024" version="1.1" xmlns="http://www.w3.org/2000/svg" p-id="6619" xmlns:xlink="http://www.w3.org/1999/xlink" width="200" height="200"><defs><style type="text/css"></style></defs><path d="M462.8 478h98.4L512 359.1z" fill="#36CBCB" p-id="6620"></path><path d="M512 64C264.6 64 64 264.6 64 512s200.6 448 448 448 448-200.6 448-448S759.4 64 512 64z m208.2 714.1c-16.3 6.8-35-1-41.8-17.3l-89-214.8H434.6l-89 214.8c-6.8 16.3-25.5 24.1-41.8 17.3-16.3-6.8-24.1-25.5-17.3-41.8l195.9-473c0.2-0.5 0.4-1 0.6-1.4 0.1-0.2 0.2-0.4 0.3-0.7 0.1-0.2 0.2-0.5 0.4-0.7 0.1-0.3 0.3-0.5 0.5-0.8 0.1-0.2 0.2-0.4 0.3-0.5 0.2-0.3 0.4-0.6 0.5-0.9 0.1-0.1 0.2-0.3 0.3-0.4l0.6-0.9c0.1-0.1 0.2-0.3 0.3-0.4 0.2-0.3 0.4-0.5 0.6-0.8 0.1-0.1 0.2-0.3 0.4-0.4 0.2-0.2 0.4-0.5 0.6-0.7 0.1-0.2 0.3-0.3 0.4-0.5l0.6-0.6c0.2-0.2 0.3-0.4 0.5-0.5 0.2-0.2 0.4-0.3 0.5-0.5l0.6-0.6c0.2-0.1 0.3-0.3 0.5-0.4 0.2-0.2 0.5-0.4 0.7-0.6 0.1-0.1 0.3-0.2 0.4-0.4 0.3-0.2 0.5-0.4 0.8-0.6 0.1-0.1 0.3-0.2 0.4-0.3l0.9-0.6c0.1-0.1 0.3-0.2 0.5-0.3 0.3-0.2 0.6-0.4 0.9-0.5 0.2-0.1 0.4-0.2 0.5-0.3 0.3-0.2 0.5-0.3 0.8-0.5 0.2-0.1 0.5-0.2 0.7-0.4 0.2-0.1 0.4-0.2 0.7-0.3 1-0.5 1.9-0.9 2.9-1.2 0.2-0.1 0.5-0.2 0.7-0.2 0.3-0.1 0.5-0.2 0.8-0.3l0.9-0.3c0.2-0.1 0.4-0.1 0.6-0.2 0.3-0.1 0.7-0.2 1-0.2 0.2 0 0.3-0.1 0.5-0.1 0.3-0.1 0.7-0.1 1-0.2 0.2 0 0.3-0.1 0.5-0.1 0.3 0 0.7-0.1 1-0.1 0.2 0 0.4 0 0.6-0.1 0.3 0 0.6-0.1 0.9-0.1H513.8c0.3 0 0.6 0 0.9 0.1 0.2 0 0.4 0 0.6 0.1 0.3 0 0.7 0.1 1 0.1 0.2 0 0.3 0.1 0.5 0.1 0.3 0.1 0.7 0.1 1 0.2 0.2 0 0.3 0.1 0.5 0.1 0.3 0.1 0.7 0.1 1 0.2 0.2 0 0.4 0.1 0.6 0.2l0.9 0.3c0.3 0.1 0.5 0.2 0.8 0.3 0.2 0.1 0.5 0.2 0.7 0.2 1 0.4 2 0.8 2.9 1.2 0.2 0.1 0.4 0.2 0.7 0.3 0.2 0.1 0.5 0.2 0.7 0.4 0.3 0.1 0.5 0.3 0.8 0.5 0.2 0.1 0.4 0.2 0.5 0.3 0.3 0.2 0.6 0.4 0.9 0.5 0.2 0.1 0.3 0.2 0.5 0.3l0.9 0.6c0.1 0.1 0.3 0.2 0.4 0.3 0.3 0.2 0.5 0.4 0.8 0.6 0.1 0.1 0.3 0.2 0.4 0.4 0.2 0.2 0.5 0.4 0.7 0.6 0.2 0.1 0.3 0.3 0.5 0.4l0.6 0.6c0.2 0.2 0.4 0.3 0.5 0.5 0.2 0.2 0.3 0.4 0.5 0.5l0.6 0.6c0.1 0.2 0.3 0.3 0.4 0.5 0.2 0.2 0.4 0.5 0.6 0.7 0.1 0.1 0.2 0.3 0.4 0.4 0.2 0.3 0.4 0.5 0.6 0.8 0.1 0.1 0.2 0.3 0.3 0.4l0.6 0.9c0.1 0.1 0.2 0.3 0.3 0.4 0.2 0.3 0.4 0.6 0.5 0.9 0.1 0.2 0.2 0.4 0.3 0.5 0.2 0.3 0.3 0.5 0.5 0.8 0.1 0.2 0.2 0.5 0.4 0.7 0.1 0.2 0.2 0.4 0.3 0.7 0.2 0.5 0.4 1 0.6 1.4l195.9 473c7.4 16.3-0.4 35-16.7 41.8z" fill="#36CBCB" p-id="6621"></path></svg>