<?xml version="1.0" standalone="no"?><!DOCTYPE svg PUBLIC "-//W3C//DTD SVG 1.1//EN" "http://www.w3.org/Graphics/SVG/1.1/DTD/svg11.dtd"><svg t="1611572045888" class="icon" viewBox="0 0 1024 1024" version="1.1" xmlns="http://www.w3.org/2000/svg" p-id="61571" xmlns:xlink="http://www.w3.org/1999/xlink" width="200" height="200"><defs><style type="text/css"></style></defs><path d="M286.375932 427.287496c11.186995-11.186995 28.311424-13.902285 42.430932-6.733919l113.426716 57.745168L387.855372 532.676953 319.321451 497.812629 124.182607 692.951474l206.868897 206.868897 195.718106-195.718106-34.104043-69.36661 54.631636-54.631635 56.659052 115.236909a36.5568 36.5568 0 0 1-6.987346 41.960282L356.828657 977.441462A36.5568 36.5568 0 0 1 305.129535 977.441462L46.525312 718.837239C32.260988 704.572915 32.260988 681.40244 46.525312 667.138116L286.412136 427.251292z m380.792275-380.792275c14.300528-14.300528 37.434799-14.264324 51.699122 0l258.604224 258.604223c14.300528 14.300528 14.264324 37.434799 0 51.699123l-239.995436 239.995435a36.5568 36.5568 0 0 1-42.141301 6.878735l-114.58524-57.021091 54.559228-54.559228 69.076979 34.393674 195.500882-195.500883L693.017768 124.116312l-195.356067 195.356068 34.538489 68.859755L477.71337 442.818955 420.438852 328.704366A36.5568 36.5568 0 0 1 427.245179 286.418249l239.923028-239.923028z" fill="#444444" p-id="61572"></path><path d="M356.828657 615.40279m25.849562-25.849561l206.905101-206.905101q25.849561-25.849561 51.699122 0l0.036204 0.036204q25.849561 25.849561 0 51.699122l-206.905101 206.905101q-25.849561 25.849561-51.699122 0l-0.036204-0.036204q-25.849561-25.849561 0-51.699122Z" fill="#FF6A00" p-id="61573"></path></svg>