<?xml version="1.0" standalone="no"?><!DOCTYPE svg PUBLIC "-//W3C//DTD SVG 1.1//EN" "http://www.w3.org/Graphics/SVG/1.1/DTD/svg11.dtd"><svg t="1611571935687" class="icon" viewBox="0 0 1024 1024" version="1.1" xmlns="http://www.w3.org/2000/svg" p-id="56828" xmlns:xlink="http://www.w3.org/1999/xlink" width="200" height="200"><defs><style type="text/css"></style></defs><path d="M512 0c-282.758945 0-511.978511 229.220588-511.978511 511.978511s229.219565 511.978511 511.978511 511.97851c282.755876 0 511.978511-229.220588 511.978511-511.97851 0-282.758945-229.222635-511.978511-511.978511-511.978511z m345.949126 484.835314c-8.089235 144.251382-109.414969 252.423033-201.550388 305.554114-54.243415 31.280424-96.460935 44.627407-141.170207 44.627407-1.080611 0-2.165316-0.021489-3.244904-0.065492a81.07655 81.07655 0 0 1-3.212158 0.065492c-44.709271 0-86.926792-13.346983-141.170207-44.627407-92.130304-53.131081-193.461153-161.297616-201.550388-305.554114-5.863545-104.521518 36.495192-191.279465 116.205628-238.028185 70.869071-41.567721 157.37426-42.576701 220.35671-2.569522 4.281513 2.721994 7.417947 4.063549 9.386788 4.723581 1.968841-0.660032 5.105275-2.001587 9.386788-4.723581 62.992683-40.008202 149.482523-39.004339 220.35671 2.569522 79.710436 46.74872 122.069173 133.506666 116.205628 238.028185z" fill="#4285F4" p-id="56829"></path><path d="M679.579693 352.796068c-34.111912-20.006659-72.254627-17.584494-92.304266-4.838191-0.00614 0-0.00614 0-0.00614 0.005116-23.949458 15.207353-48.434106 23.415292-72.782653 24.402783-1.657756 0.065492-3.316535 0.065492-4.974291 0-24.348548-0.98749-48.833195-9.196453-72.783677-24.402783-9.654894-6.135744-23.508413-9.883091-39.081087-9.883091-16.771989 0-35.540448 4.341888-53.229319 14.716166-39.145555 22.962991-58.922994 67.410296-55.689346 125.156488 5.345752 95.331205 75.957972 168.917154 140.253324 205.989491 42.37511 24.435529 63.794955 28.084639 79.022775 28.194133l1.500166-0.070608a63.278185 63.278185 0 0 1 4.985548 0l1.51654 0.070608c15.228843-0.11461 36.653805-3.76372 79.006402-28.194133 64.296375-37.078477 134.908596-110.663402 140.253324-205.989491 3.236718-57.746192-16.540721-102.193497-55.6873-125.156488z" fill="#4285F4" p-id="56830"></path></svg>