<?xml version="1.0" standalone="no"?><!DOCTYPE svg PUBLIC "-//W3C//DTD SVG 1.1//EN" "http://www.w3.org/Graphics/SVG/1.1/DTD/svg11.dtd"><svg t="1611385229282" class="icon" viewBox="0 0 1024 1024" version="1.1" xmlns="http://www.w3.org/2000/svg" p-id="4454" xmlns:xlink="http://www.w3.org/1999/xlink" width="200" height="200"><defs><style type="text/css"></style></defs><path d="M554.1 62.2l364.3 165.9c39.7 18.1 39.7 74.4 0 92.5L554.1 486.5c-26.7 12.2-57.5 12.2-84.2 0L105.6 320.6c-39.7-18.1-39.7-74.4 0-92.5L469.9 62.2M152.1 688.7c-13.4-6.1-28.7-6.1-42.1 0l-4.4 2c-39.7 18.1-39.7 74.4 0 92.5l364.3 165.9c26.7 12.2 57.5 12.2 84.2 0l364.3-165.9c39.7-18.1 39.7-74.4 0-92.5l-4.4-2c-13.4-6.1-28.7-6.1-42.1 0L533.1 843c-13.4 6.1-28.7 6.1-42.1 0L152.1 688.7z" fill="#666666" p-id="4455"></path><path d="M152.1 457.4c-13.4-6.1-28.7-6.1-42.1 0l-4.4 2c-39.7 18.1-39.7 74.4 0 92.5l364.3 165.9c26.7 12.2 57.5 12.2 84.2 0l364.3-165.9c39.7-18.1 39.7-74.4 0-92.5l-4.4-2c-13.4-6.1-28.7-6.1-42.1 0L533.1 611.7c-13.4 6.1-28.7 6.1-42.1 0L152.1 457.4z" fill="#666666" p-id="4456"></path></svg>