<?xml version="1.0" standalone="no"?><!DOCTYPE svg PUBLIC "-//W3C//DTD SVG 1.1//EN" "http://www.w3.org/Graphics/SVG/1.1/DTD/svg11.dtd"><svg t="1611567745651" class="icon" viewBox="0 0 1024 1024" version="1.1" xmlns="http://www.w3.org/2000/svg" p-id="49554" xmlns:xlink="http://www.w3.org/1999/xlink" width="200" height="200"><defs><style type="text/css"></style></defs><path d="M348.032 555.562667l120.682667 120.661333a42.666667 42.666667 0 0 1 0 60.352l-120.682667 120.682667a85.333333 85.333333 0 0 1-120.682667 0l-60.352-60.352a85.333333 85.333333 0 0 1 0-120.682667l120.682667-120.661333a42.666667 42.666667 0 0 1 60.352 0zM317.866667 615.872l-105.6 105.6a21.333333 21.333333 0 0 0-1.664 28.330667l1.664 1.856 60.330666 60.330666a21.333333 21.333333 0 0 0 28.309334 1.664l1.856-1.664 105.6-105.6-90.496-90.517333z" fill="#000000" p-id="49555"></path><path d="M878.826667 545.109333l16.32 16.789334c45.802667 47.104 47.381333 120.597333 4.394666 167.210666l-3.306666 3.434667-31.701334 31.701333c-45.696 45.696-120.064 45.824-168.32 1.109334l-3.584-3.413334-142.549333-142.570666c-20.992-20.992-54.08-22.272-75.52-3.498667l-2.624 2.432-61.653333 61.653333-47.530667-47.509333 61.653333-61.653333c45.696-45.674667 120.064-45.802667 168.341334-1.109334l3.584 3.434667 142.549333 142.549333c20.992 20.992 54.08 22.272 75.52 3.52l2.602667-2.453333 31.722666-31.701333c20.224-20.224 20.821333-52.885333 1.962667-74.88l-2.474667-2.688-16.32-16.789334 46.933334-45.568z" fill="#000000" p-id="49556"></path><path d="M551.32997 164.741803m22.627417 22.627417l256.44406 256.444059q22.627417 22.627417 0 45.254834l0 0q-22.627417 22.627417-45.254834 0l-256.44406-256.444059q-22.627417-22.627417 0-45.254834l0 0q22.627417-22.627417 45.254834 0Z" fill="#000000" p-id="49557"></path></svg>