<?xml version="1.0" standalone="no"?><!DOCTYPE svg PUBLIC "-//W3C//DTD SVG 1.1//EN" "http://www.w3.org/Graphics/SVG/1.1/DTD/svg11.dtd"><svg t="1611571890409" class="icon" viewBox="0 0 1024 1024" version="1.1" xmlns="http://www.w3.org/2000/svg" p-id="55864" xmlns:xlink="http://www.w3.org/1999/xlink" width="200" height="200"><defs><style type="text/css"></style></defs><path d="M512 1010.706286c-24.32-46.939429-59.062857-108.306286-104.228571-180.48C303.542857 667.794286 164.571429 552.283429 164.571429 368.182857 164.571429 158.866286 320.914286 0 512 0s347.428571 158.829714 347.428571 368.182857c0 184.100571-138.971429 299.611429-243.2 462.043429-45.165714 72.137143-79.908571 133.540571-104.228571 180.48z" fill="#3A9DFF" p-id="55865"></path><path d="M227.748571 347.428571c0 157.001143 127.268571 284.251429 284.251429 284.251429 157.001143 0 284.251429-127.268571 284.251429-284.251429 0-157.001143-127.268571-284.251429-284.251429-284.251428-157.001143 0-284.251429 127.268571-284.251429 284.251428z" fill="#FFFFFF" p-id="55866"></path></svg>