<?xml version="1.0" standalone="no"?><!DOCTYPE svg PUBLIC "-//W3C//DTD SVG 1.1//EN" "http://www.w3.org/Graphics/SVG/1.1/DTD/svg11.dtd"><svg t="1611743916784" class="icon" viewBox="0 0 1024 1024" version="1.1" xmlns="http://www.w3.org/2000/svg" p-id="1812" xmlns:xlink="http://www.w3.org/1999/xlink" width="200" height="200"><defs><style type="text/css"></style></defs><path d="M640 170.666667a42.666667 42.666667 0 0 1 42.666667 42.666666v128h128a42.666667 42.666667 0 0 1 42.666666 42.666667v426.666667a42.666667 42.666667 0 0 1-42.666666 42.666666H384a42.666667 42.666667 0 0 1-42.666667-42.666666v-128H213.333333a42.666667 42.666667 0 0 1-42.666666-42.666667V213.333333a42.666667 42.666667 0 0 1 42.666666-42.666666h426.666667z m170.666667 213.333333h-128v256a42.666667 42.666667 0 0 1-42.666667 42.666667H384v128h426.666667V384z m-170.666667-170.666667H213.333333v426.666667h128V384a42.666667 42.666667 0 0 1 42.666667-42.666667h256V213.333333z m0 170.666667H384v256h256V384z" fill="#999999" p-id="1813"></path></svg>