<?xml version="1.0" standalone="no"?><!DOCTYPE svg PUBLIC "-//W3C//DTD SVG 1.1//EN" "http://www.w3.org/Graphics/SVG/1.1/DTD/svg11.dtd"><svg t="1611631855204" class="icon" viewBox="0 0 1024 1024" version="1.1" xmlns="http://www.w3.org/2000/svg" p-id="8364" xmlns:xlink="http://www.w3.org/1999/xlink" width="200" height="200"><defs><style type="text/css"></style></defs><path d="M903.529412 602.352941H572.235294v331.294118h331.294118V602.352941z m-331.294118-30.117647a30.117647 30.117647 0 0 0-30.117647 30.117647v331.294118a30.117647 30.117647 0 0 0 30.117647 30.117647h331.294118a30.117647 30.117647 0 0 0 30.117647-30.117647V602.352941a30.117647 30.117647 0 0 0-30.117647-30.117647H572.235294z" fill="#8E8E8E" p-id="8365"></path><path d="M760.470588 871.243294L873.411765 766.915765 760.470588 662.588235v74.209883H632.470588v60.235294h128v74.209882zM225.882353 240.941176a15.058824 15.058824 0 0 1 15.058823-15.058823h391.529412a15.058824 15.058824 0 0 1 0 30.117647H240.941176a15.058824 15.058824 0 0 1-15.058823-15.058824z m0 143.420236a15.058824 15.058824 0 0 1 15.058823-15.058824h391.529412a15.058824 15.058824 0 0 1 0 30.117647H240.941176a15.058824 15.058824 0 0 1-15.058823-15.058823zM225.882353 542.117647a15.058824 15.058824 0 0 1 15.058823-15.058823h223.744a15.058824 15.058824 0 0 1 0 30.117647H240.941176a15.058824 15.058824 0 0 1-15.058823-15.058824z" fill="#8E8E8E" p-id="8366"></path><path d="M120.470588 90.352941h632.470588v451.764706h30.117648V90.352941a30.117647 30.117647 0 0 0-30.117648-30.117647H120.470588a30.117647 30.117647 0 0 0-30.117647 30.117647v722.82353a30.117647 30.117647 0 0 0 30.117647 30.117647h391.529412v-30.117647H120.470588V90.352941z" fill="#8E8E8E" p-id="8367"></path></svg>