<?xml version="1.0" standalone="no"?><!DOCTYPE svg PUBLIC "-//W3C//DTD SVG 1.1//EN" "http://www.w3.org/Graphics/SVG/1.1/DTD/svg11.dtd"><svg t="1611535849173" class="icon" viewBox="0 0 1024 1024" version="1.1" xmlns="http://www.w3.org/2000/svg" p-id="9055" xmlns:xlink="http://www.w3.org/1999/xlink" width="200" height="200"><defs><style type="text/css"></style></defs><path d="M1000.896719 1019.476757H27.549435c-11.057818 0-20.02321-8.964391-20.023211-20.023211V26.106262c0-11.058819 8.965393-20.02321 20.023211-20.023211h973.347284c11.057818 0 20.02321 8.964391 20.023211 20.023211v973.347284c0 11.058819-8.965393 20.02321-20.023211 20.023211z m-953.324074-40.046421h933.300864V46.129472H47.572645v933.300864z" fill="#20A2DD" p-id="9056"></path><path d="M820.818977 839.399014H207.627177c-11.058819 0-20.02321-8.964391-20.02321-20.02321v-613.190799c0-11.058819 8.964391-20.02321 20.02321-20.02321h613.1918c11.058819 0 20.02321 8.964391 20.02321 20.02321v613.190799c0 11.058819-8.964391 20.02321-20.02321 20.02321z m-593.168589-40.046421h573.145378v-573.144377H227.650388v573.144377z" fill="#20A2DD" p-id="9057"></path><path d="M904.899441 923.478477h-60.069631c-11.057818 0-20.02321-8.964391-20.023211-20.02321s8.965393-20.02321 20.023211-20.023211h40.046421v-21.815287c0-11.058819 8.965393-20.02321 20.02321-20.023211s20.02321 8.964391 20.023211 20.023211v41.838498c0 11.058819-8.964391 20.02321-20.023211 20.02321z m-220.255315 0h-60.069632c-11.057818 0-20.02321-8.964391-20.02321-20.02321s8.965393-20.02321 20.02321-20.023211h60.069632c11.057818 0 20.02321 8.964391 20.02321 20.023211s-8.964391 20.02321-20.02321 20.02321z m-220.255316 0h-60.069631c-11.057818 0-20.02321-8.964391-20.023211-20.02321s8.965393-20.02321 20.023211-20.023211h60.069631c11.057818 0 20.02321 8.964391 20.023211 20.023211s-8.964391 20.02321-20.023211 20.02321z m-220.255315 0h-60.069632c-11.057818 0-20.02321-8.964391-20.02321-20.02321s8.965393-20.02321 20.02321-20.023211h60.069632c11.057818 0 20.02321 8.964391 20.02321 20.023211s-8.964391 20.02321-20.02321 20.02321z m-120.587783-99.668533c-11.058819 0-20.02321-8.964391-20.023211-20.023211v-60.069631c0-11.058819 8.964391-20.02321 20.023211-20.023211s20.02321 8.964391 20.02321 20.023211v60.069631c0 11.058819-8.964391 20.02321-20.02321 20.023211zM904.899441 721.454295c-11.057818 0-20.02321-8.964391-20.02321-20.02321v-60.069632c0-11.058819 8.965393-20.02321 20.02321-20.02321s20.02321 8.964391 20.023211 20.02321v60.069632c0 11.058819-8.964391 20.02321-20.023211 20.02321zM123.545712 603.554628c-11.058819 0-20.02321-8.964391-20.023211-20.02321v-60.069632c0-11.058819 8.964391-20.02321 20.023211-20.02321s20.02321 8.964391 20.02321 20.02321v60.069632c0 11.058819-8.964391 20.02321-20.02321 20.02321zM904.899441 501.19898c-11.057818 0-20.02321-8.964391-20.02321-20.023211v-60.069631c0-11.058819 8.965393-20.02321 20.02321-20.023211s20.02321 8.964391 20.023211 20.023211v60.069631c0 11.058819-8.964391 20.02321-20.023211 20.023211zM123.545712 383.299313c-11.058819 0-20.02321-8.964391-20.023211-20.023211v-60.069631c0-11.058819 8.964391-20.02321 20.023211-20.023211s20.02321 8.964391 20.02321 20.023211v60.069631c0 11.058819-8.964391 20.02321-20.02321 20.023211zM904.899441 280.943664c-11.057818 0-20.02321-8.964391-20.02321-20.02321v-60.069632c0-11.058819 8.965393-20.02321 20.02321-20.02321s20.02321 8.964391 20.023211 20.02321v60.069632c0 11.058819-8.964391 20.02321-20.023211 20.02321zM123.545712 163.043997c-11.058819 0-20.02321-8.964391-20.023211-20.02321V122.101538c0-11.058819 8.964391-20.02321 20.023211-20.023211h39.150382c11.058819 0 20.02321 8.964391 20.023211 20.023211s-8.964391 20.02321-20.023211 20.02321h-19.127172v0.896039c0 11.058819-8.964391 20.02321-20.02321 20.02321z m699.916328-20.918248h-60.069631c-11.058819 0-20.02321-8.964391-20.023211-20.02321s8.964391-20.02321 20.023211-20.023211h60.069631c11.058819 0 20.02321 8.964391 20.023211 20.023211s-8.964391 20.02321-20.023211 20.02321z m-220.255315 0h-60.069632c-11.058819 0-20.02321-8.964391-20.02321-20.02321s8.964391-20.02321 20.02321-20.023211h60.069632c11.058819 0 20.02321 8.964391 20.02321 20.023211s-8.964391 20.02321-20.02321 20.02321z m-220.255316 0h-60.069631c-11.058819 0-20.02321-8.964391-20.023211-20.02321s8.964391-20.02321 20.023211-20.023211h60.069631c11.058819 0 20.02321 8.964391 20.023211 20.023211s-8.964391 20.02321-20.023211 20.02321z" fill="#DCDDDD" p-id="9058"></path></svg>