<?xml version="1.0" standalone="no"?><!DOCTYPE svg PUBLIC "-//W3C//DTD SVG 1.1//EN" "http://www.w3.org/Graphics/SVG/1.1/DTD/svg11.dtd"><svg t="1611535906151" class="icon" viewBox="0 0 2327 1024" version="1.1" xmlns="http://www.w3.org/2000/svg" p-id="11278" xmlns:xlink="http://www.w3.org/1999/xlink" width="454.4921875" height="200"><defs><style type="text/css"></style></defs><path d="M2216.815923 584.319561l110.622924-110.622924V247.95278a112.45024 112.45024 0 0 0-112.45024-112.450241H112.45024a112.45024 112.45024 0 0 0-112.45024 112.450241v663.59698a112.45024 112.45024 0 0 0 112.45024 112.45024h2102.538367a112.45024 112.45024 0 0 0 112.45024-112.45024V594.721208z" fill="#3294C9" p-id="11279"></path><path d="M1852.898833 253.01304m-253.01304 0a253.01304 253.01304 0 1 0 506.026081 0 253.01304 253.01304 0 1 0-506.026081 0Z" fill="#E50012" p-id="11280"></path><path d="M1766.874399 339.178037l172.189431-172.329993M1766.733837 358.013452a18.975978 18.975978 0 0 1-13.353466-32.329444L1925.710364 153.354015a18.975978 18.975978 0 0 1 26.706932 26.847495l-172.189431 172.329993a18.975978 18.975978 0 0 1-13.494028 5.481949zM1766.874399 166.848044l172.189431 172.329993" fill="#FFFFFF" p-id="11281"></path><path d="M1939.06383 358.013452a19.257104 19.257104 0 0 1-14.05628-5.481949l-171.627179-172.329993a18.975978 18.975978 0 0 1 0-26.847495 19.116541 19.116541 0 0 1 26.847494 0l172.189431 172.329993a18.975978 18.975978 0 0 1 0 26.847495 18.694852 18.694852 0 0 1-13.353466 5.481949z" fill="#FFFFFF" p-id="11282"></path></svg>