<?xml version="1.0" standalone="no"?><!DOCTYPE svg PUBLIC "-//W3C//DTD SVG 1.1//EN" "http://www.w3.org/Graphics/SVG/1.1/DTD/svg11.dtd"><svg t="1611551234618" class="icon" viewBox="0 0 1024 1024" version="1.1" xmlns="http://www.w3.org/2000/svg" p-id="20875" xmlns:xlink="http://www.w3.org/1999/xlink" width="200" height="200"><defs><style type="text/css"></style></defs><path d="M512 512m-512 0a512 512 0 1 0 1024 0 512 512 0 1 0-1024 0Z" fill="#0060FF" p-id="20876"></path><path d="M512.898246 291.929825m-67.368421 0a67.368421 67.368421 0 1 0 134.736842 0 67.368421 67.368421 0 1 0-134.736842 0Z" fill="#FFFFFF" p-id="20877"></path><path d="M512.898246 462.596491c26.947368 0 49.403509 22.45614 49.403508 49.403509s-22.45614 49.403509-49.403508 49.403509-49.403509-22.45614-49.403509-49.403509 21.557895-49.403509 49.403509-49.403509m0-17.964912c-36.82807 0-67.368421 30.540351-67.368421 67.368421s30.540351 67.368421 67.368421 67.368421 67.368421-30.540351 67.368421-67.368421-30.540351-67.368421-67.368421-67.368421z" fill="#C3CDEB" p-id="20878"></path><path d="M512.898246 732.070175m-67.368421 0a67.368421 67.368421 0 1 0 134.736842 0 67.368421 67.368421 0 1 0-134.736842 0Z" fill="#FFFFFF" p-id="20879"></path><path d="M292.82807 242.526316c26.947368 0 49.403509 22.45614 49.403509 49.403509S319.775439 341.333333 292.82807 341.333333s-49.403509-22.45614-49.403509-49.403508 21.557895-49.403509 49.403509-49.403509m0-17.964912c-36.82807 0-67.368421 30.540351-67.368421 67.368421s30.540351 67.368421 67.368421 67.368421 67.368421-30.540351 67.368421-67.368421-30.540351-67.368421-67.368421-67.368421z" fill="#C3CDEB" p-id="20880"></path><path d="M292.82807 512m-67.368421 0a67.368421 67.368421 0 1 0 134.736842 0 67.368421 67.368421 0 1 0-134.736842 0Z" fill="#FFFFFF" p-id="20881"></path><path d="M292.82807 682.666667c26.947368 0 49.403509 22.45614 49.403509 49.403508S319.775439 781.473684 292.82807 781.473684s-49.403509-22.45614-49.403509-49.403509 21.557895-49.403509 49.403509-49.403508m0-17.964913c-36.82807 0-67.368421 30.540351-67.368421 67.368421s30.540351 67.368421 67.368421 67.368421 67.368421-30.540351 67.368421-67.368421-30.540351-67.368421-67.368421-67.368421zM732.968421 242.526316c26.947368 0 49.403509 22.45614 49.403509 49.403509S759.915789 341.333333 732.968421 341.333333s-49.403509-22.45614-49.403509-49.403508 21.557895-49.403509 49.403509-49.403509m0-17.964912c-36.82807 0-67.368421 30.540351-67.368421 67.368421s30.540351 67.368421 67.368421 67.368421 67.368421-30.540351 67.368421-67.368421-30.540351-67.368421-67.368421-67.368421z" fill="#C3CDEB" p-id="20882"></path><path d="M742.849123 512m-67.368421 0a67.368421 67.368421 0 1 0 134.736842 0 67.368421 67.368421 0 1 0-134.736842 0Z" fill="#FFFFFF" p-id="20883"></path><path d="M732.968421 682.666667c26.947368 0 49.403509 22.45614 49.403509 49.403508S759.915789 781.473684 732.968421 781.473684s-49.403509-22.45614-49.403509-49.403509 21.557895-49.403509 49.403509-49.403508m0-17.964913c-36.82807 0-67.368421 30.540351-67.368421 67.368421s30.540351 67.368421 67.368421 67.368421 67.368421-30.540351 67.368421-67.368421-30.540351-67.368421-67.368421-67.368421z" fill="#C3CDEB" p-id="20884"></path></svg>