<?xml version="1.0" standalone="no"?><!DOCTYPE svg PUBLIC "-//W3C//DTD SVG 1.1//EN" "http://www.w3.org/Graphics/SVG/1.1/DTD/svg11.dtd"><svg t="1611383089665" class="icon" viewBox="0 0 1024 1024" version="1.1" xmlns="http://www.w3.org/2000/svg" p-id="3068" xmlns:xlink="http://www.w3.org/1999/xlink" width="200" height="200"><defs><style type="text/css"></style></defs><path d="M918.642 697.132h10.316v10.316h-10.316z" fill="#000000" p-id="3069"></path><path d="M899.634 528.696L723.063 352.203l-16.211 16.31c-6.996 6.995-16.31 10.492-25.604 10.492-9.196 0-18.51-3.497-25.603-10.512-14.083-14.088-14.083-36.923 0-51.01l16.309-16.31L495.559 124.7a84.455 84.455 0 0 0-59.774-24.7 84.298 84.298 0 0 0-59.774 24.7c-32.894 32.874-32.894 86.753 0 119.725l115.952 115.972L339.345 512.84 234.612 617.57l-34.622 34.623-66.77 66.77-4.42 4.42c-0.276 0.295-0.394 0.57-0.65 0.747-1.198 1.297-2.298 2.574-3.222 3.95-0.098 0.098-0.098 0.295-0.275 0.295-3.498 5.05-6.091 10.944-6.818 17.763l-17.489 133.008a39.967 39.967 0 0 0 44.94 44.86l132.988-17.586c6.818-0.924 12.811-3.518 17.783-7.015 0 0 0.098-0.079 0.275-0.079 1.375-1.022 2.672-2.043 3.969-3.34 0.275-0.256 0.55-0.354 0.727-0.629l119.47-119.47 4.52-4.52 64.194-64.273 65.12-65.04 0.648 0.275 104.732-104.733-0.648-0.255 5.05-5.07 115.972 115.953a84.886 84.886 0 0 0 59.95 24.7 84.297 84.297 0 0 0 59.795-24.7c32.697-32.697 32.697-86.577-0.197-119.549v0.02zM267.506 855.921l-114.302 15.091 13.715-103.435 139.552 49.28-38.965 39.064z m79.384-79.384L200.166 724.76l24.052-24.051 146.723 51.777-24.031 24.031-0.02 0.02z m64.49-64.313l-146.723-51.758 23.776-23.776 146.704 51.777-23.776 23.776 0.02-0.02z m64.294-64.47l-146.724-51.68 21.261-21.457 2.495-2.476 146.724 51.757-23.776 23.855h0.02z m64.922-64.943L394.521 531.33l23.855-24.031L564.45 558.78l-23.855 24.031z m64.49-64.293L458.343 466.76l53.977-53.977 99.211 99.21-6.445 6.525z m258.078 93.492a33.004 33.004 0 0 1-23.383 9.668c-8.94 0-17.33-3.301-23.5-9.668L412.283 207.936a33.037 33.037 0 0 1-9.649-23.383 32.801 32.801 0 0 1 33.071-33.072c8.921 0 17.115 3.302 23.384 9.57l143.5 143.502c-16.306 33.658-9.587 73.944 16.762 100.488a87.244 87.244 0 0 0 61.994 25.623c13.539 0 26.626-3.144 38.514-8.764L863.34 565.225c6.17 6.17 9.59 14.462 9.59 23.383-0.197 8.764-3.498 17.134-9.767 23.402z" fill="#666666" p-id="3070"></path></svg>