<?xml version="1.0" standalone="no"?><!DOCTYPE svg PUBLIC "-//W3C//DTD SVG 1.1//EN" "http://www.w3.org/Graphics/SVG/1.1/DTD/svg11.dtd"><svg t="1611629263215" class="icon" viewBox="0 0 1024 1024" version="1.1" xmlns="http://www.w3.org/2000/svg" p-id="6319" xmlns:xlink="http://www.w3.org/1999/xlink" width="200" height="200"><defs><style type="text/css"></style></defs><path d="M294.62186667 134.08256H868.23822222c54.70094222 0 91.66165333 25.13351111 112.35783111 66.52814222 10.35036445 22.17642667 14.78542222 45.82968889 14.78542222 62.09308445l-1.4791111 8.87011555-94.6176 332.63729778c-4.43505778 17.74136889-22.17528889 26.61262222-39.91552 22.17528889-17.74136889-4.43392-26.61262222-22.17528889-22.1752889-39.91665778l94.61646223-332.63729778-1.47911111 8.87011556c0-7.39214222-1.47911111-20.69731555-7.39214222-32.52451556-8.87011555-19.21934222-25.13237333-29.56743111-53.2229689-29.56743111H290.18567111l45.83082667 45.82968889c13.30517333 13.30517333 13.30517333 34.00362667 0 45.82968889-13.30517333 13.30631111-34.00248889 13.30631111-45.83082667 0l-99.05152-99.05152c-13.30631111-13.30631111-13.30631111-34.00248889 0-45.83082667l99.05152-100.53063111c13.30517333-13.30631111 34.00362667-13.30631111 45.83082667 0 13.30517333 13.30517333 13.30517333 34.00362667 0 45.82968889l-41.39463111 41.39576889zM741.41696 885.36632889H167.79832889c-54.70094222 0-91.66051555-25.13237333-112.35783111-66.52814222-10.34808889-22.17528889-14.78428445-45.82968889-14.78428445-62.09194667l1.47911112-8.86897778 94.6176-332.63957333c4.43392-17.74136889 22.17528889-26.61148445 39.91665777-22.17642667 17.74023111 4.43505778 26.61034667 22.17642667 22.17528889 39.91665778l-93.13962666 332.63729778 1.4791111-8.87011556c0 7.39214222 1.47797333 20.69731555 7.39214223 32.52451556 8.87011555 19.21934222 25.13237333 29.56743111 53.22183111 29.56743111h579.53166222l-45.83082666-45.82968889c-13.30517333-13.30403555-13.30517333-34.00362667 0-45.82968889 13.30403555-13.30403555 34.00362667-13.30403555 45.83082666 0l99.05152 99.05265778c13.30517333 13.30403555 13.30517333 34.00362667 0 45.83082666l-100.52949333 100.52949334c-13.30631111 13.30403555-34.00362667 13.30403555-45.83082667 0-13.30403555-13.30517333-13.30403555-34.00248889 0-45.82968889l41.39576889-41.39463111z" fill="#1296db" p-id="6320"></path><path d="M414.25806222 648.90993778c-18.85070222 0-34.13333333-15.28263111-34.13333333-34.13333333V327.50364445c0-18.85070222 15.28263111-34.13333333 34.13333333-34.13333334s34.13333333 15.28263111 34.13333333 34.13333334v287.27296c0 18.85070222-15.28263111 34.13333333-34.13333333 34.13333333zM558.18012445 648.90993778c-18.85070222 0-34.13333333-15.28263111-34.13333334-34.13333333V427.6224c0-18.85070222 15.28263111-34.13333333 34.13333334-34.13333333s34.13333333 15.28263111 34.13333333 34.13333333v187.15420445c0 18.85070222-15.28263111 34.13333333-34.13333333 34.13333333zM702.10218667 648.90993778c-18.85070222 0-34.13333333-15.28263111-34.13333334-34.13333333v-104.6687289c0-18.85070222 15.28263111-34.13333333 34.13333334-34.13333333s34.13333333 15.28263111 34.13333333 34.13333333v104.6687289c0 18.85070222-15.28263111 34.13333333-34.13333333 34.13333333z" fill="#1296db" p-id="6321"></path><path d="M368.74695111 694.42104889c-18.85070222 0-34.13333333-15.28263111-34.13333333-34.13333334V373.01475555c0-18.85070222 15.28263111-34.13333333 34.13333333-34.13333333s34.13333333 15.28263111 34.13333334 34.13333333v287.27296c0 18.85070222-15.28149333 34.13333333-34.13333334 34.13333334zM512.66901333 694.42104889c-18.85070222 0-34.13333333-15.28263111-34.13333333-34.13333334V473.13351111c0-18.85070222 15.28263111-34.13333333 34.13333333-34.13333333s34.13333333 15.28263111 34.13333334 34.13333333v187.15420444c0 18.85070222-15.28263111 34.13333333-34.13333334 34.13333334zM656.59107555 694.42104889c-18.85070222 0-34.13333333-15.28263111-34.13333333-34.13333334v-104.66872888c0-18.85070222 15.28263111-34.13333333 34.13333333-34.13333334s34.13333333 15.28263111 34.13333334 34.13333334v104.66872888c0 18.85070222-15.28263111 34.13333333-34.13333334 34.13333334z" fill="#1296db" p-id="6322"></path></svg>