999
dxfrw 0.6.3
  0
SECTION
  2
HEADER
  9
$ACADVER
  1
AC1021
  9
$DWGCODEPAGE
  3
ANSI_1252
  9
$INSBASE
 10
0
 20
0
 30
0
  9
$EXTMIN
 10
0.037539
 20
0
 30
0
  9
$EXTMAX
 10
100.15564
 20
100.62257
 30
0
  9
$LIMMIN
 10
0
 20
0
  9
$LIMMAX
 10
100.15564
 20
100.62257
  9
$ORTHOMODE
 70
    0
  9
$REGENMODE
 70
    1
  9
$FILLMODE
 70
    1
  9
$QTEXTMODE
 70
    0
  9
$MIRRTEXT
 70
    0
  9
$LTSCALE
 40
1
  9
$ATTMODE
 70
    0
  9
$TEXTSIZE
 40
2.5
  9
$TRACEWID
 40
15.68
  9
$TEXTSTYLE
  7
STANDARD
  9
$CLAYER
  8
0
  9
$CELTYPE
  6
BYLAYER
  9
$CECOLOR
 62
  256
  9
$CELTSCALE
 40
1
  9
$DISPSILH
 70
    0
  9
$DIMSCALE
 40
2.5
  9
$DIMASZ
 40
3
  9
$DIMEXO
 40
2
  9
$DIMDLI
 40
3.75
  9
$DIMRND
 40
0.01
  9
$DIMDLE
 40
0
  9
$DIMEXE
 40
2
  9
$DIMTP
 40
0
  9
$DIMTM
 40
0
  9
$DIMTXT
 40
5
  9
$DIMCEN
 40
2.5
  9
$DIMTSZ
 40
0
  9
$DIMTOL
 70
    0
  9
$DIMLIM
 70
    0
  9
$DIMTIH
 70
    0
  9
$DIMTOH
 70
    0
  9
$DIMSE1
 70
    0
  9
$DIMSE2
 70
    0
  9
$DIMTAD
 70
    1
  9
$DIMZIN
 70
    8
  9
$DIMBLK
  1

  9
$DIMASO
 70
    1
  9
$DIMSHO
 70
    1
  9
$DIMPOST
  1

  9
$DIMAPOST
  1

  9
$DIMALT
 70
    4
  9
$DIMALTD
 70
    3
  9
$DIMALTF
 40
0.03937
  9
$DIMLFAC
 40
1
  9
$DIMTOFL
 70
    1
  9
$DIMTVP
 40
0
  9
$DIMTIX
 70
    0
  9
$DIMSOXD
 70
    0
  9
$DIMSAH
 70
    0
  9
$DIMBLK1
  1

  9
$DIMBLK2
  1

  9
$DIMSTYLE
  2
Standard
  9
$DIMCLRD
 70
    0
  9
$DIMCLRE
 70
    0
  9
$DIMCLRT
 70
    0
  9
$DIMTFAC
 40
1
  9
$DIMGAP
 40
0.625
  9
$DIMJUST
 70
    0
  9
$DIMSD1
 70
    0
  9
$DIMSD2
 70
    0
  9
$DIMTOLJ
 70
    0
  9
$DIMTZIN
 70
    8
  9
$DIMALTZ
 70
    0
  9
$DIMALTTZ
 70
    0
  9
$DIMUPT
 70
    0
  9
$DIMDEC
 70
    2
  9
$DIMTDEC
 70
    2
  9
$DIMALTU
 70
    2
  9
$DIMALTTD
 70
    3
  9
$DIMTXSTY
  7
STANDARD
  9
$DIMAUNIT
 70
    0
  9
$DIMADEC
 70
    2
  9
$DIMALTRND
 40
0
  9
$DIMAZIN
 70
    0
  9
$DIMDSEP
 70
   44
  9
$DIMATFIT
 70
    3
  9
$DIMFRAC
 70
    0
  9
$DIMLDRBLK
  1
STANDARD
  9
$DIMLUNIT
 70
    2
  9
$DIMLWD
 70
   -2
  9
$DIMLWE
 70
   -2
  9
$DIMTMOVE
 70
    0
  9
$DIMFXL
 40
1
  9
$DIMFXLON
 70
    0
  9
$DIMJOGANG
 40
0.7854
  9
$DIMTFILL
 70
    0
  9
$DIMTFILLCLR
 70
    0
  9
$DIMARCSYM
 70
    0
  9
$DIMLTYPE
  6

  9
$DIMLTEX1
  6

  9
$DIMLTEX2
  6

  9
$LUNITS
 70
    2
  9
$LUPREC
 70
    4
  9
$SKETCHINC
 40
1
  9
$FILLETRAD
 40
0
  9
$AUNITS
 70
    0
  9
$AUPREC
 70
    2
  9
$MENU
  1
.
  9
$ELEVATION
 40
0
  9
$PELEVATION
 40
0
  9
$THICKNESS
 40
0
  9
$LIMCHECK
 70
    0
  9
$CHAMFERA
 40
0
  9
$CHAMFERB
 40
0
  9
$CHAMFERC
 40
0
  9
$CHAMFERD
 40
0
  9
$SKPOLY
 70
    0
  9
$USRTIMER
 70
    1
  9
$ANGBASE
 50
0
  9
$ANGDIR
 70
    0
  9
$PDMODE
 70
   34
  9
$PDSIZE
 40
0
  9
$PLINEWID
 40
0
  9
$SPLFRAME
 70
    0
  9
$SPLINETYPE
 70
    2
  9
$SPLINESEGS
 70
    8
  9
$HANDSEED
  5
20000
  9
$SURFTAB1
 70
    6
  9
$SURFTAB2
 70
    6
  9
$SURFTYPE
 70
    6
  9
$SURFU
 70
    6
  9
$SURFV
 70
    6
  9
$UCSBASE
  2

  9
$UCSNAME
  2

  9
$UCSORG
 10
0
 20
0
 30
0
  9
$UCSXDIR
 10
1
 20
0
 30
0
  9
$UCSYDIR
 10
0
 20
1
 30
0
  9
$UCSORTHOREF
  2

  9
$UCSORTHOVIEW
 70
    0
  9
$UCSORGTOP
 10
0
 20
0
 30
0
  9
$UCSORGBOTTOM
 10
0
 20
0
 30
0
  9
$UCSORGLEFT
 10
0
 20
0
 30
0
  9
$UCSORGRIGHT
 10
0
 20
0
 30
0
  9
$UCSORGFRONT
 10
0
 20
0
 30
0
  9
$UCSORGBACK
 10
0
 20
0
 30
0
  9
$PUCSBASE
  2

  9
$PUCSNAME
  2

  9
$PUCSORG
 10
0
 20
0
 30
0
  9
$PUCSXDIR
 10
1
 20
0
 30
0
  9
$PUCSYDIR
 10
0
 20
1
 30
0
  9
$PUCSORTHOREF
  2

  9
$PUCSORTHOVIEW
 70
    0
  9
$PUCSORGTOP
 10
0
 20
0
 30
0
  9
$PUCSORGBOTTOM
 10
0
 20
0
 30
0
  9
$PUCSORGLEFT
 10
0
 20
0
 30
0
  9
$PUCSORGRIGHT
 10
0
 20
0
 30
0
  9
$PUCSORGFRONT
 10
0
 20
0
 30
0
  9
$PUCSORGBACK
 10
0
 20
0
 30
0
  9
$USERI1
 70
    0
  9
$USERI2
 70
    0
  9
$USERI3
 70
    0
  9
$USERI4
 70
    0
  9
$USERI5
 70
    0
  9
$USERR1
 40
0
  9
$USERR2
 40
0
  9
$USERR3
 40
0
  9
$USERR4
 40
0
  9
$USERR5
 40
0
  9
$WORLDVIEW
 70
    1
  9
$SHADEDGE
 70
    3
  9
$SHADEDIF
 70
   70
  9
$TILEMODE
 70
    1
  9
$MAXACTVP
 70
   64
  9
$PINSBASE
 10
0
 20
0
 30
0
  9
$PLIMCHECK
 70
    0
  9
$PEXTMIN
 10
0
 20
0
 30
0
  9
$PEXTMAX
 10
0
 20
0
 30
0
  9
$SNAPSTYLE
 70
    0
  9
$GRIDUNIT
 10
0.001
 20
0.001
  9
$PLIMMIN
 10
0
 20
0
  9
$PLIMMAX
 10
210
 20
297
  9
$UNITMODE
 70
    0
  9
$VISRETAIN
 70
    1
  9
$PLINEGEN
 70
    0
  9
$PSLTSCALE
 70
    1
  9
$TREEDEPTH
 70
 3020
  9
$CMLSTYLE
  2
Standard
  9
$CMLJUST
 70
    0
  9
$CMLSCALE
 40
20
  9
$PROXYGRAPHICS
 70
    1
  9
$MEASUREMENT
 70
    1
  9
$CELWEIGHT
370
   -1
  9
$ENDCAPS
280
    0
  9
$JOINSTYLE
280
    0
  9
$LWDISPLAY
290
    0
  9
$INSUNITS
 70
    0
  9
$HYPERLINKBASE
  1

  9
$STYLESHEET
  1

  9
$XEDIT
290
    1
  9
$CEPSNTYPE
380
    0
  9
$PSTYLEMODE
290
    1
  9
$EXTNAMES
290
    1
  9
$PSVPSCALE
 40
1
  9
$OLESTARTUP
290
    0
  9
$SORTENTS
280
  127
  9
$INDEXCTL
280
    0
  9
$HIDETEXT
280
    1
  9
$XCLIPFRAME
290
    0
  9
$HALOGAP
280
    0
  9
$OBSCOLOR
 70
  257
  9
$OBSLTYPE
280
    0
  9
$INTERSECTIONDISPLAY
280
    0
  9
$INTERSECTIONCOLOR
 70
  257
  9
$DIMASSOC
280
    1
  9
$PROJECTNAME
  1

  9
$CAMERADISPLAY
290
    0
  9
$LENSLENGTH
 40
50
  9
$CAMERAHEIGHT
 40
0
  9
$STEPSPERSEC
 40
2
  9
$STEPSIZE
 40
50
  9
$3DDWFPREC
 40
2
  9
$PSOLWIDTH
 40
5
  9
$PSOLHEIGHT
 40
80
  9
$LOFTANG1
 40
1.570796326794897
  9
$LOFTANG2
 40
1.570796326794897
  9
$LOFTMAG1
 40
0
  9
$LOFTMAG2
 40
0
  9
$LOFTPARAM
 70
    7
  9
$LOFTNORMALS
280
    1
  9
$LATITUDE
 40
1
  9
$LONGITUDE
 40
1
  9
$NORTHDIRECTION
 40
0
  9
$TIMEZONE
 70
-8000
  9
$LIGHTGLYPHDISPLAY
280
    1
  9
$TILEMODELIGHTSYNCH
280
    1
  9
$SOLIDHIST
280
    1
  9
$SHOWHIST
280
    1
  9
$DWFFRAME
280
    2
  9
$DGNFRAME
280
    0
  9
$REALWORLDSCALE
290
    1
  9
$INTERFERECOLOR
 62
    1
  9
$CSHADOW
280
    0
  9
$SHADOWPLANELOCATION
 40
0
  0
ENDSEC
  0
SECTION
  2
CLASSES
  0
ENDSEC
  0
SECTION
  2
TABLES
  0
TABLE
  2
VPORT
  5
8
330
0
100
AcDbSymbolTable
 70
    1
  0
VPORT
  5
31
330
2
100
AcDbSymbolTableRecord
100
AcDbViewportTableRecord
  2
*ACTIVE
 70
    0
 10
0
 20
0
 11
1
 21
1
 12
238.9889912926231
 22
140.3851417383241
 13
0
 23
0
 14
10
 24
10
 15
0.001
 25
0.001
 16
0
 26
0
 36
1
 17
0
 27
0
 37
0
 40
353.8875447986919
 41
1.74025974025974
 42
50
 43
0
 44
0
 50
0
 51
0
 71
    0
 72
  100
 73
    1
 74
    3
 75
    0
 76
    1
 77
    0
 78
    0
281
    0
 65
    1
110
0
120
0
130
0
111
1
121
0
131
0
112
0
122
1
132
0
 79
    0
146
0
348
10020
 60
    3
 61
    5
292
1
282
    1
141
0
142
0
 63
  250
421
3358443
  0
ENDTAB
  0
TABLE
  2
LTYPE
  5
5
330
0
100
AcDbSymbolTable
 70
    4
  0
LTYPE
  5
14
330
5
100
AcDbSymbolTableRecord
100
AcDbLinetypeTableRecord
  2
ByBlock
 70
    0
  3

 72
   65
 73
    0
 40
0
  0
LTYPE
  5
15
330
5
100
AcDbSymbolTableRecord
100
AcDbLinetypeTableRecord
  2
ByLayer
 70
    0
  3

 72
   65
 73
    0
 40
0
  0
LTYPE
  5
16
330
5
100
AcDbSymbolTableRecord
100
AcDbLinetypeTableRecord
  2
Continuous
 70
    0
  3
Solid line
 72
   65
 73
    0
 40
0
  0
LTYPE
  5
32
330
5
100
AcDbSymbolTableRecord
100
AcDbLinetypeTableRecord
  2
DOT
 70
    0
  3
Dot . . . . . . . . . . . . . . . . . . . . . .
 72
   65
 73
    2
 40
6.35
 49
0
 74
    0
 49
-6.35
 74
    0
  0
LTYPE
  5
33
330
5
100
AcDbSymbolTableRecord
100
AcDbLinetypeTableRecord
  2
DOTTINY
 70
    0
  3
Dot (.15x) .....................................
 72
   65
 73
    2
 40
0.9525
 49
0
 74
    0
 49
-0.9525
 74
    0
  0
LTYPE
  5
34
330
5
100
AcDbSymbolTableRecord
100
AcDbLinetypeTableRecord
  2
DOT2
 70
    0
  3
Dot (.5x) .....................................
 72
   65
 73
    2
 40
3.175
 49
0
 74
    0
 49
-3.175
 74
    0
  0
LTYPE
  5
35
330
5
100
AcDbSymbolTableRecord
100
AcDbLinetypeTableRecord
  2
DOTX2
 70
    0
  3
Dot (2x) .  .  .  .  .  .  .  .  .  .  .  .  .
 72
   65
 73
    2
 40
12.7
 49
0
 74
    0
 49
-12.7
 74
    0
  0
LTYPE
  5
36
330
5
100
AcDbSymbolTableRecord
100
AcDbLinetypeTableRecord
  2
DASHED
 70
    0
  3
Dashed _ _ _ _ _ _ _ _ _ _ _ _ _ _ _ _ _
 72
   65
 73
    2
 40
19.05
 49
12.7
 74
    0
 49
-6.35
 74
    0
  0
LTYPE
  5
37
330
5
100
AcDbSymbolTableRecord
100
AcDbLinetypeTableRecord
  2
DASHEDTINY
 70
    0
  3
Dashed (.15x) _ _ _ _ _ _ _ _ _ _ _ _ _ _ _ _ _
 72
   65
 73
    2
 40
2.8575
 49
1.905
 74
    0
 49
-0.9525
 74
    0
  0
LTYPE
  5
38
330
5
100
AcDbSymbolTableRecord
100
AcDbLinetypeTableRecord
  2
DASHED2
 70
    0
  3
Dashed (.5x) _ _ _ _ _ _ _ _ _ _ _ _ _ _ _ _ _
 72
   65
 73
    2
 40
9.524999999999999
 49
6.35
 74
    0
 49
-3.175
 74
    0
  0
LTYPE
  5
39
330
5
100
AcDbSymbolTableRecord
100
AcDbLinetypeTableRecord
  2
DASHEDX2
 70
    0
  3
Dashed (2x) ____  ____  ____  ____  ____  ___
 72
   65
 73
    2
 40
38.09999999999999
 49
25.4
 74
    0
 49
-12.7
 74
    0
  0
LTYPE
  5
3A
330
5
100
AcDbSymbolTableRecord
100
AcDbLinetypeTableRecord
  2
DASHDOT
 70
    0
  3
Dash dot __ . __ . __ . __ . __ . __ . __ . __
 72
   65
 73
    4
 40
25.4
 49
12.7
 74
    0
 49
-6.35
 74
    0
 49
0
 74
    0
 49
-6.35
 74
    0
  0
LTYPE
  5
3B
330
5
100
AcDbSymbolTableRecord
100
AcDbLinetypeTableRecord
  2
DASHDOTTINY
 70
    0
  3
Dash dot (.15x) _._._._._._._._._._._._._._._.
 72
   65
 73
    4
 40
3.81
 49
1.905
 74
    0
 49
-0.9525
 74
    0
 49
0
 74
    0
 49
-0.9525
 74
    0
  0
LTYPE
  5
3C
330
5
100
AcDbSymbolTableRecord
100
AcDbLinetypeTableRecord
  2
DASHDOT2
 70
    0
  3
Dash dot (.5x) _._._._._._._._._._._._._._._.
 72
   65
 73
    4
 40
12.7
 49
6.35
 74
    0
 49
-3.175
 74
    0
 49
0
 74
    0
 49
-3.175
 74
    0
  0
LTYPE
  5
3D
330
5
100
AcDbSymbolTableRecord
100
AcDbLinetypeTableRecord
  2
DASHDOTX2
 70
    0
  3
Dash dot (2x) ____  .  ____  .  ____  .  ___
 72
   65
 73
    4
 40
50.8
 49
25.4
 74
    0
 49
-12.7
 74
    0
 49
0
 74
    0
 49
-12.7
 74
    0
  0
LTYPE
  5
3E
330
5
100
AcDbSymbolTableRecord
100
AcDbLinetypeTableRecord
  2
DIVIDE
 70
    0
  3
Divide ____ . . ____ . . ____ . . ____ . . ____
 72
   65
 73
    6
 40
31.75
 49
12.7
 74
    0
 49
-6.35
 74
    0
 49
0
 74
    0
 49
-6.35
 74
    0
 49
0
 74
    0
 49
-6.35
 74
    0
  0
LTYPE
  5
3F
330
5
100
AcDbSymbolTableRecord
100
AcDbLinetypeTableRecord
  2
DIVIDETINY
 70
    0
  3
Divide (.15x) __..__..__..__..__..__..__..__.._
 72
   65
 73
    6
 40
4.7625
 49
1.905
 74
    0
 49
-0.9525
 74
    0
 49
0
 74
    0
 49
-0.9525
 74
    0
 49
0
 74
    0
 49
-0.9525
 74
    0
  0
LTYPE
  5
40
330
5
100
AcDbSymbolTableRecord
100
AcDbLinetypeTableRecord
  2
DIVIDE2
 70
    0
  3
Divide (.5x) __..__..__..__..__..__..__..__.._
 72
   65
 73
    6
 40
15.875
 49
6.35
 74
    0
 49
-3.175
 74
    0
 49
0
 74
    0
 49
-3.175
 74
    0
 49
0
 74
    0
 49
-3.175
 74
    0
  0
LTYPE
  5
41
330
5
100
AcDbSymbolTableRecord
100
AcDbLinetypeTableRecord
  2
DIVIDEX2
 70
    0
  3
Divide (2x) ________  .  .  ________  .  .  _
 72
   65
 73
    6
 40
63.5
 49
25.4
 74
    0
 49
-12.7
 74
    0
 49
0
 74
    0
 49
-12.7
 74
    0
 49
0
 74
    0
 49
-12.7
 74
    0
  0
LTYPE
  5
42
330
5
100
AcDbSymbolTableRecord
100
AcDbLinetypeTableRecord
  2
BORDER
 70
    0
  3
Border __ __ . __ __ . __ __ . __ __ . __ __ .
 72
   65
 73
    6
 40
44.45
 49
12.7
 74
    0
 49
-6.35
 74
    0
 49
12.7
 74
    0
 49
-6.35
 74
    0
 49
0
 74
    0
 49
-6.35
 74
    0
  0
LTYPE
  5
43
330
5
100
AcDbSymbolTableRecord
100
AcDbLinetypeTableRecord
  2
BORDERTINY
 70
    0
  3
Border (.15x) __.__.__.__.__.__.__.__.__.__.__.
 72
   65
 73
    6
 40
6.6675
 49
1.905
 74
    0
 49
-0.9525
 74
    0
 49
1.905
 74
    0
 49
-0.9525
 74
    0
 49
0
 74
    0
 49
-0.9525
 74
    0
  0
LTYPE
  5
44
330
5
100
AcDbSymbolTableRecord
100
AcDbLinetypeTableRecord
  2
BORDER2
 70
    0
  3
Border (.5x) __.__.__.__.__.__.__.__.__.__.__.
 72
   65
 73
    6
 40
22.225
 49
6.35
 74
    0
 49
-3.175
 74
    0
 49
6.35
 74
    0
 49
-3.175
 74
    0
 49
0
 74
    0
 49
-3.175
 74
    0
  0
LTYPE
  5
45
330
5
100
AcDbSymbolTableRecord
100
AcDbLinetypeTableRecord
  2
BORDERX2
 70
    0
  3
Border (2x) ____  ____  .  ____  ____  .  ___
 72
   65
 73
    6
 40
88.89999999999999
 49
25.4
 74
    0
 49
-12.7
 74
    0
 49
25.4
 74
    0
 49
-12.7
 74
    0
 49
0
 74
    0
 49
-12.7
 74
    0
  0
LTYPE
  5
46
330
5
100
AcDbSymbolTableRecord
100
AcDbLinetypeTableRecord
  2
CENTER
 70
    0
  3
Center ____ _ ____ _ ____ _ ____ _ ____ _ ____
 72
   65
 73
    4
 40
50.8
 49
31.75
 74
    0
 49
-6.35
 74
    0
 49
6.35
 74
    0
 49
-6.35
 74
    0
  0
LTYPE
  5
47
330
5
100
AcDbSymbolTableRecord
100
AcDbLinetypeTableRecord
  2
CENTERTINY
 70
    0
  3
Center (.15x) ___ _ ___ _ ___ _ ___ _ ___ _ ___
 72
   65
 73
    4
 40
7.619999999999999
 49
4.7625
 74
    0
 49
-0.9525
 74
    0
 49
0.9525
 74
    0
 49
-0.9525
 74
    0
  0
LTYPE
  5
48
330
5
100
AcDbSymbolTableRecord
100
AcDbLinetypeTableRecord
  2
CENTER2
 70
    0
  3
Center (.5x) ___ _ ___ _ ___ _ ___ _ ___ _ ___
 72
   65
 73
    4
 40
28.575
 49
19.05
 74
    0
 49
-3.175
 74
    0
 49
3.175
 74
    0
 49
-3.175
 74
    0
  0
LTYPE
  5
49
330
5
100
AcDbSymbolTableRecord
100
AcDbLinetypeTableRecord
  2
CENTERX2
 70
    0
  3
Center (2x) ________  __  ________  __  _____
 72
   65
 73
    4
 40
101.6
 49
63.5
 74
    0
 49
-12.7
 74
    0
 49
12.7
 74
    0
 49
-12.7
 74
    0
  0
ENDTAB
  0
TABLE
  2
LAYER
  5
2
330
0
100
AcDbSymbolTable
 70
    1
  0
LAYER
  5
10
330
2
100
AcDbSymbolTableRecord
100
AcDbLayerTableRecord
  2
0
 70
    0
 62
    7
  6
CONTINUOUS
370
    0
390
F
  0
LAYER
  5
4A
330
2
100
AcDbSymbolTableRecord
100
AcDbLayerTableRecord
  2
default
 70
    0
 62
    7
  6
CONTINUOUS
370
   -3
390
F
  0
ENDTAB
  0
TABLE
  2
STYLE
  5
3
330
0
100
AcDbSymbolTable
 70
    3
  0
STYLE
  5
4B
330
2
100
AcDbSymbolTableRecord
100
AcDbTextStyleTableRecord
  2
Standard
 70
    0
 40
0
 41
1
 50
0
 71
    0
 42
1
  3
txt
  4

  0
ENDTAB
  0
TABLE
  2
VIEW
  5
6
330
0
100
AcDbSymbolTable
 70
    0
  0
ENDTAB
  0
TABLE
  2
UCS
  5
7
330
0
100
AcDbSymbolTable
 70
    0
  0
ENDTAB
  0
TABLE
  2
APPID
  5
9
330
0
100
AcDbSymbolTable
 70
    1
  0
APPID
  5
12
330
9
100
AcDbSymbolTableRecord
100
AcDbRegAppTableRecord
  2
ACAD
 70
    0
  0
APPID
  5
4C
330
9
100
AcDbSymbolTableRecord
100
AcDbRegAppTableRecord
  2
LibreCad
 70
    0
  0
ENDTAB
  0
TABLE
  2
DIMSTYLE
  5
A
330
0
100
AcDbSymbolTable
 70
    1
100
AcDbDimStyleTable
 71
    1
  0
DIMSTYLE
105
4D
330
A
100
AcDbSymbolTableRecord
100
AcDbDimStyleTableRecord
  2
Standard
 70
    0
 40
1
 41
3
 42
2
 43
0.38
 44
2
 45
0
 46
0
 47
0
 48
0
 49
1
140
5
141
0.09
142
2.5
143
25.4
144
1
145
0
146
1
147
0.625
148
0
 71
    0
 72
    0
 73
    0
 74
    1
 75
    0
 76
    0
 77
    0
 78
    1
 79
    0
170
    0
171
    2
172
    0
173
    0
174
    0
175
    0
176
    0
177
    0
178
    0
179
    2
271
    2
272
    4
273
    2
274
    2
275
    0
276
    0
277
    2
278
    0
279
    0
280
    0
281
    0
282
    0
283
    1
284
    0
285
    0
286
    0
288
    0
289
    3
340
standard
341

371
   -2
372
   -2
  0
ENDTAB
  0
TABLE
  2
BLOCK_RECORD
  5
1
330
0
100
AcDbSymbolTable
 70
    2
  0
BLOCK_RECORD
  5
1F
330
1
100
AcDbSymbolTableRecord
100
AcDbBlockTableRecord
  2
*Model_Space
 70
    0
280
    1
281
    0
  0
BLOCK_RECORD
  5
1E
330
1
100
AcDbSymbolTableRecord
100
AcDbBlockTableRecord
  2
*Paper_Space
 70
    0
280
    1
281
    0
  0
ENDTAB
  0
ENDSEC
  0
SECTION
  2
BLOCKS
  0
BLOCK
  5
20
330
1F
100
AcDbEntity
  8
0
100
AcDbBlockBegin
  2
*Model_Space
 70
    0
 10
0
 20
0
 30
0
  3
*Model_Space
  1

  0
ENDBLK
  5
21
330
1F
100
AcDbEntity
  8
0
100
AcDbBlockEnd
  0
BLOCK
  5
1C
330
1B
100
AcDbEntity
  8
0
100
AcDbBlockBegin
  2
*Paper_Space
 70
    0
 10
0
 20
0
 30
0
  3
*Paper_Space
  1

  0
ENDBLK
  5
1D
330
1F
100
AcDbEntity
  8
0
100
AcDbBlockEnd
  0
ENDSEC
  0
SECTION
  2
ENTITIES
  0
LINE
  5
4E
100
AcDbEntity
  8
default
  6
CONTINUOUS
 62
    7
370
   -1
100
AcDbLine
 10
0.155644
 20
0
 11
0.037539
 21
3.729557
  0
LINE
  5
4F
100
AcDbEntity
  8
default
  6
CONTINUOUS
 62
    7
370
   -1
100
AcDbLine
 10
0.604284
 20
7.398393
 11
1.834285
 21
10.901057
  0
LINE
  5
50
100
AcDbEntity
  8
default
  6
CONTINUOUS
 62
    7
370
   -1
100
AcDbLine
 10
3.685816
 20
14.118725
 11
6.09607
 21
16.942241
  0
LINE
  5
51
100
AcDbEntity
  8
default
  6
CONTINUOUS
 62
    7
370
   -1
100
AcDbLine
 10
8.983276
 20
19.275819
 11
6.09607
 21
16.942241
  0
LINE
  5
52
100
AcDbEntity
  8
default
  6
CONTINUOUS
 62
    7
370
   -1
100
AcDbLine
 10
3.685816
 20
14.118725
 11
1.834285
 21
10.901057
  0
LINE
  5
53
100
AcDbEntity
  8
default
  6
CONTINUOUS
 62
    7
370
   -1
100
AcDbLine
 10
0.604284
 20
7.398393
 11
0.037539
 21
3.729557
  0
LINE
  5
54
100
AcDbEntity
  8
default
  6
CONTINUOUS
 62
    7
370
   -1
100
AcDbLine
 10
8.983276
 20
19.275819
 11
12.249492
 21
21.040298
  0
LINE
  5
55
100
AcDbEntity
  8
default
  6
CONTINUOUS
 62
    7
370
   -1
100
AcDbLine
 10
12.249492
 20
21.040298
 11
15.783916
 21
22.17582
  0
LINE
  5
56
100
AcDbEntity
  8
default
  6
CONTINUOUS
 62
    7
370
   -1
100
AcDbLine
 10
15.783916
 20
22.17582
 11
19.466645
 21
22.643862
  0
LINE
  5
57
100
AcDbEntity
  8
default
  6
CONTINUOUS
 62
    7
370
   -1
100
AcDbLine
 10
19.466645
 20
22.643862
 11
23.172749
 21
22.428546
  0
LINE
  5
58
100
AcDbEntity
  8
default
  6
CONTINUOUS
 62
    7
370
   -1
100
AcDbLine
 10
23.172749
 20
22.428546
 11
26.776499
 21
21.537178
  0
LINE
  5
59
100
AcDbEntity
  8
default
  6
CONTINUOUS
 62
    7
370
   -1
100
AcDbLine
 10
26.776499
 20
21.537178
 11
30.155646
 21
19.999998
  0
LINE
  5
5A
100
AcDbEntity
  8
default
  6
CONTINUOUS
 62
    7
370
   -1
100
AcDbLine
 10
20.155639
 20
10.000002
 11
23.867668
 21
9.880831000000001
  0
LINE
  5
5B
100
AcDbEntity
  8
default
  6
CONTINUOUS
 62
    7
370
   -1
100
AcDbLine
 10
23.867668
 20
9.880831000000001
 11
27.538547
 21
10.444765
  0
LINE
  5
5C
100
AcDbEntity
  8
default
  6
CONTINUOUS
 62
    7
370
   -1
100
AcDbLine
 10
27.538547
 20
10.444765
 11
31.043634
 21
11.672656
  0
LINE
  5
5D
100
AcDbEntity
  8
default
  6
CONTINUOUS
 62
    7
370
   -1
100
AcDbLine
 10
31.043634
 20
11.672656
 11
34.263926
 21
13.522813
  0
LINE
  5
5E
100
AcDbEntity
  8
default
  6
CONTINUOUS
 62
    7
370
   -1
100
AcDbLine
 10
34.263926
 20
13.522813
 11
37.090083
 21
15.932417
  0
LINE
  5
5F
100
AcDbEntity
  8
default
  6
CONTINUOUS
 62
    7
370
   -1
100
AcDbLine
 10
37.090083
 20
15.932417
 11
39.426152
 21
18.819656
  0
LINE
  5
60
100
AcDbEntity
  8
default
  6
CONTINUOUS
 62
    7
370
   -1
100
AcDbLine
 10
39.426152
 20
18.819656
 11
41.192808
 21
22.086502
  0
LINE
  5
61
100
AcDbEntity
  8
default
  6
CONTINUOUS
 62
    7
370
   -1
100
AcDbLine
 10
41.192808
 20
22.086502
 11
42.330077
 21
25.622033
  0
LINE
  5
62
100
AcDbEntity
  8
default
  6
CONTINUOUS
 62
    7
370
   -1
100
AcDbLine
 10
42.330077
 20
25.622033
 11
42.799344
 21
29.306211
  0
LINE
  5
63
100
AcDbEntity
  8
default
  6
CONTINUOUS
 62
    7
370
   -1
100
AcDbLine
 10
42.799344
 20
29.306211
 11
42.584671
 21
33.013942
  0
LINE
  5
64
100
AcDbEntity
  8
default
  6
CONTINUOUS
 62
    7
370
   -1
100
AcDbLine
 10
42.584671
 20
33.013942
 11
41.693351
 21
36.619343
  0
LINE
  5
65
100
AcDbEntity
  8
default
  6
CONTINUOUS
 62
    7
370
   -1
100
AcDbLine
 10
41.693351
 20
36.619343
 11
40.155646
 21
39.999997
  0
LINE
  5
66
100
AcDbEntity
  8
default
  6
CONTINUOUS
 62
    7
370
   -1
100
AcDbLine
 10
10.155654
 20
89.999999
 11
16.354442
 21
93.194794
  0
LINE
  5
67
100
AcDbEntity
  8
default
  6
CONTINUOUS
 62
    7
370
   -1
100
AcDbLine
 10
16.354442
 20
93.194794
 11
22.806123
 21
95.84196
  0
LINE
  5
68
100
AcDbEntity
  8
default
  6
CONTINUOUS
 62
    7
370
   -1
100
AcDbLine
 10
22.806123
 20
95.84196
 11
29.462424
 21
97.921691
  0
LINE
  5
69
100
AcDbEntity
  8
default
  6
CONTINUOUS
 62
    7
370
   -1
100
AcDbLine
 10
29.462424
 20
97.921691
 11
36.273552
 21
99.418429
  0
LINE
  5
6A
100
AcDbEntity
  8
default
  6
CONTINUOUS
 62
    7
370
   -1
100
AcDbLine
 10
36.273552
 20
99.418429
 11
43.188541
 21
100.32097
  0
LINE
  5
6B
100
AcDbEntity
  8
default
  6
CONTINUOUS
 62
    7
370
   -1
100
AcDbLine
 10
43.188541
 20
100.32097
 11
50.155655
 21
100.62257
  0
LINE
  5
6C
100
AcDbEntity
  8
default
  6
CONTINUOUS
 62
    7
370
   -1
100
AcDbLine
 10
50.155655
 20
100.62257
 11
57.122769
 21
100.32097
  0
LINE
  5
6D
100
AcDbEntity
  8
default
  6
CONTINUOUS
 62
    7
370
   -1
100
AcDbLine
 10
57.122769
 20
100.32097
 11
64.037758
 21
99.418429
  0
LINE
  5
6E
100
AcDbEntity
  8
default
  6
CONTINUOUS
 62
    7
370
   -1
100
AcDbLine
 10
64.037758
 20
99.418429
 11
70.848882
 21
97.921691
  0
LINE
  5
6F
100
AcDbEntity
  8
default
  6
CONTINUOUS
 62
    7
370
   -1
100
AcDbLine
 10
70.848882
 20
97.921691
 11
77.50518700000001
 21
95.84195200000001
  0
LINE
  5
70
100
AcDbEntity
  8
default
  6
CONTINUOUS
 62
    7
370
   -1
100
AcDbLine
 10
77.50518700000001
 20
95.84195200000001
 11
83.95685899999999
 21
93.194785
  0
LINE
  5
71
100
AcDbEntity
  8
default
  6
CONTINUOUS
 62
    7
370
   -1
100
AcDbLine
 10
83.95685899999999
 20
93.194785
 11
90.155648
 21
89.99999
  0
LINE
  5
72
100
AcDbEntity
  8
default
  6
CONTINUOUS
 62
    7
370
   -1
100
AcDbLine
 10
10.155645
 20
50.000006
 11
8.520709
 21
54.349385
  0
LINE
  5
73
100
AcDbEntity
  8
default
  6
CONTINUOUS
 62
    7
370
   -1
100
AcDbLine
 10
8.520709
 20
54.349385
 11
7.819974
 21
58.942762
  0
LINE
  5
74
100
AcDbEntity
  8
default
  6
CONTINUOUS
 62
    7
370
   -1
100
AcDbLine
 10
7.819974
 20
58.942762
 11
8.083698999999999
 21
63.581786
  0
LINE
  5
75
100
AcDbEntity
  8
default
  6
CONTINUOUS
 62
    7
370
   -1
100
AcDbLine
 10
8.083698999999999
 20
63.581786
 11
9.300497
 21
68.066153
  0
LINE
  5
76
100
AcDbEntity
  8
default
  6
CONTINUOUS
 62
    7
370
   -1
100
AcDbLine
 10
9.300497
 20
68.066153
 11
11.417825
 21
72.20222
  0
LINE
  5
77
100
AcDbEntity
  8
default
  6
CONTINUOUS
 62
    7
370
   -1
100
AcDbLine
 10
11.417825
 20
72.20222
 11
14.344258
 21
75.811391
  0
LINE
  5
78
100
AcDbEntity
  8
default
  6
CONTINUOUS
 62
    7
370
   -1
100
AcDbLine
 10
14.344258
 20
75.811391
 11
17.953431
 21
78.737818
  0
LINE
  5
79
100
AcDbEntity
  8
default
  6
CONTINUOUS
 62
    7
370
   -1
100
AcDbLine
 10
17.953431
 20
78.737818
 11
22.089499
 21
80.85515100000001
  0
LINE
  5
7A
100
AcDbEntity
  8
default
  6
CONTINUOUS
 62
    7
370
   -1
100
AcDbLine
 10
22.089499
 20
80.85515100000001
 11
26.573864
 21
82.07194699999999
  0
LINE
  5
7B
100
AcDbEntity
  8
default
  6
CONTINUOUS
 62
    7
370
   -1
100
AcDbLine
 10
26.573864
 20
82.07194699999999
 11
31.212892
 21
82.335669
  0
LINE
  5
7C
100
AcDbEntity
  8
default
  6
CONTINUOUS
 62
    7
370
   -1
100
AcDbLine
 10
31.212892
 20
82.335669
 11
35.806267
 21
81.63493699999999
  0
LINE
  5
7D
100
AcDbEntity
  8
default
  6
CONTINUOUS
 62
    7
370
   -1
100
AcDbLine
 10
35.806267
 20
81.63493699999999
 11
40.155646
 21
79.999994
  0
LINE
  5
7E
100
AcDbEntity
  8
default
  6
CONTINUOUS
 62
    7
370
   -1
100
AcDbLine
 10
50.155655
 20
89.99999
 11
57.777894
 21
88.44194899999999
  0
LINE
  5
7F
100
AcDbEntity
  8
default
  6
CONTINUOUS
 62
    7
370
   -1
100
AcDbLine
 10
57.777894
 20
88.44194899999999
 11
65.06944799999999
 21
85.72914900000001
  0
LINE
  5
80
100
AcDbEntity
  8
default
  6
CONTINUOUS
 62
    7
370
   -1
100
AcDbLine
 10
65.06944799999999
 20
85.72914900000001
 11
71.856503
 21
81.92626199999999
  0
LINE
  5
81
100
AcDbEntity
  8
default
  6
CONTINUOUS
 62
    7
370
   -1
100
AcDbLine
 10
71.856503
 20
81.92626199999999
 11
77.977262
 21
77.12393400000001
  0
LINE
  5
82
100
AcDbEntity
  8
default
  6
CONTINUOUS
 62
    7
370
   -1
100
AcDbLine
 10
77.977262
 20
77.12393400000001
 11
83.28582900000001
 21
71.436655
  0
LINE
  5
83
100
AcDbEntity
  8
default
  6
CONTINUOUS
 62
    7
370
   -1
100
AcDbLine
 10
83.28582900000001
 20
71.436655
 11
87.65564500000001
 21
64.999987
  0
LINE
  5
84
100
AcDbEntity
  8
default
  6
CONTINUOUS
 62
    7
370
   -1
100
AcDbLine
 10
87.65564500000001
 20
64.999987
 11
90.982555
 21
57.967371
  0
LINE
  5
85
100
AcDbEntity
  8
default
  6
CONTINUOUS
 62
    7
370
   -1
100
AcDbLine
 10
90.982555
 20
57.967371
 11
93.18724400000001
 21
50.50645
  0
LINE
  5
86
100
AcDbEntity
  8
default
  6
CONTINUOUS
 62
    7
370
   -1
100
AcDbLine
 10
94.21716600000001
 20
42.795074
 11
93.18724400000001
 21
50.50645
  0
LINE
  5
87
100
AcDbEntity
  8
default
  6
CONTINUOUS
 62
    7
370
   -1
100
AcDbLine
 10
94.21716600000001
 20
42.795074
 11
94.04777199999999
 21
35.017074
  0
LINE
  5
88
100
AcDbEntity
  8
default
  6
CONTINUOUS
 62
    7
370
   -1
100
AcDbLine
 10
94.04777199999999
 20
35.017074
 11
92.68307900000001
 21
27.357854
  0
LINE
  5
89
100
AcDbEntity
  8
default
  6
CONTINUOUS
 62
    7
370
   -1
100
AcDbLine
 10
92.68307900000001
 20
27.357854
 11
90.15563899999999
 21
19.999996
  0
LINE
  5
8A
100
AcDbEntity
  8
default
  6
CONTINUOUS
 62
    7
370
   -1
100
AcDbLine
 10
70.155647
 20
49.999997
 11
74.991282
 21
46.730321
  0
LINE
  5
8B
100
AcDbEntity
  8
default
  6
CONTINUOUS
 62
    7
370
   -1
100
AcDbLine
 10
74.991282
 20
46.730321
 11
78.81589200000001
 21
42.320506
  0
LINE
  5
8C
100
AcDbEntity
  8
default
  6
CONTINUOUS
 62
    7
370
   -1
100
AcDbLine
 10
78.81589200000001
 20
42.320506
 11
81.368843
 21
37.071063
  0
LINE
  5
8D
100
AcDbEntity
  8
default
  6
CONTINUOUS
 62
    7
370
   -1
100
AcDbLine
 10
81.368843
 20
37.071063
 11
82.47614799999999
 21
31.339743
  0
LINE
  5
8E
100
AcDbEntity
  8
default
  6
CONTINUOUS
 62
    7
370
   -1
100
AcDbLine
 10
82.47614799999999
 20
31.339743
 11
82.062349
 21
25.517118
  0
LINE
  5
8F
100
AcDbEntity
  8
default
  6
CONTINUOUS
 62
    7
370
   -1
100
AcDbLine
 10
82.062349
 20
25.517118
 11
80.155643
 21
19.999996
  0
LINE
  5
90
100
AcDbEntity
  8
default
  6
CONTINUOUS
 62
    7
370
   -1
100
AcDbLine
 10
80.155643
 20
19.999996
 11
76.88596699999999
 21
15.164359
  0
LINE
  5
91
100
AcDbEntity
  8
default
  6
CONTINUOUS
 62
    7
370
   -1
100
AcDbLine
 10
76.88596699999999
 20
15.164359
 11
72.47614299999999
 21
11.339746
  0
LINE
  5
92
100
AcDbEntity
  8
default
  6
CONTINUOUS
 62
    7
370
   -1
100
AcDbLine
 10
72.47614299999999
 20
11.339746
 11
67.226705
 21
8.786797999999999
  0
LINE
  5
93
100
AcDbEntity
  8
default
  6
CONTINUOUS
 62
    7
370
   -1
100
AcDbLine
 10
67.226705
 20
8.786797999999999
 11
61.495385
 21
7.679495
  0
LINE
  5
94
100
AcDbEntity
  8
default
  6
CONTINUOUS
 62
    7
370
   -1
100
AcDbLine
 10
61.495385
 20
7.679495
 11
55.672762
 21
8.093297
  0
LINE
  5
95
100
AcDbEntity
  8
default
  6
CONTINUOUS
 62
    7
370
   -1
100
AcDbLine
 10
55.672762
 20
8.093297
 11
50.155638
 21
10.000004
  0
LINE
  5
96
100
AcDbEntity
  8
default
  6
CONTINUOUS
 62
    7
370
   -1
100
AcDbLine
 10
20.155639
 20
69.99999800000001
 11
23.632674
 21
66.950721
  0
LINE
  5
97
100
AcDbEntity
  8
default
  6
CONTINUOUS
 62
    7
370
   -1
100
AcDbLine
 10
23.632674
 20
66.950721
 11
27.47797
 21
64.38137500000001
  0
LINE
  5
98
100
AcDbEntity
  8
default
  6
CONTINUOUS
 62
    7
370
   -1
100
AcDbLine
 10
27.47797
 20
64.38137500000001
 11
31.625736
 21
62.335922
  0
LINE
  5
99
100
AcDbEntity
  8
default
  6
CONTINUOUS
 62
    7
370
   -1
100
AcDbLine
 10
31.625736
 20
62.335922
 11
36.005004
 21
60.849363
  0
LINE
  5
9A
100
AcDbEntity
  8
default
  6
CONTINUOUS
 62
    7
370
   -1
100
AcDbLine
 10
36.005004
 20
60.849363
 11
40.540841
 21
59.947124
  0
LINE
  5
9B
100
AcDbEntity
  8
default
  6
CONTINUOUS
 62
    7
370
   -1
100
AcDbLine
 10
40.540841
 20
59.947124
 11
45.15564
 21
59.644658
  0
LINE
  5
9C
100
AcDbEntity
  8
default
  6
CONTINUOUS
 62
    7
370
   -1
100
AcDbLine
 10
45.15564
 20
59.644658
 11
49.770438
 21
59.947124
  0
LINE
  5
9D
100
AcDbEntity
  8
default
  6
CONTINUOUS
 62
    7
370
   -1
100
AcDbLine
 10
49.770438
 20
59.947124
 11
54.306275
 21
60.849363
  0
LINE
  5
9E
100
AcDbEntity
  8
default
  6
CONTINUOUS
 62
    7
370
   -1
100
AcDbLine
 10
54.306275
 20
60.849363
 11
58.685544
 21
62.335922
  0
LINE
  5
9F
100
AcDbEntity
  8
default
  6
CONTINUOUS
 62
    7
370
   -1
100
AcDbLine
 10
58.685544
 20
62.335922
 11
62.833307
 21
64.38137500000001
  0
LINE
  5
A0
100
AcDbEntity
  8
default
  6
CONTINUOUS
 62
    7
370
   -1
100
AcDbLine
 10
62.833307
 20
64.38137500000001
 11
66.678608
 21
66.950721
  0
LINE
  5
A1
100
AcDbEntity
  8
default
  6
CONTINUOUS
 62
    7
370
   -1
100
AcDbLine
 10
66.678608
 20
66.950721
 11
70.15563899999999
 21
69.99999800000001
  0
LINE
  5
A2
100
AcDbEntity
  8
default
  6
CONTINUOUS
 62
    7
370
   -1
100
AcDbLine
 10
20.155639
 20
40.000001
 11
23.632674
 21
43.049278
  0
LINE
  5
A3
100
AcDbEntity
  8
default
  6
CONTINUOUS
 62
    7
370
   -1
100
AcDbLine
 10
23.632674
 20
43.049278
 11
27.47797
 21
45.618624
  0
LINE
  5
A4
100
AcDbEntity
  8
default
  6
CONTINUOUS
 62
    7
370
   -1
100
AcDbLine
 10
27.47797
 20
45.618624
 11
31.625736
 21
47.664077
  0
LINE
  5
A5
100
AcDbEntity
  8
default
  6
CONTINUOUS
 62
    7
370
   -1
100
AcDbLine
 10
31.625736
 20
47.664077
 11
36.005004
 21
49.150632
  0
LINE
  5
A6
100
AcDbEntity
  8
default
  6
CONTINUOUS
 62
    7
370
   -1
100
AcDbLine
 10
36.005004
 20
49.150632
 11
40.540841
 21
50.05287
  0
LINE
  5
A7
100
AcDbEntity
  8
default
  6
CONTINUOUS
 62
    7
370
   -1
100
AcDbLine
 10
40.540841
 20
50.05287
 11
45.15564
 21
50.355337
  0
LINE
  5
A8
100
AcDbEntity
  8
default
  6
CONTINUOUS
 62
    7
370
   -1
100
AcDbLine
 10
45.15564
 20
50.355337
 11
49.770438
 21
50.05287
  0
LINE
  5
A9
100
AcDbEntity
  8
default
  6
CONTINUOUS
 62
    7
370
   -1
100
AcDbLine
 10
49.770438
 20
50.05287
 11
54.306275
 21
49.150632
  0
LINE
  5
AA
100
AcDbEntity
  8
default
  6
CONTINUOUS
 62
    7
370
   -1
100
AcDbLine
 10
54.306275
 20
49.150632
 11
58.685544
 21
47.664077
  0
LINE
  5
AB
100
AcDbEntity
  8
default
  6
CONTINUOUS
 62
    7
370
   -1
100
AcDbLine
 10
58.685544
 20
47.664077
 11
62.833307
 21
45.618624
  0
LINE
  5
AC
100
AcDbEntity
  8
default
  6
CONTINUOUS
 62
    7
370
   -1
100
AcDbLine
 10
62.833307
 20
45.618624
 11
66.678608
 21
43.049278
  0
LINE
  5
AD
100
AcDbEntity
  8
default
  6
CONTINUOUS
 62
    7
370
   -1
100
AcDbLine
 10
66.678608
 20
43.049278
 11
70.15563899999999
 21
40.000001
  0
LINE
  5
AE
100
AcDbEntity
  8
default
  6
CONTINUOUS
 62
    7
370
   -1
100
AcDbLine
 10
60.155642
 20
39.999997
 11
62.07076
 21
39.219038
  0
LINE
  5
AF
100
AcDbEntity
  8
default
  6
CONTINUOUS
 62
    7
370
   -1
100
AcDbLine
 10
62.07076
 20
39.219038
 11
63.86756
 21
38.19479
  0
LINE
  5
B0
100
AcDbEntity
  8
default
  6
CONTINUOUS
 62
    7
370
   -1
100
AcDbLine
 10
63.86756
 20
38.19479
 11
65.515293
 21
36.94477
  0
LINE
  5
B1
100
AcDbEntity
  8
default
  6
CONTINUOUS
 62
    7
370
   -1
100
AcDbLine
 10
65.515293
 20
36.94477
 11
66.98576799999999
 21
35.490376
  0
LINE
  5
B2
100
AcDbEntity
  8
default
  6
CONTINUOUS
 62
    7
370
   -1
100
AcDbLine
 10
66.98576799999999
 20
35.490376
 11
68.253832
 21
33.856489
  0
LINE
  5
B3
100
AcDbEntity
  8
default
  6
CONTINUOUS
 62
    7
370
   -1
100
AcDbLine
 10
68.253832
 20
33.856489
 11
69.29777799999999
 21
32.071063
  0
LINE
  5
B4
100
AcDbEntity
  8
default
  6
CONTINUOUS
 62
    7
370
   -1
100
AcDbLine
 10
69.29777799999999
 20
32.071063
 11
70.09974699999999
 21
30.16465
  0
LINE
  5
B5
100
AcDbEntity
  8
default
  6
CONTINUOUS
 62
    7
370
   -1
100
AcDbLine
 10
70.09974699999999
 20
30.16465
 11
70.646024
 21
28.169868
  0
LINE
  5
B6
100
AcDbEntity
  8
default
  6
CONTINUOUS
 62
    7
370
   -1
100
AcDbLine
 10
70.646024
 20
28.169868
 11
70.927249
 21
26.120851
  0
LINE
  5
B7
100
AcDbEntity
  8
default
  6
CONTINUOUS
 62
    7
370
   -1
100
AcDbLine
 10
70.927249
 20
26.120851
 11
70.938622
 21
24.052654
  0
LINE
  5
B8
100
AcDbEntity
  8
default
  6
CONTINUOUS
 62
    7
370
   -1
100
AcDbLine
 10
70.938622
 20
24.052654
 11
70.67994299999999
 21
22.000666
  0
LINE
  5
B9
100
AcDbEntity
  8
default
  6
CONTINUOUS
 62
    7
370
   -1
100
AcDbLine
 10
70.67994299999999
 20
22.000666
 11
70.15563899999999
 21
19.999998
  0
LINE
  5
BA
100
AcDbEntity
  8
default
  6
CONTINUOUS
 62
    7
370
   -1
100
AcDbLine
 10
90.15565700000001
 20
30.000001
 11
89.02149300000001
 21
27.303927
  0
LINE
  5
BB
100
AcDbEntity
  8
default
  6
CONTINUOUS
 62
    7
370
   -1
100
AcDbLine
 10
89.02149300000001
 20
27.303927
 11
88.248942
 21
24.482881
  0
LINE
  5
BC
100
AcDbEntity
  8
default
  6
CONTINUOUS
 62
    7
370
   -1
100
AcDbLine
 10
88.248942
 20
24.482881
 11
87.851223
 21
21.58513
  0
LINE
  5
BD
100
AcDbEntity
  8
default
  6
CONTINUOUS
 62
    7
370
   -1
100
AcDbLine
 10
87.851223
 20
21.58513
 11
87.835143
 21
18.660258
  0
LINE
  5
BE
100
AcDbEntity
  8
default
  6
CONTINUOUS
 62
    7
370
   -1
100
AcDbLine
 10
87.835143
 20
18.660258
 11
88.200973
 21
15.758308
  0
LINE
  5
BF
100
AcDbEntity
  8
default
  6
CONTINUOUS
 62
    7
370
   -1
100
AcDbLine
 10
88.200973
 20
15.758308
 11
88.942448
 21
12.928936
  0
LINE
  5
C0
100
AcDbEntity
  8
default
  6
CONTINUOUS
 62
    7
370
   -1
100
AcDbLine
 10
88.942448
 20
12.928936
 11
90.04688299999999
 21
10.220551
  0
LINE
  5
C1
100
AcDbEntity
  8
default
  6
CONTINUOUS
 62
    7
370
   -1
100
AcDbLine
 10
90.04688299999999
 20
10.220551
 11
91.49539
 21
7.679495
  0
LINE
  5
C2
100
AcDbEntity
  8
default
  6
CONTINUOUS
 62
    7
370
   -1
100
AcDbLine
 10
91.49539
 20
7.679495
 11
93.263183
 21
5.349248
  0
LINE
  5
C3
100
AcDbEntity
  8
default
  6
CONTINUOUS
 62
    7
370
   -1
100
AcDbLine
 10
93.263183
 20
5.349248
 11
95.320009
 21
3.269677
  0
LINE
  5
C4
100
AcDbEntity
  8
default
  6
CONTINUOUS
 62
    7
370
   -1
100
AcDbLine
 10
95.320009
 20
3.269677
 11
97.630672
 21
1.476367
  0
LINE
  5
C5
100
AcDbEntity
  8
default
  6
CONTINUOUS
 62
    7
370
   -1
100
AcDbLine
 10
97.630672
 20
1.476367
 11
100.15564
 21
2e-006
  0
ENDSEC
  0
SECTION
  2
OBJECTS
  0
DICTIONARY
  5
C
330
0
100
AcDbDictionary
281
    1
  3
ACAD_GROUP
350
D
  0
DICTIONARY
  5
D
330
C
100
AcDbDictionary
281
    1
  0
PLOTSETTINGS
  5
C6
  6
1x1
 40
0
 41
0
 42
0
 43
0
  0
ENDSEC
  0
EOF
